M48
;Layer_Color=9474304
;FILE_FORMAT=2:4
INCH,TZ
;TYPE=PLATED
T01F00S00C0.0256
T02F00S00C0.0276
T03F00S00C0.0280
T04F00S00C0.0300
T05F00S00C0.0315
T06F00S00C0.0319
T07F00S00C0.0335
T08F00S00C0.0354
T09F00S00C0.0394
T10F00S00C0.0413
T11F00S00C0.0433
T12F00S00C0.0512
T13F00S00C0.0531
T14F00S00C0.0539
T15F00S00C0.0551
T16F00S00C0.0630
T17F00S00C0.1378
%
T01
X25800Y5559
X27009Y5600
X29591
X20941Y5000
Y2800
X18359
X18600Y5009
Y7591
X20941Y7583
X10500Y7691
X8891Y7450
X10500Y5109
X9509Y3200
X12091
X6309Y7450
X4941
X2359
X2709Y11800
X5291
X18409Y18850
X20991
X22659Y19750
X25241
X26559
X29141
X34959Y19600
X37541
X35450Y16791
Y14209
X35259Y12550
X34041
X31459
X31641Y11250
Y9950
X29059
X28191
X28141Y11250
X29059
X25559
X25609Y9950
X25800Y8141
X23800Y14359
Y16941
X37841Y12550
X21091Y24750
X18509
T02
X23700Y5716
Y7684
X4250Y14000
X2281
X12216Y18100
X14184
X16550Y16634
Y14666
X18400Y12350
Y10381
X12000Y21750
X11500Y22250
X11000Y21750
X31016Y19650
X32984
X31100Y16734
Y14766
T03
X14150Y2850
X15150
X21450Y10600
Y11600
X24000
Y10600
X37250Y15200
Y16200
T04
X12100Y2150
X17400Y8350
X11500Y19850
X9150Y20100
X29791Y17791
X30450Y13550
X34400Y13700
X34200Y10550
X38250Y17800
T05
X27450Y7650
X27950
X28450
X33100Y15250
Y15750
Y16250
T06
X7750Y21800
X8750
T07
X6878Y10350
X10422
X12078
X15622
X13950Y19328
Y22872
X13972Y25100
X10428
T08
X33450Y4950
Y6919
X16284Y18992
Y24898
T09
X7533Y13388
Y14388
X36700Y10400
X37700
T10
X12850Y4850
X13850
X14850
X15850
Y7850
X14850
X13850
X12850
X14798Y13000
X14748Y15450
X10452
X10502Y13000
X26050Y13450
X27050
X28050
X29050
Y16450
X28050
X27050
X26050
T11
X37700Y5100
Y6100
X3200Y10000
X2200
X2700Y17750
X3700
X4700
X7750Y24850
X8750
T12
X7450Y4200
X5450
X3450
T13
X19050Y16000
X20050
X21050
X21000Y22156
X20000
X19000
T14
X8002Y18000
X9000
X9998
T15
X24481Y24200
X26450
X28419
X32332
X34300
X36268
T16
X3900Y21300
Y23300
T17
X37300Y3100
X2700Y25750
M30
