G04*
G04 #@! TF.GenerationSoftware,Altium Limited,Altium Designer,25.8.1 (18)*
G04*
G04 Layer_Color=8388736*
%FSLAX25Y25*%
%MOIN*%
G70*
G04*
G04 #@! TF.SameCoordinates,72C839A6-74C3-439F-BF33-F4790D7700C6*
G04*
G04*
G04 #@! TF.FilePolarity,Negative*
G04*
G01*
G75*
%ADD15C,0.04528*%
%ADD16R,0.04528X0.04528*%
%ADD17C,0.06706*%
%ADD18C,0.09068*%
%ADD19R,0.09068X0.09068*%
%ADD20R,0.04528X0.04528*%
%ADD21C,0.05524*%
%ADD22R,0.05524X0.05524*%
%ADD23C,0.06115*%
%ADD24R,0.06115X0.06115*%
%ADD25C,0.06312*%
%ADD26R,0.04724X0.04724*%
%ADD27C,0.04724*%
%ADD28R,0.06115X0.06115*%
%ADD29R,0.06299X0.06299*%
%ADD30C,0.06299*%
%ADD31C,0.05591*%
%ADD32R,0.04724X0.04724*%
%ADD33C,0.07296*%
%ADD34R,0.07296X0.07296*%
%ADD35R,0.07493X0.07493*%
%ADD36C,0.07493*%
%ADD37R,0.05524X0.05524*%
%ADD38R,0.07296X0.07296*%
%ADD39C,0.06800*%
%ADD40C,0.10249*%
%ADD41C,0.08891*%
%ADD42C,0.05981*%
%ADD43C,0.07001*%
%ADD44C,0.08071*%
%ADD45R,0.08071X0.08071*%
%ADD46R,0.07001X0.07001*%
%ADD47C,0.08477*%
%ADD48C,0.16548*%
%ADD49C,0.05512*%
%ADD50R,0.05512X0.05512*%
%ADD51R,0.08891X0.08891*%
D15*
X105000Y51087D02*
D03*
X255587Y112500D02*
D03*
X290587D02*
D03*
X295913Y56000D02*
D03*
X258000Y55587D02*
D03*
X63087Y74500D02*
D03*
X49413D02*
D03*
X281913Y99500D02*
D03*
X290587D02*
D03*
X314587Y125500D02*
D03*
X349587Y196000D02*
D03*
X265587Y197500D02*
D03*
X226587D02*
D03*
X210913Y247500D02*
D03*
X95087Y32000D02*
D03*
X209413Y28000D02*
D03*
X284500Y76500D02*
D03*
X279500D02*
D03*
X52913Y118000D02*
D03*
X331000Y157500D02*
D03*
Y152500D02*
D03*
X352587Y125500D02*
D03*
X209913Y188500D02*
D03*
X354500Y167913D02*
D03*
X209413Y75827D02*
D03*
X186000Y50087D02*
D03*
X238000Y169413D02*
D03*
D16*
X105000Y76913D02*
D03*
X258000Y81413D02*
D03*
X331000Y162500D02*
D03*
X354500Y142087D02*
D03*
X186000Y75913D02*
D03*
X238000Y143587D02*
D03*
X209413Y50000D02*
D03*
D17*
X75330Y133882D02*
D03*
Y143882D02*
D03*
X367000Y104000D02*
D03*
X377000D02*
D03*
D18*
X323315Y242000D02*
D03*
X343000D02*
D03*
X244815D02*
D03*
X264500D02*
D03*
D19*
X362685D02*
D03*
X284185D02*
D03*
D20*
X281413Y112500D02*
D03*
X316413D02*
D03*
X270087Y56000D02*
D03*
X88913Y74500D02*
D03*
X23587D02*
D03*
X256087Y99500D02*
D03*
X316413D02*
D03*
X340413Y125500D02*
D03*
X375413Y196000D02*
D03*
X291413Y197500D02*
D03*
X252413D02*
D03*
X185087Y247500D02*
D03*
X120913Y32000D02*
D03*
X183587Y28000D02*
D03*
X274500Y76500D02*
D03*
X27087Y118000D02*
D03*
X184087Y188500D02*
D03*
X378413Y125500D02*
D03*
D21*
X184000Y123500D02*
D03*
X22815Y140000D02*
D03*
D22*
X184000Y103815D02*
D03*
D23*
X139500Y228716D02*
D03*
X104217Y103500D02*
D03*
X120783D02*
D03*
X139716Y251000D02*
D03*
D24*
X139500Y193283D02*
D03*
D25*
X162837Y248976D02*
D03*
Y189921D02*
D03*
D26*
X237000Y76842D02*
D03*
X165500Y166342D02*
D03*
X120000Y217500D02*
D03*
X311000Y147658D02*
D03*
D27*
X237000Y57157D02*
D03*
X310157Y196500D02*
D03*
X115000Y222500D02*
D03*
X165500Y146658D02*
D03*
X122158Y181000D02*
D03*
X311000Y167342D02*
D03*
X110000Y217500D02*
D03*
D28*
X68783Y103500D02*
D03*
X156217D02*
D03*
X104283Y251000D02*
D03*
D29*
X147981Y130000D02*
D03*
X147481Y154500D02*
D03*
D30*
X105019Y130000D02*
D03*
X104519Y154500D02*
D03*
D31*
X372500Y152000D02*
D03*
Y162000D02*
D03*
X151500Y28500D02*
D03*
X240000Y106000D02*
D03*
X214500D02*
D03*
X141500Y28500D02*
D03*
X214500Y116000D02*
D03*
X240000D02*
D03*
D32*
X329842Y196500D02*
D03*
X141842Y181000D02*
D03*
D33*
X87500Y248500D02*
D03*
X377000Y61000D02*
D03*
X32000Y100000D02*
D03*
D34*
X77500Y248500D02*
D03*
X22000Y100000D02*
D03*
D35*
X47000Y177500D02*
D03*
D36*
X27000D02*
D03*
X37000D02*
D03*
D37*
X42500Y140000D02*
D03*
D38*
X377000Y51000D02*
D03*
D39*
X121000Y21500D02*
D03*
X174000Y83500D02*
D03*
X342000Y105500D02*
D03*
X344000Y137000D02*
D03*
X304500Y135500D02*
D03*
X297913Y177913D02*
D03*
X382500Y178000D02*
D03*
X115000Y198500D02*
D03*
X91500Y201000D02*
D03*
D40*
X39000Y233000D02*
D03*
Y213000D02*
D03*
D41*
X99980Y180000D02*
D03*
X90000D02*
D03*
D42*
X77500Y218000D02*
D03*
X87500D02*
D03*
D43*
X260500Y164500D02*
D03*
X128500Y78500D02*
D03*
Y48500D02*
D03*
X138500Y78500D02*
D03*
X280500Y164500D02*
D03*
X158500Y48500D02*
D03*
X148500D02*
D03*
X138500D02*
D03*
X148500Y78500D02*
D03*
X270500Y164500D02*
D03*
X260500Y134500D02*
D03*
X270500D02*
D03*
X280500D02*
D03*
X290500D02*
D03*
D44*
X210000Y221559D02*
D03*
X210500Y160000D02*
D03*
X200500D02*
D03*
X200000Y221559D02*
D03*
D45*
X190000D02*
D03*
X190500Y160000D02*
D03*
D46*
X158500Y78500D02*
D03*
X290500Y164500D02*
D03*
D47*
X34500Y42000D02*
D03*
X74500D02*
D03*
X54500D02*
D03*
D48*
X27000Y257500D02*
D03*
X373000Y31000D02*
D03*
D49*
X334500Y69185D02*
D03*
D50*
Y49500D02*
D03*
D51*
X80020Y180000D02*
D03*
M02*
