G04*
G04 #@! TF.GenerationSoftware,Altium Limited,Altium Designer,25.8.1 (18)*
G04*
G04 Layer_Color=65535*
%FSLAX25Y25*%
%MOIN*%
G70*
G04*
G04 #@! TF.SameCoordinates,72C839A6-74C3-439F-BF33-F4790D7700C6*
G04*
G04*
G04 #@! TF.FilePolarity,Positive*
G04*
G01*
G75*
%ADD10C,0.00394*%
%ADD11C,0.00787*%
%ADD12C,0.00984*%
%ADD13C,0.00591*%
%ADD14C,0.01000*%
G36*
X275914Y44346D02*
X275884D01*
Y44316D01*
X275824D01*
Y44346D01*
X275794D01*
Y44376D01*
X275914D01*
Y44346D01*
D02*
G37*
G36*
X275974Y44466D02*
Y44436D01*
X276154D01*
Y44406D01*
X276184D01*
Y44376D01*
X276304D01*
Y44346D01*
X276394D01*
Y44316D01*
X276424D01*
Y44286D01*
X276544D01*
Y44256D01*
X276604D01*
Y44226D01*
X276664D01*
Y44196D01*
X276784D01*
Y44166D01*
X276815D01*
Y44136D01*
X276995D01*
Y44106D01*
X277085D01*
Y44046D01*
X277115D01*
Y44016D01*
X277145D01*
Y43986D01*
X277295D01*
Y43956D01*
X277355D01*
Y43926D01*
X277385D01*
Y43896D01*
X277505D01*
Y43866D01*
X277595D01*
Y43836D01*
X277625D01*
Y43806D01*
X277715D01*
Y43746D01*
X277805D01*
Y43716D01*
X277895D01*
Y43626D01*
X277925D01*
Y43596D01*
X277955D01*
Y43566D01*
X278045D01*
Y43536D01*
X278015D01*
Y43506D01*
X277985D01*
Y43476D01*
X278045D01*
Y43506D01*
X278075D01*
Y43536D01*
X278135D01*
Y43476D01*
X278196D01*
Y43416D01*
X278286D01*
Y43386D01*
X278376D01*
Y43356D01*
Y43326D01*
X278436D01*
Y43386D01*
X278466D01*
Y43356D01*
X278496D01*
Y43326D01*
X278466D01*
Y43296D01*
X278526D01*
Y43326D01*
X278586D01*
Y43266D01*
X278616D01*
Y43206D01*
X278646D01*
Y43176D01*
X278676D01*
Y43145D01*
X278766D01*
Y43086D01*
X278826D01*
Y43055D01*
X278856D01*
Y42995D01*
X279006D01*
Y42905D01*
X279036D01*
Y42875D01*
X279066D01*
Y42845D01*
X279156D01*
Y42815D01*
X279186D01*
Y42785D01*
X279216D01*
Y42755D01*
X279246D01*
Y42695D01*
X279306D01*
Y42665D01*
X279366D01*
Y42635D01*
X279396D01*
Y42605D01*
X279426D01*
Y42575D01*
X279456D01*
Y42545D01*
X279486D01*
Y42515D01*
X279516D01*
Y42485D01*
X279546D01*
Y42455D01*
X279636D01*
Y42425D01*
X279666D01*
Y42395D01*
X279696D01*
Y42365D01*
X279756D01*
Y42335D01*
X279786D01*
Y42305D01*
X279817D01*
Y42275D01*
X279847D01*
Y42245D01*
X279877D01*
Y42185D01*
X279907D01*
Y42155D01*
X279937D01*
Y42125D01*
X279967D01*
Y42095D01*
X279997D01*
Y42065D01*
X280027D01*
Y42035D01*
X280057D01*
Y42005D01*
X280087D01*
Y41975D01*
X280117D01*
Y41945D01*
X280147D01*
Y41915D01*
X280177D01*
Y41825D01*
X280207D01*
Y41795D01*
X280237D01*
Y41765D01*
X280267D01*
Y41735D01*
X280357D01*
Y41704D01*
X280387D01*
Y41675D01*
X280417D01*
Y41644D01*
X280447D01*
Y41614D01*
X280477D01*
Y41584D01*
X280507D01*
Y41554D01*
X280417D01*
Y41584D01*
X280387D01*
Y41614D01*
X280357D01*
Y41644D01*
X280267D01*
Y41675D01*
X280237D01*
Y41704D01*
X280207D01*
Y41735D01*
X280147D01*
Y41704D01*
X280177D01*
Y41675D01*
X280207D01*
Y41644D01*
X280267D01*
Y41584D01*
X280297D01*
Y41554D01*
X280327D01*
Y41524D01*
X280357D01*
Y41494D01*
X280507D01*
Y41464D01*
X280537D01*
Y41434D01*
X280567D01*
Y41404D01*
X280597D01*
Y41374D01*
X280627D01*
Y41314D01*
X280657D01*
Y41254D01*
X280687D01*
Y41224D01*
X280717D01*
Y41194D01*
X280747D01*
Y41164D01*
X280777D01*
Y41074D01*
X280837D01*
Y41014D01*
X280897D01*
Y40984D01*
X280927D01*
Y40894D01*
X280957D01*
Y40864D01*
X280987D01*
Y40834D01*
X280927D01*
Y40864D01*
X280897D01*
Y40894D01*
X280867D01*
Y40984D01*
X280837D01*
Y41014D01*
X280777D01*
Y40984D01*
X280807D01*
Y40954D01*
X280837D01*
Y40894D01*
X280867D01*
Y40804D01*
X280897D01*
Y40774D01*
X280927D01*
Y40744D01*
X280957D01*
Y40714D01*
X280987D01*
Y40684D01*
X281017D01*
Y40654D01*
X281047D01*
Y40624D01*
X281077D01*
Y40654D01*
X281107D01*
Y40594D01*
X281077D01*
Y40534D01*
X281137D01*
Y40564D01*
X281168D01*
Y40594D01*
X281227D01*
Y40534D01*
X281258D01*
Y40504D01*
X281227D01*
Y40414D01*
X281198D01*
Y40384D01*
X281168D01*
Y40354D01*
X281227D01*
Y40384D01*
X281258D01*
Y40294D01*
X281288D01*
Y40324D01*
X281318D01*
Y40354D01*
X281348D01*
Y40324D01*
X281378D01*
Y40294D01*
X281408D01*
Y40264D01*
X281378D01*
Y40203D01*
X281408D01*
Y40113D01*
X281438D01*
Y40084D01*
X281468D01*
Y40023D01*
X281498D01*
Y39933D01*
X281528D01*
Y39903D01*
X281558D01*
Y39813D01*
X281588D01*
Y39783D01*
X281618D01*
Y39723D01*
X281648D01*
Y39633D01*
X281618D01*
Y39663D01*
X281588D01*
Y39723D01*
X281558D01*
Y39783D01*
X281498D01*
Y39723D01*
X281558D01*
Y39573D01*
X281588D01*
Y39453D01*
X281618D01*
Y39423D01*
X281648D01*
Y39363D01*
X281678D01*
Y39333D01*
X281708D01*
Y39243D01*
X281738D01*
Y39213D01*
X281798D01*
Y39243D01*
X281888D01*
Y39183D01*
X281828D01*
Y39153D01*
X281798D01*
Y39093D01*
X281948D01*
Y39063D01*
X281918D01*
Y39033D01*
X281888D01*
Y39003D01*
X281978D01*
Y38943D01*
X281948D01*
Y38853D01*
X282038D01*
Y38823D01*
X282008D01*
Y38793D01*
X281978D01*
Y38673D01*
X282038D01*
Y38522D01*
X282068D01*
Y38492D01*
X282098D01*
Y38432D01*
X282068D01*
Y38402D01*
X282098D01*
Y38372D01*
X282188D01*
Y38342D01*
X282158D01*
Y38312D01*
X282128D01*
Y38192D01*
X282158D01*
Y38162D01*
X282188D01*
Y37982D01*
X282218D01*
Y37772D01*
X282248D01*
Y37742D01*
X282278D01*
Y37472D01*
X282308D01*
Y37442D01*
X282338D01*
Y37172D01*
X282308D01*
Y37051D01*
X282338D01*
Y37021D01*
X282368D01*
Y36331D01*
X282308D01*
Y36361D01*
X282278D01*
Y36331D01*
X282308D01*
Y36271D01*
X281077D01*
Y36751D01*
X281017D01*
Y37172D01*
X280987D01*
Y37201D01*
X280957D01*
Y37262D01*
X280987D01*
Y37532D01*
X281017D01*
Y37772D01*
X280987D01*
Y37982D01*
X280957D01*
Y38012D01*
X280927D01*
Y38192D01*
X280897D01*
Y38222D01*
X280867D01*
Y38252D01*
X280837D01*
Y38222D01*
X280807D01*
Y38252D01*
X280777D01*
Y38282D01*
X280837D01*
Y38312D01*
X280807D01*
Y38342D01*
X280777D01*
Y38372D01*
X280747D01*
Y38342D01*
X280687D01*
Y38372D01*
X280717D01*
Y38402D01*
X280747D01*
Y38432D01*
X280777D01*
Y38372D01*
X280837D01*
Y38432D01*
X280777D01*
Y38462D01*
X280747D01*
Y38522D01*
X280687D01*
Y38582D01*
X280747D01*
Y38552D01*
Y38522D01*
X280777D01*
Y38582D01*
X280747D01*
Y38612D01*
X280717D01*
Y38642D01*
X280687D01*
Y38673D01*
X280657D01*
Y38642D01*
X280627D01*
Y38612D01*
X280597D01*
Y38673D01*
X280627D01*
Y38793D01*
X280657D01*
Y38823D01*
X280687D01*
Y38853D01*
X280627D01*
Y38823D01*
X280597D01*
Y38913D01*
X280537D01*
Y39003D01*
X280507D01*
Y39093D01*
X280447D01*
Y39183D01*
X280417D01*
Y39213D01*
X280387D01*
Y39333D01*
X280357D01*
Y39423D01*
X280387D01*
Y39453D01*
X280417D01*
Y39483D01*
X280357D01*
Y39453D01*
X280297D01*
Y39513D01*
X280327D01*
Y39543D01*
X280357D01*
Y39573D01*
X280297D01*
Y39543D01*
X280267D01*
Y39633D01*
X280207D01*
Y39663D01*
X280237D01*
Y39693D01*
X280267D01*
Y39633D01*
X280297D01*
Y39693D01*
X280267D01*
Y39753D01*
X280237D01*
Y39783D01*
X280207D01*
Y39873D01*
X280177D01*
Y39843D01*
X280147D01*
Y39813D01*
X280117D01*
Y39783D01*
X280057D01*
Y39813D01*
X280087D01*
Y39843D01*
X280117D01*
Y39873D01*
X280147D01*
Y39903D01*
X280177D01*
Y39963D01*
X280117D01*
Y40023D01*
X280087D01*
Y39993D01*
X280057D01*
Y39963D01*
X280117D01*
Y39933D01*
X280087D01*
Y39903D01*
X280057D01*
Y39873D01*
X280027D01*
Y39903D01*
X279997D01*
Y39933D01*
X279967D01*
Y39963D01*
X279997D01*
Y39993D01*
X280027D01*
Y40053D01*
X279967D01*
Y40084D01*
Y40113D01*
X279907D01*
Y40174D01*
X279937D01*
Y40203D01*
X279967D01*
Y40264D01*
X279937D01*
Y40294D01*
X279877D01*
Y40264D01*
X279907D01*
Y40203D01*
X279877D01*
Y40234D01*
X279847D01*
Y40264D01*
X279817D01*
Y40294D01*
X279786D01*
Y40324D01*
X279756D01*
Y40354D01*
X279727D01*
Y40384D01*
X279696D01*
Y40414D01*
X279666D01*
Y40534D01*
X279727D01*
Y40594D01*
X279696D01*
Y40624D01*
X279666D01*
Y40654D01*
X279636D01*
Y40714D01*
X279606D01*
Y40744D01*
X279576D01*
Y40774D01*
X279546D01*
Y40804D01*
X279516D01*
Y40834D01*
X279486D01*
Y40864D01*
X279456D01*
Y40894D01*
X279426D01*
Y40864D01*
X279366D01*
Y40894D01*
X279336D01*
Y40924D01*
X279306D01*
Y40954D01*
X279276D01*
Y40984D01*
X279246D01*
Y41014D01*
X279216D01*
Y41044D01*
X279186D01*
Y41074D01*
X279156D01*
Y41104D01*
X279126D01*
Y41134D01*
X279096D01*
Y41164D01*
X279066D01*
Y41194D01*
X279036D01*
Y41224D01*
X279006D01*
Y41254D01*
X278976D01*
Y41284D01*
X278946D01*
Y41314D01*
X279006D01*
Y41284D01*
X279036D01*
Y41254D01*
X279066D01*
Y41224D01*
X279096D01*
Y41194D01*
X279126D01*
Y41164D01*
X279156D01*
Y41134D01*
X279216D01*
Y41194D01*
X279186D01*
Y41224D01*
X279156D01*
Y41254D01*
X279126D01*
Y41284D01*
X279096D01*
Y41314D01*
X279066D01*
Y41344D01*
X279036D01*
Y41374D01*
X279006D01*
Y41404D01*
X278976D01*
Y41434D01*
X278946D01*
Y41464D01*
X278916D01*
Y41494D01*
X278886D01*
Y41524D01*
X278856D01*
Y41554D01*
X278826D01*
Y41584D01*
X278796D01*
Y41614D01*
X278766D01*
Y41644D01*
X278676D01*
Y41614D01*
X278616D01*
Y41644D01*
X278526D01*
Y41675D01*
X278496D01*
Y41704D01*
X278466D01*
Y41735D01*
X278436D01*
Y41765D01*
X278406D01*
Y41795D01*
X278376D01*
Y41825D01*
X278346D01*
Y41975D01*
X278316D01*
Y42005D01*
X278286D01*
Y42035D01*
X278256D01*
Y42065D01*
X278196D01*
Y42035D01*
X278135D01*
Y42125D01*
X278105D01*
Y42155D01*
X278075D01*
Y42185D01*
X278045D01*
Y42215D01*
X277955D01*
Y42275D01*
X277925D01*
Y42245D01*
X277895D01*
Y42215D01*
X277865D01*
Y42305D01*
X277835D01*
Y42335D01*
X277805D01*
Y42365D01*
X277745D01*
Y42305D01*
X277805D01*
Y42215D01*
X277775D01*
Y42245D01*
X277745D01*
Y42275D01*
Y42305D01*
X277625D01*
Y42395D01*
X277595D01*
Y42425D01*
X277565D01*
Y42395D01*
X277535D01*
Y42425D01*
X277505D01*
Y42455D01*
X277445D01*
Y42485D01*
X277415D01*
Y42515D01*
X277385D01*
Y42485D01*
X277355D01*
Y42455D01*
X277325D01*
Y42515D01*
X277355D01*
Y42545D01*
X277415D01*
Y42515D01*
X277475D01*
Y42545D01*
X277445D01*
Y42575D01*
X277415D01*
Y42605D01*
X277385D01*
Y42575D01*
X277325D01*
Y42545D01*
X277295D01*
Y42515D01*
X277235D01*
Y42545D01*
X277265D01*
Y42575D01*
X277295D01*
Y42605D01*
X277325D01*
Y42665D01*
X277295D01*
Y42635D01*
X277265D01*
Y42605D01*
X277205D01*
Y42575D01*
X277175D01*
Y42545D01*
X277145D01*
Y42605D01*
X277175D01*
Y42635D01*
X277205D01*
Y42665D01*
X277235D01*
Y42695D01*
X277175D01*
Y42665D01*
X277115D01*
Y42635D01*
X277085D01*
Y42605D01*
X277025D01*
Y42635D01*
X277055D01*
Y42665D01*
X277085D01*
Y42695D01*
X277115D01*
Y42725D01*
X277145D01*
Y42755D01*
X277055D01*
Y42725D01*
X277025D01*
Y42695D01*
X276995D01*
Y42665D01*
X276935D01*
Y42695D01*
X276965D01*
Y42725D01*
X276995D01*
Y42755D01*
X277025D01*
Y42815D01*
X276965D01*
Y42785D01*
X276935D01*
Y42845D01*
X276845D01*
Y42905D01*
X276784D01*
Y42935D01*
X276664D01*
Y42965D01*
X276634D01*
Y42995D01*
X276574D01*
Y42935D01*
X276604D01*
Y42875D01*
X276574D01*
Y42905D01*
X276544D01*
Y42935D01*
X276424D01*
Y42965D01*
X276394D01*
Y42995D01*
X276334D01*
Y43025D01*
X276244D01*
Y43055D01*
X276214D01*
Y43086D01*
X276124D01*
Y43145D01*
X276034D01*
Y43115D01*
X276004D01*
Y43145D01*
X275974D01*
Y43176D01*
X275854D01*
Y43145D01*
X275824D01*
Y43115D01*
X275794D01*
Y43176D01*
X275824D01*
Y43206D01*
X275854D01*
Y43236D01*
X275884D01*
Y43296D01*
X275854D01*
Y43266D01*
X275824D01*
Y43236D01*
X275704D01*
Y43266D01*
X275674D01*
Y43296D01*
X275644D01*
Y43356D01*
X275614D01*
Y43416D01*
X275554D01*
Y43326D01*
X275584D01*
Y43266D01*
X275554D01*
Y43326D01*
X275494D01*
Y43446D01*
X275524D01*
Y43476D01*
X275554D01*
Y43626D01*
X275584D01*
Y43716D01*
X275554D01*
Y43776D01*
X275584D01*
Y43746D01*
X275644D01*
Y43806D01*
X275614D01*
Y43866D01*
X275704D01*
Y43926D01*
X275674D01*
Y43956D01*
X275644D01*
Y43986D01*
X275674D01*
Y44016D01*
X275704D01*
Y43986D01*
X275734D01*
Y44136D01*
X275884D01*
Y44196D01*
X275794D01*
Y44256D01*
X275884D01*
Y44286D01*
X275944D01*
Y44346D01*
X275974D01*
Y44436D01*
X275824D01*
Y44466D01*
X275854D01*
Y44496D01*
X275974D01*
Y44466D01*
D02*
G37*
G36*
X275704Y43176D02*
X275644D01*
Y43206D01*
Y43236D01*
X275704D01*
Y43176D01*
D02*
G37*
G36*
X276845Y42785D02*
X276815D01*
Y42815D01*
X276784D01*
Y42845D01*
X276845D01*
Y42785D01*
D02*
G37*
G36*
X276935Y42755D02*
X276905D01*
Y42785D01*
X276935D01*
Y42755D01*
D02*
G37*
G36*
X275343Y42725D02*
X275374D01*
Y42695D01*
X275554D01*
Y42665D01*
X275674D01*
Y42635D01*
X275704D01*
Y42605D01*
X275794D01*
Y42545D01*
X275824D01*
Y42575D01*
X275884D01*
Y42515D01*
X275974D01*
Y42485D01*
X276004D01*
Y42455D01*
X276184D01*
Y42425D01*
X276244D01*
Y42395D01*
X276274D01*
Y42365D01*
X276364D01*
Y42335D01*
X276394D01*
Y42305D01*
X276454D01*
Y42275D01*
X276484D01*
Y42245D01*
X276514D01*
Y42215D01*
X276604D01*
Y42185D01*
X276694D01*
Y42155D01*
X276725D01*
Y42125D01*
X276845D01*
Y42095D01*
X276875D01*
Y42065D01*
X276935D01*
Y42035D01*
X277025D01*
Y41945D01*
X276935D01*
Y41975D01*
X276905D01*
Y41945D01*
X276935D01*
Y41885D01*
X277025D01*
Y41915D01*
X277055D01*
Y41945D01*
X277085D01*
Y41975D01*
X277145D01*
Y41945D01*
X277175D01*
Y41855D01*
X277205D01*
Y41825D01*
X277295D01*
Y41795D01*
X277355D01*
Y41765D01*
X277385D01*
Y41735D01*
X277415D01*
Y41704D01*
X277505D01*
Y41675D01*
X277535D01*
Y41644D01*
X277595D01*
Y41614D01*
X277625D01*
Y41584D01*
X277655D01*
Y41554D01*
X277715D01*
Y41494D01*
X277775D01*
Y41434D01*
X277805D01*
Y41404D01*
X277835D01*
Y41374D01*
X277925D01*
Y41344D01*
X277955D01*
Y41314D01*
X277985D01*
Y41284D01*
X278015D01*
Y41254D01*
X278045D01*
Y41224D01*
X278075D01*
Y41194D01*
X278105D01*
Y41164D01*
X278225D01*
Y41134D01*
X278256D01*
Y41104D01*
X278286D01*
Y41074D01*
X278316D01*
Y41044D01*
X278346D01*
Y41014D01*
X278376D01*
Y40984D01*
X278406D01*
Y40954D01*
X278436D01*
Y40924D01*
X278466D01*
Y40894D01*
X278496D01*
Y40864D01*
X278466D01*
Y40834D01*
X278496D01*
Y40774D01*
X278586D01*
Y40684D01*
X278616D01*
Y40654D01*
X278706D01*
Y40594D01*
X278736D01*
Y40534D01*
X278766D01*
Y40504D01*
X278796D01*
Y40474D01*
X278826D01*
Y40444D01*
X278856D01*
Y40414D01*
X278946D01*
Y40354D01*
X278856D01*
Y40384D01*
X278796D01*
Y40414D01*
X278766D01*
Y40444D01*
X278706D01*
Y40414D01*
X278736D01*
Y40384D01*
X278766D01*
Y40354D01*
X278796D01*
Y40324D01*
X278826D01*
Y40294D01*
X278856D01*
Y40203D01*
X278916D01*
Y40143D01*
X278976D01*
Y40113D01*
X279006D01*
Y40084D01*
X279036D01*
Y40053D01*
X279156D01*
Y40023D01*
X279186D01*
Y39993D01*
X279216D01*
Y39903D01*
X279246D01*
Y39873D01*
X279276D01*
Y39843D01*
X279306D01*
Y39783D01*
X279336D01*
Y39723D01*
X279396D01*
Y39693D01*
Y39663D01*
Y39633D01*
X279426D01*
Y39603D01*
X279456D01*
Y39573D01*
X279486D01*
Y39483D01*
X279546D01*
Y39393D01*
X279486D01*
Y39333D01*
X279576D01*
Y39303D01*
X279546D01*
Y39273D01*
X279516D01*
Y39213D01*
X279576D01*
Y39243D01*
X279636D01*
Y39213D01*
X279606D01*
Y39183D01*
X279576D01*
Y39093D01*
X279636D01*
Y39003D01*
X279666D01*
Y39033D01*
X279696D01*
Y39063D01*
X279727D01*
Y39003D01*
X279817D01*
Y38973D01*
X279786D01*
Y38913D01*
X279877D01*
Y38883D01*
X279847D01*
Y38853D01*
X279817D01*
Y38823D01*
X279847D01*
Y38793D01*
X279877D01*
Y38732D01*
X279907D01*
Y38702D01*
X279937D01*
Y38642D01*
X279907D01*
Y38582D01*
X279967D01*
Y38432D01*
X279997D01*
Y38402D01*
X280027D01*
Y38342D01*
X280057D01*
Y38192D01*
X280117D01*
Y38012D01*
X280147D01*
Y37982D01*
X280177D01*
Y37922D01*
X280147D01*
Y37862D01*
X280207D01*
Y37652D01*
X280267D01*
Y37442D01*
X280237D01*
Y37412D01*
X280207D01*
Y37081D01*
X280267D01*
Y36631D01*
X280237D01*
Y36601D01*
X280267D01*
Y36541D01*
X280297D01*
Y36361D01*
X280357D01*
Y36331D01*
X280387D01*
Y36301D01*
X280417D01*
Y36271D01*
X280357D01*
Y36301D01*
X280327D01*
Y36331D01*
X280297D01*
Y36361D01*
X280237D01*
Y36331D01*
X280297D01*
Y36271D01*
X278376D01*
Y36331D01*
X278346D01*
Y36841D01*
X278286D01*
Y37141D01*
X278225D01*
Y37382D01*
X278196D01*
Y37502D01*
X278165D01*
Y37532D01*
X278135D01*
Y37592D01*
X278196D01*
Y37562D01*
X278225D01*
Y37592D01*
X278256D01*
Y37622D01*
X278225D01*
Y37652D01*
X278165D01*
Y37682D01*
X278135D01*
Y37712D01*
X278196D01*
Y37832D01*
X278165D01*
Y37862D01*
X278135D01*
Y37982D01*
X278105D01*
Y38072D01*
X278075D01*
Y38102D01*
X278045D01*
Y38132D01*
X277955D01*
Y38192D01*
X278045D01*
Y38252D01*
X277985D01*
Y38222D01*
X277925D01*
Y38252D01*
X277895D01*
Y38282D01*
X277985D01*
Y38342D01*
X277865D01*
Y38432D01*
X277805D01*
Y38522D01*
X277775D01*
Y38492D01*
X277745D01*
Y38462D01*
X277715D01*
Y38522D01*
X277745D01*
Y38582D01*
X277775D01*
Y38612D01*
X277805D01*
Y38673D01*
X277775D01*
Y38702D01*
X277745D01*
Y38732D01*
X277715D01*
Y38673D01*
X277745D01*
Y38612D01*
X277715D01*
Y38582D01*
X277655D01*
Y38612D01*
X277685D01*
Y38642D01*
X277715D01*
Y38673D01*
X277655D01*
Y38763D01*
X277625D01*
Y38793D01*
X277595D01*
Y38823D01*
X277565D01*
Y38913D01*
X277475D01*
Y39033D01*
X277445D01*
Y39063D01*
X277415D01*
Y39093D01*
X277385D01*
Y39063D01*
X277325D01*
Y39093D01*
X277355D01*
Y39123D01*
X277385D01*
Y39153D01*
X277415D01*
Y39093D01*
X277475D01*
Y39063D01*
X277535D01*
Y39093D01*
X277475D01*
Y39153D01*
X277415D01*
Y39243D01*
X277385D01*
Y39273D01*
X277355D01*
Y39303D01*
X277325D01*
Y39333D01*
X277295D01*
Y39363D01*
X277265D01*
Y39393D01*
X277235D01*
Y39423D01*
X277145D01*
Y39483D01*
X277085D01*
Y39513D01*
X277055D01*
Y39543D01*
X277025D01*
Y39573D01*
X276965D01*
Y39603D01*
X276935D01*
Y39633D01*
X276905D01*
Y39723D01*
X276845D01*
Y39783D01*
X276754D01*
Y39813D01*
X276784D01*
Y39873D01*
X276754D01*
Y39903D01*
X276725D01*
Y39933D01*
X276694D01*
Y39963D01*
X276664D01*
Y39993D01*
X276634D01*
Y40023D01*
X276604D01*
Y40053D01*
X276514D01*
Y40113D01*
X276454D01*
Y40174D01*
X276424D01*
Y40203D01*
X276334D01*
Y40234D01*
X276304D01*
Y40264D01*
X276274D01*
Y40203D01*
X276334D01*
Y40143D01*
X276304D01*
Y40113D01*
X276274D01*
Y40143D01*
Y40203D01*
X276214D01*
Y40264D01*
X276124D01*
Y40294D01*
X276034D01*
Y40354D01*
X275974D01*
Y40384D01*
X275884D01*
Y40354D01*
X275824D01*
Y40384D01*
X275854D01*
Y40414D01*
X275884D01*
Y40444D01*
X275794D01*
Y40414D01*
X275734D01*
Y40444D01*
X275704D01*
Y40504D01*
X275734D01*
Y40534D01*
X275644D01*
Y40594D01*
X275554D01*
Y40624D01*
X275524D01*
Y40654D01*
X275494D01*
Y40744D01*
X275404D01*
Y40774D01*
X275313D01*
Y40834D01*
X275164D01*
Y40864D01*
X275133D01*
Y40894D01*
X275103D01*
Y40864D01*
X275073D01*
Y40834D01*
X275013D01*
Y40924D01*
X274923D01*
Y40894D01*
X274953D01*
Y40864D01*
X274983D01*
Y40834D01*
X274893D01*
Y40864D01*
X274863D01*
Y40894D01*
X274833D01*
Y40864D01*
X274743D01*
Y40924D01*
X274653D01*
Y40954D01*
X274623D01*
Y41014D01*
X274683D01*
Y40984D01*
X274743D01*
Y41014D01*
X274713D01*
Y41044D01*
X274683D01*
Y41164D01*
X274713D01*
Y41194D01*
X274743D01*
Y41314D01*
X274773D01*
Y41434D01*
X274803D01*
Y41464D01*
X274833D01*
Y41554D01*
X274863D01*
Y41584D01*
X274893D01*
Y41614D01*
X274863D01*
Y41644D01*
X274833D01*
Y41704D01*
X274923D01*
Y41795D01*
X274893D01*
Y41855D01*
X274923D01*
Y41825D01*
X274953D01*
Y41855D01*
X274983D01*
Y41915D01*
X274953D01*
Y41945D01*
X274923D01*
Y41975D01*
X275103D01*
Y42035D01*
X275013D01*
Y42065D01*
X275043D01*
Y42095D01*
X275073D01*
Y42125D01*
X275164D01*
Y42185D01*
X275073D01*
Y42215D01*
X275223D01*
Y42245D01*
X275193D01*
Y42275D01*
X275073D01*
Y42335D01*
X275164D01*
Y42305D01*
X275193D01*
Y42335D01*
X275223D01*
Y42365D01*
X275164D01*
Y42395D01*
X275133D01*
Y42425D01*
X275103D01*
Y42455D01*
X275254D01*
Y42515D01*
X275223D01*
Y42545D01*
X275193D01*
Y42575D01*
X275164D01*
Y42605D01*
X275254D01*
Y42515D01*
X275313D01*
Y42605D01*
X275343D01*
Y42665D01*
X275254D01*
Y42725D01*
X275284D01*
Y42755D01*
X275343D01*
Y42725D01*
D02*
G37*
G36*
X278045Y42095D02*
X278075D01*
Y42065D01*
X278105D01*
Y41975D01*
X278045D01*
Y42035D01*
X278015D01*
Y42065D01*
X277955D01*
Y42125D01*
X277985D01*
Y42155D01*
X278015D01*
Y42185D01*
X278045D01*
Y42095D01*
D02*
G37*
G36*
X278286Y41885D02*
X278225D01*
Y41945D01*
X278286D01*
Y41885D01*
D02*
G37*
G36*
X275133Y40744D02*
X275073D01*
Y40774D01*
X275133D01*
Y40744D01*
D02*
G37*
G36*
X281017D02*
X281077D01*
Y40684D01*
X281017D01*
Y40744D01*
X280987D01*
Y40774D01*
X281017D01*
Y40744D01*
D02*
G37*
G36*
X279456Y40774D02*
X279486D01*
Y40684D01*
X279456D01*
Y40714D01*
X279426D01*
Y40744D01*
X279396D01*
Y40774D01*
X279426D01*
Y40804D01*
X279456D01*
Y40774D01*
D02*
G37*
G36*
X275254Y40714D02*
Y40684D01*
X275223D01*
Y40744D01*
X275254D01*
Y40714D01*
D02*
G37*
G36*
X275464Y40654D02*
X275434D01*
Y40624D01*
X275404D01*
Y40684D01*
X275464D01*
Y40654D01*
D02*
G37*
G36*
X279576Y40624D02*
Y40594D01*
X279546D01*
Y40654D01*
X279576D01*
Y40624D01*
D02*
G37*
G36*
X275644Y40504D02*
X275584D01*
Y40534D01*
X275644D01*
Y40504D01*
D02*
G37*
G36*
X281318Y40414D02*
X281288D01*
Y40384D01*
X281258D01*
Y40414D01*
Y40444D01*
X281318D01*
Y40414D01*
D02*
G37*
G36*
X279006Y40264D02*
X279036D01*
Y40234D01*
X279066D01*
Y40203D01*
X279096D01*
Y40113D01*
X279066D01*
Y40143D01*
X279036D01*
Y40174D01*
X278976D01*
Y40203D01*
X278916D01*
Y40294D01*
X279006D01*
Y40264D01*
D02*
G37*
G36*
X279967Y40023D02*
X279907D01*
Y40053D01*
X279967D01*
Y40023D01*
D02*
G37*
G36*
X276424Y40113D02*
X276454D01*
Y39963D01*
X276424D01*
Y39993D01*
X276394D01*
Y40023D01*
X276364D01*
Y40053D01*
X276394D01*
Y40084D01*
X276424D01*
Y40113D01*
X276364D01*
Y40143D01*
X276394D01*
Y40174D01*
X276424D01*
Y40113D01*
D02*
G37*
G36*
X237308Y39993D02*
X237338D01*
Y39963D01*
X238239D01*
Y39903D01*
X238269D01*
Y36601D01*
X221818D01*
Y36571D01*
X221788D01*
Y36541D01*
X221728D01*
Y36571D01*
X221698D01*
Y36541D01*
X221668D01*
Y36511D01*
X221578D01*
Y36481D01*
X221548D01*
Y36451D01*
X221457D01*
Y36421D01*
X221427D01*
Y36391D01*
X221397D01*
Y36361D01*
X221367D01*
Y36271D01*
X221337D01*
Y36181D01*
X221277D01*
Y30627D01*
Y30597D01*
Y29516D01*
X221307D01*
Y29486D01*
X221337D01*
Y29426D01*
X221307D01*
Y29396D01*
X221337D01*
Y29366D01*
X221367D01*
Y29306D01*
X221427D01*
Y29246D01*
X221457D01*
Y29216D01*
X221517D01*
Y29156D01*
X221607D01*
Y29126D01*
X221698D01*
Y29096D01*
X221728D01*
Y29066D01*
X238269D01*
Y29036D01*
X238299D01*
Y29006D01*
X238329D01*
Y25704D01*
X221337D01*
Y25734D01*
X221307D01*
Y25764D01*
X220887D01*
Y25794D01*
X220617D01*
Y25824D01*
X220587D01*
Y25854D01*
X220377D01*
Y25884D01*
X220317D01*
Y25854D01*
X220227D01*
Y25884D01*
X220197D01*
Y25914D01*
X220166D01*
Y25884D01*
X220107D01*
Y25914D01*
X220076D01*
Y25944D01*
X219926D01*
Y26004D01*
X219776D01*
Y26034D01*
X219656D01*
Y26064D01*
X219626D01*
Y26094D01*
X219596D01*
Y26124D01*
X219506D01*
Y26184D01*
X219416D01*
Y26214D01*
X219386D01*
Y26244D01*
X219296D01*
Y26274D01*
X219236D01*
Y26304D01*
X219206D01*
Y26334D01*
X219116D01*
Y26364D01*
X219086D01*
Y26394D01*
X219056D01*
Y26424D01*
X218966D01*
Y26484D01*
X218936D01*
Y26514D01*
X218846D01*
Y26544D01*
X218816D01*
Y26574D01*
X218786D01*
Y26604D01*
X218756D01*
Y26634D01*
X218726D01*
Y26664D01*
X218696D01*
Y26695D01*
X218666D01*
Y26724D01*
X218636D01*
Y26755D01*
X218605D01*
Y26785D01*
X218576D01*
Y26814D01*
X218545D01*
Y26845D01*
X218515D01*
Y26875D01*
X218485D01*
Y26905D01*
X218455D01*
Y26935D01*
X218425D01*
Y26965D01*
X218395D01*
Y26995D01*
X218365D01*
Y27025D01*
X218335D01*
Y27115D01*
X218305D01*
Y27145D01*
X218245D01*
Y27235D01*
X218215D01*
Y27265D01*
X218185D01*
Y27295D01*
X218155D01*
Y27385D01*
X218125D01*
Y27415D01*
X218095D01*
Y27475D01*
X218065D01*
Y27625D01*
X218005D01*
Y27775D01*
X217975D01*
Y27865D01*
X217915D01*
Y28015D01*
X217855D01*
Y28165D01*
X217825D01*
Y28376D01*
X217795D01*
Y28406D01*
X217765D01*
Y28766D01*
X217735D01*
Y36901D01*
X217765D01*
Y37262D01*
X217795D01*
Y37292D01*
X217825D01*
Y37472D01*
X217855D01*
Y37652D01*
X217915D01*
Y37802D01*
X217975D01*
Y37832D01*
X217945D01*
Y37862D01*
X217915D01*
Y37892D01*
X217945D01*
Y37922D01*
X217975D01*
Y38042D01*
X218005D01*
Y38132D01*
X218035D01*
Y38162D01*
X218065D01*
Y38222D01*
X218095D01*
Y38312D01*
X218125D01*
Y38342D01*
X218155D01*
Y38432D01*
X218185D01*
Y38462D01*
X218215D01*
Y38492D01*
X218245D01*
Y38552D01*
X218275D01*
Y38582D01*
X218305D01*
Y38612D01*
X218395D01*
Y38702D01*
X218425D01*
Y38732D01*
X218455D01*
Y38763D01*
X218485D01*
Y38793D01*
X218515D01*
Y38823D01*
X218545D01*
Y38853D01*
X218576D01*
Y38883D01*
X218605D01*
Y38913D01*
X218636D01*
Y38943D01*
X218666D01*
Y38973D01*
X218696D01*
Y39003D01*
X218726D01*
Y39093D01*
X218816D01*
Y39123D01*
X218846D01*
Y39153D01*
X218876D01*
Y39183D01*
X218906D01*
Y39213D01*
X218936D01*
Y39243D01*
X219026D01*
Y39303D01*
X219056D01*
Y39333D01*
X219146D01*
Y39363D01*
X219176D01*
Y39393D01*
X219266D01*
Y39423D01*
X219326D01*
Y39453D01*
X219356D01*
Y39483D01*
X219506D01*
Y39543D01*
X219596D01*
Y39573D01*
X219686D01*
Y39633D01*
X219836D01*
Y39663D01*
X219866D01*
Y39693D01*
X219896D01*
Y39663D01*
X219956D01*
Y39693D01*
X219986D01*
Y39723D01*
X220107D01*
Y39753D01*
X220136D01*
Y39783D01*
X220257D01*
Y39813D01*
X220497D01*
Y39843D01*
X220527D01*
Y39873D01*
X220737D01*
Y39903D01*
X220767D01*
Y39933D01*
X220827D01*
Y39903D01*
X221067D01*
Y39933D01*
X221097D01*
Y39963D01*
X221698D01*
Y39993D01*
X221728D01*
Y40023D01*
X237308D01*
Y39993D01*
D02*
G37*
G36*
X276604Y39963D02*
X276634D01*
Y39933D01*
X276664D01*
Y39903D01*
X276694D01*
Y39783D01*
X276664D01*
Y39813D01*
X276634D01*
Y39843D01*
X276604D01*
Y39873D01*
X276574D01*
Y39903D01*
X276514D01*
Y39963D01*
X276544D01*
Y39993D01*
X276574D01*
Y40023D01*
X276604D01*
Y39963D01*
D02*
G37*
G36*
X305964Y39183D02*
X305994D01*
Y36331D01*
X305964D01*
Y36301D01*
X305934D01*
Y36331D01*
X289513D01*
Y36301D01*
X289483D01*
Y36271D01*
X289303D01*
Y36241D01*
X289273D01*
Y36211D01*
X289243D01*
Y36181D01*
X289153D01*
Y36151D01*
X289123D01*
Y36121D01*
X289093D01*
Y36031D01*
X289063D01*
Y36001D01*
X289033D01*
Y35941D01*
X289003D01*
Y29126D01*
X289033D01*
Y29036D01*
X289063D01*
Y29006D01*
X289093D01*
Y28976D01*
X289123D01*
Y28946D01*
X289153D01*
Y28916D01*
X289183D01*
Y28886D01*
X289273D01*
Y28856D01*
X289303D01*
Y28826D01*
X289363D01*
Y28856D01*
X289393D01*
Y28886D01*
X289423D01*
Y28856D01*
X289453D01*
Y28826D01*
X305994D01*
Y28075D01*
X306024D01*
Y28045D01*
X306054D01*
Y25434D01*
X306024D01*
Y25404D01*
X289243D01*
Y25434D01*
X289213D01*
Y25404D01*
X289153D01*
Y25464D01*
X288672D01*
Y25494D01*
X288643D01*
Y25524D01*
X288312D01*
Y25554D01*
X288132D01*
Y25614D01*
X287952D01*
Y25644D01*
X287922D01*
Y25674D01*
X287862D01*
Y25644D01*
X287772D01*
Y25674D01*
X287742D01*
Y25704D01*
X287622D01*
Y25734D01*
X287592D01*
Y25764D01*
X287472D01*
Y25794D01*
X287382D01*
Y25824D01*
X287352D01*
Y25854D01*
X287262D01*
Y25884D01*
X287201D01*
Y25914D01*
X287172D01*
Y25944D01*
X287021D01*
Y26004D01*
X286931D01*
Y26034D01*
X286901D01*
Y26064D01*
X286871D01*
Y26094D01*
X286781D01*
Y26124D01*
X286721D01*
Y26154D01*
X286691D01*
Y26184D01*
X286661D01*
Y26214D01*
X286631D01*
Y26244D01*
X286601D01*
Y26274D01*
X286511D01*
Y26304D01*
X286481D01*
Y26334D01*
X286451D01*
Y26364D01*
X286421D01*
Y26394D01*
X286391D01*
Y26424D01*
X286361D01*
Y26454D01*
X286331D01*
Y26484D01*
X286301D01*
Y26514D01*
X286271D01*
Y26544D01*
X286241D01*
Y26574D01*
X286211D01*
Y26604D01*
X286181D01*
Y26634D01*
X286151D01*
Y26664D01*
X286121D01*
Y26755D01*
X286091D01*
Y26785D01*
X286061D01*
Y26814D01*
X286031D01*
Y26845D01*
X286001D01*
Y26875D01*
X285971D01*
Y26965D01*
X285911D01*
Y26995D01*
X285881D01*
Y27085D01*
X285851D01*
Y27115D01*
X285821D01*
Y27205D01*
X285791D01*
Y27265D01*
X285761D01*
Y27295D01*
X285731D01*
Y27325D01*
X285700D01*
Y27355D01*
X285670D01*
Y27415D01*
X285700D01*
Y27445D01*
X285670D01*
Y27475D01*
X285641D01*
Y27625D01*
X285580D01*
Y27775D01*
X285550D01*
Y27955D01*
X285490D01*
Y28165D01*
X285430D01*
Y28526D01*
X285460D01*
Y28556D01*
X285430D01*
Y28586D01*
X285400D01*
Y36541D01*
X285430D01*
Y36601D01*
X285460D01*
Y36631D01*
X285430D01*
Y36961D01*
X285460D01*
Y36991D01*
X285490D01*
Y37231D01*
X285550D01*
Y37382D01*
X285580D01*
Y37502D01*
X285610D01*
Y37532D01*
X285641D01*
Y37652D01*
X285670D01*
Y37682D01*
X285700D01*
Y37712D01*
X285670D01*
Y37772D01*
X285700D01*
Y37802D01*
X285731D01*
Y37892D01*
X285761D01*
Y37922D01*
X285791D01*
Y38012D01*
X285821D01*
Y38042D01*
X285881D01*
Y38132D01*
X285911D01*
Y38162D01*
X285941D01*
Y38192D01*
X285971D01*
Y38222D01*
X285941D01*
Y38252D01*
X285911D01*
Y38282D01*
X286031D01*
Y38372D01*
X286061D01*
Y38462D01*
X286091D01*
Y38492D01*
X286121D01*
Y38522D01*
X286151D01*
Y38552D01*
X286181D01*
Y38582D01*
X286271D01*
Y38612D01*
X286301D01*
Y38642D01*
X286331D01*
Y38673D01*
X286361D01*
Y38702D01*
X286391D01*
Y38732D01*
X286421D01*
Y38763D01*
X286451D01*
Y38793D01*
X286481D01*
Y38823D01*
X286511D01*
Y38853D01*
X286571D01*
Y38883D01*
X286601D01*
Y38913D01*
X286631D01*
Y38943D01*
X286661D01*
Y38973D01*
X286691D01*
Y39003D01*
X286721D01*
Y39033D01*
X286751D01*
Y39063D01*
X286841D01*
Y39093D01*
X286871D01*
Y39123D01*
X286901D01*
Y39153D01*
X286991D01*
Y39183D01*
X287051D01*
Y39213D01*
X287081D01*
Y39243D01*
X287172D01*
Y39303D01*
X287262D01*
Y39333D01*
X287412D01*
Y39393D01*
X287592D01*
Y39423D01*
X287622D01*
Y39453D01*
X287682D01*
Y39423D01*
X287772D01*
Y39453D01*
X287802D01*
Y39483D01*
X287982D01*
Y39513D01*
X288012D01*
Y39543D01*
X288132D01*
Y39573D01*
X288372D01*
Y39633D01*
X288703D01*
Y39663D01*
X288733D01*
Y39693D01*
X288763D01*
Y39663D01*
X289213D01*
Y39693D01*
X289243D01*
Y39723D01*
X305964D01*
Y39183D01*
D02*
G37*
G36*
X280207Y39723D02*
X280177D01*
Y39693D01*
X280147D01*
Y39663D01*
X280117D01*
Y39723D01*
X280147D01*
Y39753D01*
X280177D01*
Y39783D01*
X280207D01*
Y39723D01*
D02*
G37*
G36*
X281708Y39513D02*
Y39483D01*
X281648D01*
Y39543D01*
X281708D01*
Y39513D01*
D02*
G37*
G36*
X281738Y39423D02*
Y39393D01*
X281708D01*
Y39453D01*
X281738D01*
Y39423D01*
D02*
G37*
G36*
X281798Y39303D02*
X281738D01*
Y39333D01*
X281798D01*
Y39303D01*
D02*
G37*
G36*
X277175Y39363D02*
X277205D01*
Y39333D01*
X277265D01*
Y39303D01*
X277295D01*
Y39273D01*
X277325D01*
Y39243D01*
X277385D01*
Y39213D01*
X277355D01*
Y39183D01*
X277325D01*
Y39153D01*
X277265D01*
Y39213D01*
X277235D01*
Y39243D01*
X277205D01*
Y39273D01*
X277175D01*
Y39303D01*
X277145D01*
Y39333D01*
X277085D01*
Y39393D01*
X277175D01*
Y39363D01*
D02*
G37*
G36*
X279727Y39153D02*
X279696D01*
Y39123D01*
X279666D01*
Y39093D01*
X279636D01*
Y39153D01*
X279666D01*
Y39183D01*
X279696D01*
Y39213D01*
X279727D01*
Y39153D01*
D02*
G37*
G36*
X279786Y39063D02*
X279727D01*
Y39093D01*
X279786D01*
Y39063D01*
D02*
G37*
G36*
X280687Y38462D02*
X280657D01*
Y38492D01*
X280627D01*
Y38522D01*
X280687D01*
Y38462D01*
D02*
G37*
G36*
X277805Y38372D02*
X277745D01*
Y38432D01*
X277805D01*
Y38372D01*
D02*
G37*
G36*
X277865Y38282D02*
X277805D01*
Y38342D01*
X277865D01*
Y38282D01*
D02*
G37*
G36*
X280897Y37922D02*
X280867D01*
Y37892D01*
X280837D01*
Y37952D01*
X280897D01*
Y37922D01*
D02*
G37*
G36*
X278045D02*
Y37892D01*
X278015D01*
Y37922D01*
X277985D01*
Y37952D01*
X278045D01*
Y37922D01*
D02*
G37*
G36*
X278105Y37772D02*
X278075D01*
Y37742D01*
X278045D01*
Y37802D01*
X278105D01*
Y37772D01*
D02*
G37*
G36*
X280987Y37712D02*
X280927D01*
Y37742D01*
Y37772D01*
X280987D01*
Y37712D01*
D02*
G37*
G36*
X280297Y37141D02*
X280327D01*
Y37111D01*
X280297D01*
Y37081D01*
X280267D01*
Y37172D01*
X280297D01*
Y37141D01*
D02*
G37*
G36*
X280357Y36601D02*
X280297D01*
Y36631D01*
Y36661D01*
X280357D01*
Y36601D01*
D02*
G37*
G36*
X274533Y40324D02*
X274563D01*
Y40294D01*
X274683D01*
Y40264D01*
X274773D01*
Y40203D01*
X274923D01*
Y40174D01*
X274953D01*
Y40143D01*
X275013D01*
Y40113D01*
X275164D01*
Y40053D01*
X275313D01*
Y40023D01*
X275404D01*
Y39963D01*
X275464D01*
Y39903D01*
X275554D01*
Y39873D01*
X275644D01*
Y39843D01*
X275674D01*
Y39813D01*
X275704D01*
Y39783D01*
X275794D01*
Y39693D01*
X275824D01*
Y39663D01*
X275884D01*
Y39633D01*
X275914D01*
Y39603D01*
X275944D01*
Y39573D01*
X275974D01*
Y39543D01*
X276064D01*
Y39513D01*
X276094D01*
Y39483D01*
X276124D01*
Y39453D01*
X276154D01*
Y39423D01*
X276184D01*
Y39393D01*
X276214D01*
Y39363D01*
X276244D01*
Y39333D01*
X276274D01*
Y39303D01*
X276304D01*
Y39273D01*
X276334D01*
Y39243D01*
X276424D01*
Y39183D01*
X276454D01*
Y39123D01*
X276484D01*
Y39093D01*
X276514D01*
Y39063D01*
X276544D01*
Y39033D01*
X276574D01*
Y39003D01*
X276604D01*
Y38973D01*
X276634D01*
Y38943D01*
X276664D01*
Y38913D01*
X276694D01*
Y38883D01*
X276725D01*
Y38853D01*
X276754D01*
Y38763D01*
X276784D01*
Y38732D01*
X276815D01*
Y38702D01*
X276845D01*
Y38673D01*
X276875D01*
Y38642D01*
X276905D01*
Y38582D01*
X276935D01*
Y38552D01*
X276965D01*
Y38522D01*
X276995D01*
Y38432D01*
X277085D01*
Y38342D01*
X277115D01*
Y38312D01*
X277145D01*
Y38222D01*
X277175D01*
Y38162D01*
X277205D01*
Y38132D01*
X277235D01*
Y38042D01*
X277265D01*
Y38012D01*
X277295D01*
Y37982D01*
X277265D01*
Y37922D01*
X277295D01*
Y37892D01*
X277325D01*
Y37772D01*
X277355D01*
Y37742D01*
X277385D01*
Y37622D01*
X277415D01*
Y37472D01*
X277475D01*
Y37322D01*
X277505D01*
Y37292D01*
X277535D01*
Y37262D01*
X277505D01*
Y37141D01*
X277565D01*
Y36841D01*
X277625D01*
Y36331D01*
X277595D01*
Y36301D01*
X277565D01*
Y36331D01*
X276484D01*
Y36301D01*
X276454D01*
Y25073D01*
X276424D01*
Y25043D01*
X272912D01*
Y25644D01*
X272882D01*
Y25674D01*
X272852D01*
Y32008D01*
Y32038D01*
Y35310D01*
X272912D01*
Y35941D01*
X264566D01*
Y35971D01*
X264536D01*
Y36001D01*
X264566D01*
Y39213D01*
X264536D01*
Y39273D01*
X264566D01*
Y39303D01*
X264596D01*
Y39333D01*
X274053D01*
Y39363D01*
X274083D01*
Y39393D01*
X274113D01*
Y39543D01*
X274143D01*
Y39573D01*
X274173D01*
Y39603D01*
X274143D01*
Y39663D01*
X274173D01*
Y39693D01*
X274203D01*
Y39813D01*
X274233D01*
Y39843D01*
X274263D01*
Y39903D01*
X274293D01*
Y39993D01*
X274323D01*
Y40023D01*
X274353D01*
Y40143D01*
X274383D01*
Y40174D01*
X274413D01*
Y40234D01*
X274383D01*
Y40294D01*
X274443D01*
Y40354D01*
X274533D01*
Y40324D01*
D02*
G37*
G36*
X231544Y31498D02*
X231514D01*
Y31528D01*
Y31558D01*
X231544D01*
Y31498D01*
D02*
G37*
G36*
X233676Y29636D02*
X233615D01*
Y29697D01*
X233676D01*
Y29636D01*
D02*
G37*
G36*
X261955Y25434D02*
X261925D01*
Y25404D01*
X257932D01*
Y25434D01*
X257902D01*
Y25404D01*
X257842D01*
Y25434D01*
X257812D01*
Y25464D01*
X257362D01*
Y25494D01*
X257331D01*
Y25524D01*
X257061D01*
Y25554D01*
X256821D01*
Y25614D01*
X256641D01*
Y25644D01*
X256611D01*
Y25674D01*
X256581D01*
Y25644D01*
X256551D01*
Y25674D01*
X256521D01*
Y25704D01*
X256341D01*
Y25734D01*
X256311D01*
Y25764D01*
X256251D01*
Y25794D01*
X256101D01*
Y25854D01*
X256011D01*
Y25884D01*
X255951D01*
Y25854D01*
X255890D01*
Y25914D01*
X255860D01*
Y25884D01*
X255831D01*
Y25914D01*
X255800D01*
Y25944D01*
X255710D01*
Y26004D01*
X255620D01*
Y26034D01*
X255530D01*
Y26064D01*
X255500D01*
Y26094D01*
X255470D01*
Y26124D01*
X255410D01*
Y26154D01*
X255380D01*
Y26184D01*
X255290D01*
Y26274D01*
X255200D01*
Y26304D01*
X255170D01*
Y26334D01*
X255140D01*
Y26364D01*
X255110D01*
Y26394D01*
X255080D01*
Y26424D01*
X254990D01*
Y26484D01*
X254930D01*
Y26514D01*
X254900D01*
Y26574D01*
X254810D01*
Y26604D01*
X254780D01*
Y26634D01*
X254750D01*
Y26664D01*
X254720D01*
Y26695D01*
X254690D01*
Y26724D01*
X254660D01*
Y26755D01*
X254630D01*
Y26785D01*
X254600D01*
Y26814D01*
X254570D01*
Y26845D01*
X254540D01*
Y26875D01*
X254510D01*
Y26905D01*
X254480D01*
Y26935D01*
X254450D01*
Y26965D01*
X254419D01*
Y26995D01*
X254390D01*
Y27025D01*
X254360D01*
Y27055D01*
X254329D01*
Y27085D01*
X254299D01*
Y27115D01*
X254269D01*
Y27145D01*
X254239D01*
Y27175D01*
X254209D01*
Y27205D01*
X254179D01*
Y27235D01*
X254149D01*
Y27265D01*
X254119D01*
Y27295D01*
X254089D01*
Y27325D01*
X254059D01*
Y27355D01*
X254029D01*
Y27385D01*
X253999D01*
Y27475D01*
X253939D01*
Y27535D01*
X253879D01*
Y27565D01*
X253849D01*
Y27625D01*
X253789D01*
Y27685D01*
X253759D01*
Y27745D01*
X253729D01*
Y27775D01*
X253699D01*
Y27805D01*
X253669D01*
Y27835D01*
X253639D01*
Y27865D01*
X253609D01*
Y27895D01*
X253579D01*
Y27925D01*
X253549D01*
Y27955D01*
X253519D01*
Y27985D01*
X253489D01*
Y28015D01*
X253459D01*
Y28105D01*
X253429D01*
Y28135D01*
X253399D01*
Y28165D01*
X253369D01*
Y28196D01*
X253339D01*
Y28225D01*
X253309D01*
Y28256D01*
X253279D01*
Y28286D01*
X253249D01*
Y28316D01*
X253219D01*
Y28376D01*
X253189D01*
Y28406D01*
X253159D01*
Y28436D01*
X253129D01*
Y28466D01*
X253099D01*
Y28496D01*
X253069D01*
Y28526D01*
X253039D01*
Y28556D01*
X253009D01*
Y28586D01*
X252979D01*
Y28616D01*
X252948D01*
Y28646D01*
X252919D01*
Y28736D01*
X252888D01*
Y28766D01*
X252858D01*
Y28796D01*
X252829D01*
Y28826D01*
X252798D01*
Y28856D01*
X252768D01*
Y28886D01*
X252738D01*
Y28916D01*
X252708D01*
Y28946D01*
X252678D01*
Y28976D01*
X252648D01*
Y29066D01*
X252588D01*
Y29126D01*
X252528D01*
Y29156D01*
X252498D01*
Y29216D01*
X252438D01*
Y29246D01*
X252408D01*
Y29336D01*
X252378D01*
Y29366D01*
X252348D01*
Y29396D01*
X252318D01*
Y29426D01*
X252288D01*
Y29456D01*
X252258D01*
Y29486D01*
X252168D01*
Y29546D01*
X252108D01*
Y29636D01*
X252078D01*
Y29666D01*
X252048D01*
Y29697D01*
X252018D01*
Y29726D01*
X251988D01*
Y29757D01*
X251958D01*
Y29787D01*
X251928D01*
Y29817D01*
X251898D01*
Y29847D01*
X251868D01*
Y29877D01*
X251838D01*
Y29907D01*
X251808D01*
Y29937D01*
X251838D01*
Y29967D01*
X251808D01*
Y29997D01*
X251778D01*
Y30027D01*
X251748D01*
Y30057D01*
X251718D01*
Y30087D01*
X251688D01*
Y30117D01*
X251658D01*
Y30147D01*
X251628D01*
Y30177D01*
X251598D01*
Y30237D01*
X251568D01*
Y30267D01*
X251538D01*
Y30297D01*
X251508D01*
Y30327D01*
X251478D01*
Y30357D01*
X251448D01*
Y30387D01*
X251417D01*
Y30417D01*
X251388D01*
Y30447D01*
X251358D01*
Y30477D01*
X251327D01*
Y30507D01*
X251297D01*
Y30597D01*
X251267D01*
Y30627D01*
X251237D01*
Y30657D01*
X251207D01*
Y30687D01*
X251177D01*
Y30717D01*
X251147D01*
Y30747D01*
X251117D01*
Y30777D01*
X251087D01*
Y30807D01*
X251057D01*
Y30897D01*
X250997D01*
Y30927D01*
X250967D01*
Y30987D01*
X250907D01*
Y31017D01*
X250877D01*
Y31047D01*
X250847D01*
Y31077D01*
X250817D01*
Y31137D01*
X250757D01*
Y31227D01*
X250727D01*
Y31258D01*
X250697D01*
Y31288D01*
X250667D01*
Y31317D01*
X250637D01*
Y31348D01*
X250607D01*
Y31378D01*
X250577D01*
Y31408D01*
X250547D01*
Y31438D01*
X250517D01*
Y31468D01*
X250487D01*
Y31558D01*
X250457D01*
Y31588D01*
X250427D01*
Y31618D01*
X250397D01*
Y31648D01*
X250367D01*
Y31678D01*
X250337D01*
Y31708D01*
X250307D01*
Y31738D01*
X250277D01*
Y31768D01*
X250247D01*
Y31828D01*
X250217D01*
Y31858D01*
X250187D01*
Y31888D01*
X250157D01*
Y31918D01*
X250127D01*
Y31948D01*
X250097D01*
Y31978D01*
X250067D01*
Y32008D01*
X250037D01*
Y32038D01*
X250007D01*
Y32068D01*
X249977D01*
Y32098D01*
X249946D01*
Y32188D01*
X249917D01*
Y32218D01*
X249886D01*
Y32248D01*
X249856D01*
Y32278D01*
X249826D01*
Y32308D01*
X249796D01*
Y32338D01*
X249766D01*
Y32368D01*
X249736D01*
Y32398D01*
X249706D01*
Y32458D01*
X249676D01*
Y32488D01*
X249646D01*
Y32518D01*
X249616D01*
Y32578D01*
X249556D01*
Y32608D01*
X249526D01*
Y32669D01*
X249466D01*
Y32699D01*
X249436D01*
Y32789D01*
X249406D01*
Y32819D01*
X249376D01*
Y32849D01*
X249346D01*
Y32879D01*
X249316D01*
Y32909D01*
X249286D01*
Y32939D01*
X249256D01*
Y32969D01*
X249226D01*
Y32999D01*
X249196D01*
Y33029D01*
X249166D01*
Y33059D01*
X249136D01*
Y33149D01*
X249106D01*
Y33179D01*
X249076D01*
Y33209D01*
X249046D01*
Y33239D01*
X249016D01*
Y33269D01*
X248986D01*
Y33299D01*
X248956D01*
Y33329D01*
X248926D01*
Y33359D01*
X248896D01*
Y33419D01*
X248866D01*
Y33449D01*
X248836D01*
Y33479D01*
X248806D01*
Y33509D01*
X248776D01*
Y33539D01*
X248746D01*
Y33569D01*
X248716D01*
Y33599D01*
X248686D01*
Y33629D01*
X248656D01*
Y33659D01*
X248626D01*
Y33689D01*
X248596D01*
Y33719D01*
X248566D01*
Y33749D01*
X248536D01*
Y33779D01*
X248506D01*
Y33809D01*
X248476D01*
Y33839D01*
X248446D01*
Y33869D01*
X248415D01*
Y33899D01*
X248386D01*
Y33929D01*
X248356D01*
Y34019D01*
X248325D01*
Y34049D01*
X248295D01*
Y34079D01*
X248265D01*
Y34139D01*
X248235D01*
Y34170D01*
X248205D01*
Y34200D01*
X248175D01*
Y34260D01*
X248085D01*
Y34350D01*
X248025D01*
Y34380D01*
X247995D01*
Y34410D01*
X247965D01*
Y34440D01*
X247935D01*
Y34470D01*
X247905D01*
Y34500D01*
X247875D01*
Y34530D01*
X247845D01*
Y34560D01*
X247815D01*
Y34590D01*
X247785D01*
Y34680D01*
X247755D01*
Y34710D01*
X247725D01*
Y34740D01*
X247695D01*
Y34770D01*
X247665D01*
Y34800D01*
X247635D01*
Y34830D01*
X247605D01*
Y34860D01*
X247575D01*
Y34890D01*
X247545D01*
Y34920D01*
X247515D01*
Y35010D01*
X247455D01*
Y35070D01*
X247425D01*
Y35100D01*
X247395D01*
Y35130D01*
X247365D01*
Y35160D01*
X247305D01*
Y35220D01*
X247275D01*
Y35280D01*
X247245D01*
Y35310D01*
X247215D01*
Y35340D01*
X247185D01*
Y35370D01*
X247155D01*
Y35400D01*
X247125D01*
Y35430D01*
X247095D01*
Y35460D01*
X247065D01*
Y35490D01*
X247035D01*
Y35520D01*
X247005D01*
Y35550D01*
X246974D01*
Y35580D01*
X246944D01*
Y35610D01*
X246915D01*
Y35640D01*
X246824D01*
Y35701D01*
X246794D01*
Y35730D01*
X246734D01*
Y35791D01*
X246674D01*
Y35851D01*
X246584D01*
Y35881D01*
X246554D01*
Y35911D01*
X246524D01*
Y35941D01*
X246434D01*
Y35971D01*
X246404D01*
Y36031D01*
X246314D01*
Y36061D01*
X246284D01*
Y36091D01*
X246194D01*
Y36121D01*
X246104D01*
Y36181D01*
X245924D01*
Y36211D01*
X245774D01*
Y36271D01*
X245534D01*
Y36301D01*
X245503D01*
Y36331D01*
X245053D01*
Y36271D01*
X245083D01*
Y36241D01*
X245113D01*
Y25494D01*
X245083D01*
Y25464D01*
X245053D01*
Y25434D01*
X245023D01*
Y25404D01*
X241661D01*
Y25434D01*
X241631D01*
Y32578D01*
X239740D01*
Y32548D01*
X239710D01*
Y29486D01*
X239680D01*
Y29456D01*
X239620D01*
Y29486D01*
X239590D01*
Y29516D01*
X239560D01*
Y29486D01*
X239440D01*
Y29456D01*
X239379D01*
Y29486D01*
X239349D01*
Y29546D01*
X239379D01*
Y32518D01*
X239289D01*
Y32488D01*
X239199D01*
Y32428D01*
X239229D01*
Y32368D01*
X239199D01*
Y32428D01*
X239139D01*
Y32338D01*
X239079D01*
Y32398D01*
X239019D01*
Y32368D01*
X238989D01*
Y32338D01*
X239049D01*
Y32308D01*
Y32278D01*
X238989D01*
Y32338D01*
X238899D01*
Y32278D01*
X238959D01*
Y32248D01*
X238899D01*
Y32278D01*
X238809D01*
Y32248D01*
X238779D01*
Y32218D01*
X238749D01*
Y32188D01*
X238659D01*
Y32128D01*
X238569D01*
Y32098D01*
X238479D01*
Y32068D01*
X238449D01*
Y32038D01*
X238419D01*
Y32008D01*
X238359D01*
Y31978D01*
X238329D01*
Y31948D01*
X238239D01*
Y31918D01*
X238209D01*
Y31888D01*
X238149D01*
Y31858D01*
X237999D01*
Y31798D01*
X237968D01*
Y31828D01*
X237938D01*
Y31858D01*
X237908D01*
Y31828D01*
X237878D01*
Y31798D01*
X237908D01*
Y31768D01*
X237938D01*
Y31708D01*
X237908D01*
Y31738D01*
X237878D01*
Y31768D01*
X237848D01*
Y31798D01*
X237788D01*
Y31738D01*
X237818D01*
Y31708D01*
X237848D01*
Y31648D01*
X237818D01*
Y31678D01*
X237788D01*
Y31708D01*
X237698D01*
Y31678D01*
X237728D01*
Y31648D01*
X237758D01*
Y31618D01*
X237698D01*
Y31648D01*
X237668D01*
Y31678D01*
X237638D01*
Y31648D01*
X237608D01*
Y31618D01*
X237638D01*
Y31588D01*
X237668D01*
Y31558D01*
X237608D01*
Y31618D01*
X237518D01*
Y31558D01*
X237548D01*
Y31498D01*
X237518D01*
Y31558D01*
X237428D01*
Y31528D01*
X237338D01*
Y31498D01*
X237308D01*
Y31468D01*
X237278D01*
Y31438D01*
X237248D01*
Y31408D01*
X237188D01*
Y31378D01*
X237098D01*
Y31348D01*
X237068D01*
Y31317D01*
X236978D01*
Y31288D01*
X236888D01*
Y31227D01*
X236798D01*
Y31198D01*
X236768D01*
Y31168D01*
X236678D01*
Y31137D01*
X236648D01*
Y31077D01*
X236497D01*
Y30987D01*
X236468D01*
Y31017D01*
X236437D01*
Y31047D01*
X236377D01*
Y31017D01*
X236347D01*
Y30987D01*
X236407D01*
Y30957D01*
Y30927D01*
X236377D01*
Y30957D01*
X236347D01*
Y30987D01*
X236257D01*
Y30957D01*
X236287D01*
Y30927D01*
X236317D01*
Y30897D01*
X236257D01*
Y30927D01*
X236227D01*
Y30957D01*
X236197D01*
Y30927D01*
X236167D01*
Y30897D01*
X236197D01*
Y30867D01*
X236227D01*
Y30837D01*
X236167D01*
Y30867D01*
Y30897D01*
X236107D01*
Y30807D01*
X236077D01*
Y30837D01*
X236017D01*
Y30807D01*
X235927D01*
Y30747D01*
X235897D01*
Y30717D01*
X235867D01*
Y30687D01*
X235777D01*
Y30657D01*
X235687D01*
Y30597D01*
X235597D01*
Y30657D01*
X235537D01*
Y30597D01*
X235597D01*
Y30567D01*
X235567D01*
Y30537D01*
X235537D01*
Y30567D01*
X235507D01*
Y30597D01*
X235447D01*
Y30567D01*
X235507D01*
Y30507D01*
X235447D01*
Y30537D01*
Y30567D01*
X235357D01*
Y30507D01*
X235267D01*
Y30417D01*
X235177D01*
Y30387D01*
X235147D01*
Y30357D01*
X235056D01*
Y30327D01*
X235086D01*
Y30297D01*
X235117D01*
Y30267D01*
X235056D01*
Y30327D01*
X234966D01*
Y30267D01*
X235027D01*
Y30237D01*
Y30207D01*
X234966D01*
Y30267D01*
X234876D01*
Y30207D01*
X234936D01*
Y30177D01*
X234876D01*
Y30207D01*
X234846D01*
Y30237D01*
X234786D01*
Y30177D01*
X234816D01*
Y30117D01*
X234786D01*
Y30147D01*
X234756D01*
Y30177D01*
X234696D01*
Y30117D01*
X234726D01*
Y30057D01*
X234696D01*
Y30087D01*
X234666D01*
Y30117D01*
X234576D01*
Y30087D01*
X234546D01*
Y30057D01*
X234516D01*
Y30027D01*
X234456D01*
Y29997D01*
X234426D01*
Y29967D01*
X234336D01*
Y29937D01*
X234246D01*
Y29877D01*
X234156D01*
Y29847D01*
X234096D01*
Y29877D01*
X234006D01*
Y29847D01*
X234036D01*
Y29817D01*
X234066D01*
Y29787D01*
X234006D01*
Y29817D01*
X233976D01*
Y29847D01*
X233916D01*
Y29757D01*
X233886D01*
Y29726D01*
X233826D01*
Y29697D01*
X233766D01*
Y29726D01*
X233706D01*
Y29697D01*
X233676D01*
Y32518D01*
X231544D01*
Y31618D01*
X222388D01*
Y32578D01*
X222418D01*
Y33989D01*
X222448D01*
Y34019D01*
X231484D01*
Y33989D01*
X231514D01*
Y33449D01*
X231484D01*
Y33419D01*
X231454D01*
Y33389D01*
X231514D01*
Y32849D01*
X233646D01*
Y32879D01*
X233676D01*
Y35640D01*
X233615D01*
Y35701D01*
X233676D01*
Y35640D01*
X233766D01*
Y35701D01*
X233796D01*
Y35671D01*
X233826D01*
Y35640D01*
X233916D01*
Y35610D01*
X233976D01*
Y35580D01*
X234006D01*
Y35550D01*
X234096D01*
Y35520D01*
X234126D01*
Y35490D01*
X234186D01*
Y35460D01*
X234276D01*
Y35430D01*
X234306D01*
Y35400D01*
X234396D01*
Y35370D01*
X234426D01*
Y35310D01*
X234516D01*
Y35280D01*
X234546D01*
Y35250D01*
X234636D01*
Y35220D01*
X234726D01*
Y35160D01*
X234816D01*
Y35130D01*
X234906D01*
Y35070D01*
X234966D01*
Y35100D01*
X235027D01*
Y35070D01*
X235056D01*
Y35040D01*
X235086D01*
Y35010D01*
X235147D01*
Y34980D01*
X235237D01*
Y34950D01*
X235267D01*
Y34920D01*
X235357D01*
Y34890D01*
X235387D01*
Y34860D01*
X235417D01*
Y34830D01*
X235477D01*
Y34800D01*
X235507D01*
Y34770D01*
X235597D01*
Y34740D01*
X235687D01*
Y34680D01*
X235717D01*
Y34650D01*
X235807D01*
Y34620D01*
X235837D01*
Y34590D01*
X235927D01*
Y34530D01*
X236017D01*
Y34500D01*
X236107D01*
Y34470D01*
X236137D01*
Y34440D01*
X236317D01*
Y34410D01*
X236377D01*
Y34380D01*
X236407D01*
Y34350D01*
X236497D01*
Y34320D01*
X236527D01*
Y34290D01*
X236558D01*
Y34260D01*
X236648D01*
Y34200D01*
X236738D01*
Y34170D01*
X236828D01*
Y34109D01*
X236918D01*
Y34079D01*
X236948D01*
Y34049D01*
X237038D01*
Y34019D01*
X237128D01*
Y33959D01*
X237158D01*
Y33929D01*
X237248D01*
Y33899D01*
X237278D01*
Y33869D01*
X237368D01*
Y33809D01*
X237458D01*
Y33779D01*
X237548D01*
Y33749D01*
X237578D01*
Y33719D01*
X237638D01*
Y33689D01*
X237698D01*
Y33719D01*
X237758D01*
Y33689D01*
X237788D01*
Y33659D01*
X237818D01*
Y33629D01*
X237878D01*
Y33599D01*
X237908D01*
Y33569D01*
X237938D01*
Y33539D01*
X238029D01*
Y33509D01*
X238058D01*
Y33479D01*
X238119D01*
Y33449D01*
X238209D01*
Y33419D01*
X238239D01*
Y33389D01*
X238329D01*
Y33329D01*
X238419D01*
Y33299D01*
X238509D01*
Y33269D01*
X238539D01*
Y33239D01*
X238569D01*
Y33209D01*
X238659D01*
Y33149D01*
X238749D01*
Y33119D01*
X238779D01*
Y33089D01*
X238869D01*
Y33059D01*
X238929D01*
Y33029D01*
X238959D01*
Y32999D01*
X238989D01*
Y33029D01*
X239019D01*
Y33059D01*
X239049D01*
Y32969D01*
X239109D01*
Y32999D01*
X239139D01*
Y32969D01*
X239229D01*
Y32909D01*
X239319D01*
Y32879D01*
X239349D01*
Y32849D01*
X239379D01*
Y35550D01*
X239440D01*
Y35580D01*
X239409D01*
Y35610D01*
X239379D01*
Y35640D01*
X239349D01*
Y35701D01*
X239379D01*
Y35671D01*
X239409D01*
Y35640D01*
X239470D01*
Y35671D01*
X239499D01*
Y35701D01*
X239710D01*
Y32879D01*
X239740D01*
Y32849D01*
X241631D01*
Y39723D01*
X245714D01*
Y39693D01*
X245744D01*
Y39663D01*
X246134D01*
Y39693D01*
X246164D01*
Y39663D01*
X246194D01*
Y39633D01*
X246434D01*
Y39603D01*
X246464D01*
Y39573D01*
X246674D01*
Y39543D01*
X246854D01*
Y39513D01*
X246884D01*
Y39483D01*
X247065D01*
Y39453D01*
X247095D01*
Y39423D01*
X247155D01*
Y39453D01*
X247185D01*
Y39423D01*
X247215D01*
Y39393D01*
X247305D01*
Y39363D01*
X247335D01*
Y39333D01*
X247395D01*
Y39303D01*
X247455D01*
Y39333D01*
X247515D01*
Y39303D01*
X247575D01*
Y39273D01*
X247605D01*
Y39243D01*
X247695D01*
Y39213D01*
X247725D01*
Y39183D01*
X247785D01*
Y39153D01*
X247875D01*
Y39123D01*
X247905D01*
Y39093D01*
X247995D01*
Y39063D01*
X248025D01*
Y39003D01*
X248115D01*
Y38973D01*
X248145D01*
Y38943D01*
X248175D01*
Y38913D01*
X248265D01*
Y38883D01*
X248295D01*
Y38853D01*
X248325D01*
Y38823D01*
X248356D01*
Y38793D01*
X248386D01*
Y38763D01*
X248415D01*
Y38732D01*
X248446D01*
Y38702D01*
X248476D01*
Y38732D01*
X248536D01*
Y38702D01*
X248566D01*
Y38612D01*
X248596D01*
Y38582D01*
X248746D01*
Y38492D01*
X248776D01*
Y38462D01*
X248806D01*
Y38432D01*
X248836D01*
Y38402D01*
X248866D01*
Y38372D01*
X248896D01*
Y38342D01*
X248926D01*
Y38312D01*
X248956D01*
Y38282D01*
X248986D01*
Y38252D01*
X249016D01*
Y38222D01*
X249046D01*
Y38192D01*
X249076D01*
Y38162D01*
X249106D01*
Y38132D01*
X249196D01*
Y38102D01*
X249226D01*
Y38012D01*
X249256D01*
Y37982D01*
X249286D01*
Y37952D01*
X249316D01*
Y37922D01*
X249346D01*
Y37892D01*
X249376D01*
Y37862D01*
X249406D01*
Y37832D01*
X249436D01*
Y37802D01*
X249466D01*
Y37772D01*
X249496D01*
Y37742D01*
X249526D01*
Y37712D01*
X249556D01*
Y37682D01*
X249586D01*
Y37652D01*
X249616D01*
Y37622D01*
X249646D01*
Y37592D01*
X249676D01*
Y37562D01*
X249706D01*
Y37472D01*
X249736D01*
Y37442D01*
X249766D01*
Y37412D01*
X249796D01*
Y37382D01*
X249826D01*
Y37352D01*
X249856D01*
Y37322D01*
X249886D01*
Y37292D01*
X249917D01*
Y37262D01*
X249946D01*
Y37201D01*
X249977D01*
Y37172D01*
X250007D01*
Y37141D01*
X250037D01*
Y37111D01*
X250067D01*
Y37081D01*
X250127D01*
Y37051D01*
X250157D01*
Y37021D01*
X250187D01*
Y36991D01*
X250217D01*
Y36961D01*
X250247D01*
Y36931D01*
X250277D01*
Y36871D01*
X250307D01*
Y36841D01*
X250337D01*
Y36811D01*
X250367D01*
Y36781D01*
X250397D01*
Y36751D01*
X250427D01*
Y36721D01*
X250457D01*
Y36691D01*
X250487D01*
Y36661D01*
X250517D01*
Y36571D01*
X250547D01*
Y36541D01*
X250577D01*
Y36511D01*
X250607D01*
Y36481D01*
X250637D01*
Y36451D01*
X250667D01*
Y36421D01*
X250697D01*
Y36391D01*
X250727D01*
Y36361D01*
X250757D01*
Y36331D01*
X250787D01*
Y36301D01*
X250817D01*
Y36271D01*
X250847D01*
Y36241D01*
X250877D01*
Y36181D01*
X250907D01*
Y36121D01*
X250967D01*
Y36091D01*
X250997D01*
Y36031D01*
X251057D01*
Y35971D01*
X251117D01*
Y35941D01*
X251147D01*
Y35851D01*
X251177D01*
Y35821D01*
X251207D01*
Y35791D01*
X251237D01*
Y35761D01*
X251267D01*
Y35730D01*
X251297D01*
Y35701D01*
X251327D01*
Y35671D01*
X251358D01*
Y35640D01*
X251388D01*
Y35610D01*
X251417D01*
Y35580D01*
X251448D01*
Y35490D01*
X251478D01*
Y35460D01*
X251508D01*
Y35430D01*
X251538D01*
Y35400D01*
X251568D01*
Y35370D01*
X251598D01*
Y35340D01*
X251628D01*
Y35310D01*
X251658D01*
Y35280D01*
X251688D01*
Y35250D01*
X251718D01*
Y35220D01*
X251778D01*
Y35130D01*
X251808D01*
Y35100D01*
X251838D01*
Y35070D01*
X251868D01*
Y35040D01*
X251898D01*
Y35010D01*
X251928D01*
Y34980D01*
X251958D01*
Y34950D01*
X251988D01*
Y34920D01*
X252018D01*
Y34830D01*
X252048D01*
Y34800D01*
X252078D01*
Y34770D01*
X252108D01*
Y34740D01*
X252138D01*
Y34710D01*
X252168D01*
Y34680D01*
X252198D01*
Y34650D01*
X252228D01*
Y34620D01*
X252258D01*
Y34590D01*
X252288D01*
Y34560D01*
X252318D01*
Y34530D01*
X252348D01*
Y34440D01*
X252408D01*
Y34410D01*
X252438D01*
Y34380D01*
X252468D01*
Y34350D01*
X252498D01*
Y34320D01*
X252528D01*
Y34290D01*
X252558D01*
Y34260D01*
X252588D01*
Y34170D01*
X252618D01*
Y34139D01*
X252648D01*
Y34109D01*
X252678D01*
Y34079D01*
X252708D01*
Y34049D01*
X252738D01*
Y34019D01*
X252768D01*
Y33989D01*
X252798D01*
Y33959D01*
X252829D01*
Y33929D01*
X252858D01*
Y33899D01*
X252888D01*
Y33869D01*
X252919D01*
Y33779D01*
X252948D01*
Y33749D01*
X252979D01*
Y33719D01*
X253009D01*
Y33689D01*
X253039D01*
Y33659D01*
X253069D01*
Y33629D01*
X253099D01*
Y33599D01*
X253129D01*
Y33569D01*
X253159D01*
Y33539D01*
X253219D01*
Y33449D01*
X253249D01*
Y33419D01*
X253279D01*
Y33389D01*
X253309D01*
Y33359D01*
X253339D01*
Y33329D01*
X253369D01*
Y33299D01*
X253399D01*
Y33269D01*
X253429D01*
Y33239D01*
X253459D01*
Y33209D01*
X253489D01*
Y33179D01*
X253519D01*
Y33149D01*
X253489D01*
Y33119D01*
X253519D01*
Y33089D01*
X253549D01*
Y33059D01*
X253579D01*
Y33029D01*
X253609D01*
Y32999D01*
X253639D01*
Y32969D01*
X253669D01*
Y32939D01*
X253699D01*
Y32909D01*
X253729D01*
Y32879D01*
X253759D01*
Y32849D01*
X253789D01*
Y32819D01*
X253819D01*
Y32789D01*
X253849D01*
Y32759D01*
X253879D01*
Y32669D01*
X253939D01*
Y32638D01*
X253969D01*
Y32608D01*
X253999D01*
Y32578D01*
X254029D01*
Y32518D01*
X254089D01*
Y32428D01*
X254119D01*
Y32398D01*
X254149D01*
Y32368D01*
X254179D01*
Y32338D01*
X254209D01*
Y32308D01*
X254239D01*
Y32278D01*
X254329D01*
Y32248D01*
X254360D01*
Y32218D01*
X254390D01*
Y32188D01*
X254419D01*
Y32098D01*
X254450D01*
Y32068D01*
X254480D01*
Y32038D01*
X254510D01*
Y32008D01*
X254540D01*
Y31978D01*
X254570D01*
Y31948D01*
X254600D01*
Y31918D01*
X254630D01*
Y31888D01*
X254660D01*
Y31798D01*
X254690D01*
Y31768D01*
X254720D01*
Y31738D01*
X254750D01*
Y31708D01*
X254780D01*
Y31678D01*
X254810D01*
Y31648D01*
X254840D01*
Y31618D01*
X254900D01*
Y31558D01*
X254930D01*
Y31528D01*
X254960D01*
Y31498D01*
X254990D01*
Y31438D01*
X255020D01*
Y31408D01*
X255050D01*
Y31378D01*
X255080D01*
Y31348D01*
X255110D01*
Y31317D01*
X255140D01*
Y31288D01*
X255170D01*
Y31258D01*
X255200D01*
Y31227D01*
X255230D01*
Y31198D01*
X255260D01*
Y31168D01*
X255290D01*
Y31077D01*
X255320D01*
Y31047D01*
X255350D01*
Y31017D01*
X255380D01*
Y30987D01*
X255410D01*
Y30957D01*
X255440D01*
Y30927D01*
X255470D01*
Y30897D01*
X255500D01*
Y30867D01*
X255530D01*
Y30837D01*
X255560D01*
Y30747D01*
X255620D01*
Y30717D01*
X255650D01*
Y30687D01*
X255680D01*
Y30657D01*
X255710D01*
Y30627D01*
X255740D01*
Y30597D01*
X255770D01*
Y30567D01*
X255800D01*
Y30537D01*
X255831D01*
Y30507D01*
X255860D01*
Y30417D01*
X255890D01*
Y30387D01*
X255921D01*
Y30357D01*
X255951D01*
Y30327D01*
X255981D01*
Y30297D01*
X256011D01*
Y30267D01*
X256041D01*
Y30237D01*
X256071D01*
Y30207D01*
X256101D01*
Y30177D01*
X256131D01*
Y30147D01*
X256161D01*
Y30117D01*
X256191D01*
Y30027D01*
X256251D01*
Y29967D01*
X256281D01*
Y29937D01*
X256341D01*
Y29877D01*
X256371D01*
Y29847D01*
X256401D01*
Y29817D01*
X256431D01*
Y29787D01*
X256491D01*
Y29726D01*
X256521D01*
Y29697D01*
X256581D01*
Y29636D01*
X256671D01*
Y29606D01*
X256701D01*
Y29576D01*
X256731D01*
Y29546D01*
X256761D01*
Y29516D01*
X256791D01*
Y29486D01*
X256821D01*
Y29396D01*
X256911D01*
Y29366D01*
X256941D01*
Y29336D01*
X256971D01*
Y29306D01*
X257001D01*
Y29276D01*
X257031D01*
Y29246D01*
X257121D01*
Y29216D01*
X257151D01*
Y29156D01*
X257241D01*
Y29126D01*
X257272D01*
Y29096D01*
X257301D01*
Y29066D01*
X257392D01*
Y29036D01*
X257421D01*
Y29006D01*
X257482D01*
Y29036D01*
X257512D01*
Y29006D01*
X257542D01*
Y28976D01*
X257662D01*
Y28946D01*
X257692D01*
Y28916D01*
X257812D01*
Y28886D01*
X257992D01*
Y28856D01*
X258022D01*
Y28826D01*
X258532D01*
Y28856D01*
X258562D01*
Y28946D01*
Y28976D01*
Y39663D01*
X258532D01*
Y39693D01*
X258562D01*
Y39723D01*
X261955D01*
Y25434D01*
D02*
G37*
G36*
X286241Y22131D02*
X286271D01*
Y22101D01*
X286541D01*
Y21681D01*
X284109D01*
Y21651D01*
X284079D01*
Y21621D01*
X284049D01*
Y21351D01*
X284079D01*
Y21321D01*
X284109D01*
Y21351D01*
X285520D01*
Y21321D01*
X285550D01*
Y21291D01*
X286481D01*
Y21261D01*
X286511D01*
Y20871D01*
X286481D01*
Y20841D01*
X286451D01*
Y20871D01*
X284079D01*
Y20841D01*
X284049D01*
Y20570D01*
X284079D01*
Y20540D01*
X284109D01*
Y20510D01*
X284139D01*
Y20540D01*
X284170D01*
Y20570D01*
X286541D01*
Y20090D01*
X283869D01*
Y20120D01*
X283839D01*
Y20150D01*
X283779D01*
Y20120D01*
X283749D01*
Y20150D01*
X283719D01*
Y20180D01*
X283629D01*
Y20210D01*
X283599D01*
Y20240D01*
X283569D01*
Y20330D01*
X283539D01*
Y20360D01*
X283509D01*
Y20390D01*
X283479D01*
Y21861D01*
X283509D01*
Y21951D01*
X283569D01*
Y22011D01*
X283629D01*
Y22071D01*
X283659D01*
Y22041D01*
X283689D01*
Y22071D01*
X283719D01*
Y22101D01*
X283839D01*
Y22131D01*
X283869D01*
Y22161D01*
X286241D01*
Y22131D01*
D02*
G37*
G36*
X220917D02*
X220947D01*
Y22101D01*
X221037D01*
Y21681D01*
X218545D01*
Y21651D01*
X218515D01*
Y21621D01*
X218485D01*
Y21351D01*
X218515D01*
Y21321D01*
X218545D01*
Y21351D01*
X220587D01*
Y21321D01*
X220617D01*
Y21291D01*
X220977D01*
Y20871D01*
X220947D01*
Y20841D01*
X220917D01*
Y20871D01*
X218515D01*
Y20841D01*
X218485D01*
Y20570D01*
X220977D01*
Y20540D01*
X221007D01*
Y20510D01*
X221037D01*
Y20480D01*
X221007D01*
Y20450D01*
X220977D01*
Y20420D01*
X221037D01*
Y20090D01*
X218305D01*
Y20120D01*
X218275D01*
Y20150D01*
X218215D01*
Y20180D01*
X218125D01*
Y20210D01*
X218095D01*
Y20240D01*
X218065D01*
Y20330D01*
X217975D01*
Y21861D01*
X218005D01*
Y21951D01*
X218035D01*
Y21981D01*
X218065D01*
Y22011D01*
X218095D01*
Y22041D01*
X218125D01*
Y22071D01*
X218155D01*
Y22041D01*
X218185D01*
Y22071D01*
X218215D01*
Y22101D01*
X218335D01*
Y22131D01*
X218365D01*
Y22161D01*
X220917D01*
Y22131D01*
D02*
G37*
G36*
X301371D02*
X301401D01*
Y21891D01*
X301371D01*
Y21861D01*
X301341D01*
Y21831D01*
X301311D01*
Y21801D01*
X301281D01*
Y21831D01*
X300921D01*
Y21801D01*
X300891D01*
Y21831D01*
X300861D01*
Y21861D01*
X300831D01*
Y21891D01*
X300801D01*
Y22131D01*
X300831D01*
Y22161D01*
X301371D01*
Y22131D01*
D02*
G37*
G36*
X292065D02*
Y21861D01*
X292035D01*
Y21831D01*
X292005D01*
Y21801D01*
X291975D01*
Y21831D01*
X291615D01*
Y21801D01*
X291584D01*
Y21831D01*
X291554D01*
Y22161D01*
X292065D01*
Y22131D01*
D02*
G37*
G36*
X277145Y22101D02*
X277085D01*
Y21921D01*
X277115D01*
Y21891D01*
X277145D01*
Y21861D01*
X277085D01*
Y21831D01*
X277055D01*
Y21801D01*
X277025D01*
Y21831D01*
X276634D01*
Y21801D01*
X276574D01*
Y21831D01*
X276544D01*
Y22131D01*
X276574D01*
Y22161D01*
X277145D01*
Y22101D01*
D02*
G37*
G36*
X270841Y22071D02*
X270811D01*
Y22041D01*
X270780D01*
Y21981D01*
X270811D01*
Y21951D01*
X270780D01*
Y21891D01*
X270811D01*
Y21831D01*
X270780D01*
Y21801D01*
X270721D01*
Y21831D01*
X270330D01*
Y21801D01*
X270300D01*
Y21831D01*
X270270D01*
Y21981D01*
Y22011D01*
Y22161D01*
X270841D01*
Y22071D01*
D02*
G37*
G36*
X234366Y22131D02*
X234396D01*
Y21831D01*
X234366D01*
Y21801D01*
X234336D01*
Y21831D01*
X233916D01*
Y21801D01*
X233886D01*
Y21831D01*
X233856D01*
Y21981D01*
Y22011D01*
Y22131D01*
X233886D01*
Y22161D01*
X234366D01*
Y22131D01*
D02*
G37*
G36*
X300680Y21261D02*
X300651D01*
Y21231D01*
X299900D01*
Y21201D01*
X299870D01*
Y21171D01*
X299840D01*
Y20090D01*
X299330D01*
Y21381D01*
X299360D01*
Y21471D01*
X299420D01*
Y21531D01*
X299510D01*
Y21561D01*
X299540D01*
Y21591D01*
X299600D01*
Y21561D01*
X299630D01*
Y21591D01*
X299660D01*
Y21621D01*
X300680D01*
Y21261D01*
D02*
G37*
G36*
X296538Y21591D02*
X296628D01*
Y21531D01*
X296688D01*
Y21471D01*
X296718D01*
Y20841D01*
X296688D01*
Y20811D01*
X296628D01*
Y20751D01*
X296598D01*
Y20720D01*
X295307D01*
Y20690D01*
X295277D01*
Y20540D01*
X295307D01*
Y20510D01*
X296718D01*
Y20090D01*
X295067D01*
Y20120D01*
X295037D01*
Y20150D01*
X294977D01*
Y20120D01*
X294947D01*
Y20150D01*
X294917D01*
Y20180D01*
X294857D01*
Y20240D01*
X294797D01*
Y20270D01*
X294767D01*
Y20360D01*
X294737D01*
Y20390D01*
X294707D01*
Y21381D01*
X294767D01*
Y21441D01*
X294797D01*
Y21471D01*
X294827D01*
Y21501D01*
X294857D01*
Y21531D01*
X294887D01*
Y21561D01*
X294917D01*
Y21591D01*
X294977D01*
Y21561D01*
X295007D01*
Y21591D01*
X295067D01*
Y21621D01*
X296538D01*
Y21591D01*
D02*
G37*
G36*
X290954D02*
X290984D01*
Y21561D01*
X291044D01*
Y21591D01*
X291104D01*
Y21531D01*
X291194D01*
Y21441D01*
X291254D01*
Y21381D01*
X291314D01*
Y19970D01*
X291284D01*
Y19940D01*
X291254D01*
Y19820D01*
X291224D01*
Y19790D01*
X291194D01*
Y19760D01*
X291164D01*
Y19700D01*
X291074D01*
Y19670D01*
X290984D01*
Y19640D01*
X290954D01*
Y19610D01*
X289243D01*
Y20000D01*
X290624D01*
Y20030D01*
X290714D01*
Y20060D01*
X290744D01*
Y20090D01*
X290714D01*
Y20270D01*
X290744D01*
Y20300D01*
X290714D01*
Y20330D01*
X289393D01*
Y20360D01*
X289363D01*
Y20390D01*
X289273D01*
Y20420D01*
X289243D01*
Y20450D01*
X289213D01*
Y20480D01*
X289183D01*
Y20570D01*
X289153D01*
Y21381D01*
X289183D01*
Y21411D01*
X289213D01*
Y21441D01*
X289243D01*
Y21471D01*
X289273D01*
Y21501D01*
X289303D01*
Y21531D01*
X289333D01*
Y21561D01*
X289363D01*
Y21591D01*
X289423D01*
Y21561D01*
X289453D01*
Y21591D01*
X289483D01*
Y21621D01*
X290954D01*
Y21591D01*
D02*
G37*
G36*
X279186D02*
X279216D01*
Y21561D01*
X279246D01*
Y21531D01*
X279336D01*
Y21501D01*
X279366D01*
Y21471D01*
X279396D01*
Y21441D01*
X279426D01*
Y21351D01*
X279456D01*
Y21321D01*
X279486D01*
Y21261D01*
X279516D01*
Y21231D01*
X279546D01*
Y20450D01*
X279516D01*
Y20420D01*
X279486D01*
Y20330D01*
X279456D01*
Y20300D01*
X279426D01*
Y20270D01*
X279396D01*
Y20240D01*
X279366D01*
Y20210D01*
X279336D01*
Y20180D01*
X279306D01*
Y20150D01*
X279216D01*
Y20120D01*
X279186D01*
Y20090D01*
X277715D01*
Y20120D01*
X277685D01*
Y20150D01*
X277625D01*
Y20180D01*
X277535D01*
Y20210D01*
X277505D01*
Y20240D01*
X277475D01*
Y20330D01*
X277415D01*
Y20390D01*
X277385D01*
Y21351D01*
X277415D01*
Y21381D01*
X277475D01*
Y21471D01*
X277505D01*
Y21501D01*
X277535D01*
Y21531D01*
X277625D01*
Y21591D01*
X277685D01*
Y21561D01*
X277745D01*
Y21591D01*
X277775D01*
Y21621D01*
X279186D01*
Y21591D01*
D02*
G37*
G36*
X273002Y21471D02*
X272942D01*
Y21411D01*
X272972D01*
Y21381D01*
X272942D01*
Y21291D01*
X272972D01*
Y21261D01*
X272942D01*
Y21231D01*
X271711D01*
Y21201D01*
X271681D01*
Y21171D01*
X271651D01*
Y21141D01*
X271621D01*
Y20780D01*
Y20751D01*
Y20570D01*
X271651D01*
Y20540D01*
X271681D01*
Y20510D01*
X272942D01*
Y20480D01*
X272972D01*
Y20450D01*
X272942D01*
Y20240D01*
X272972D01*
Y20210D01*
X272942D01*
Y20150D01*
X273002D01*
Y20090D01*
X271411D01*
Y20150D01*
X271321D01*
Y20180D01*
X271231D01*
Y20210D01*
X271201D01*
Y20240D01*
X271171D01*
Y20330D01*
X271141D01*
Y20360D01*
X271111D01*
Y20390D01*
X271081D01*
Y21381D01*
X271171D01*
Y21471D01*
X271201D01*
Y21501D01*
X271231D01*
Y21531D01*
X271321D01*
Y21561D01*
X271351D01*
Y21591D01*
X271411D01*
Y21561D01*
X271441D01*
Y21591D01*
X271471D01*
Y21621D01*
X273002D01*
Y21471D01*
D02*
G37*
G36*
X256761Y21231D02*
X255470D01*
Y21201D01*
X255440D01*
Y21171D01*
X255410D01*
Y21141D01*
X255380D01*
Y20570D01*
X255410D01*
Y20540D01*
X255440D01*
Y20510D01*
X256731D01*
Y20480D01*
X256761D01*
Y20090D01*
X255230D01*
Y20120D01*
X255200D01*
Y20150D01*
X255140D01*
Y20120D01*
X255110D01*
Y20150D01*
X255080D01*
Y20180D01*
X254990D01*
Y20240D01*
X254960D01*
Y20300D01*
X254930D01*
Y20330D01*
X254900D01*
Y20360D01*
X254870D01*
Y20390D01*
X254840D01*
Y21321D01*
X254870D01*
Y21351D01*
X254900D01*
Y21381D01*
X254930D01*
Y21411D01*
X254960D01*
Y21471D01*
X254990D01*
Y21531D01*
X255080D01*
Y21561D01*
X255110D01*
Y21591D01*
X255170D01*
Y21561D01*
X255200D01*
Y21591D01*
X255230D01*
Y21621D01*
X256761D01*
Y21231D01*
D02*
G37*
G36*
X254419Y21591D02*
X254480D01*
Y21561D01*
X254510D01*
Y21531D01*
X254540D01*
Y21501D01*
X254570D01*
Y21471D01*
X254600D01*
Y21411D01*
X254630D01*
Y21381D01*
X254660D01*
Y20901D01*
X254600D01*
Y20871D01*
X254570D01*
Y20811D01*
X254510D01*
Y20751D01*
X254450D01*
Y20720D01*
X253189D01*
Y20690D01*
X253159D01*
Y20540D01*
X253189D01*
Y20510D01*
X254600D01*
Y20090D01*
X252919D01*
Y20150D01*
X252858D01*
Y20120D01*
X252829D01*
Y20150D01*
X252768D01*
Y20180D01*
X252738D01*
Y20210D01*
X252708D01*
Y20240D01*
X252678D01*
Y20270D01*
X252648D01*
Y20360D01*
X252618D01*
Y20390D01*
X252588D01*
Y21381D01*
X252618D01*
Y21411D01*
X252648D01*
Y21441D01*
X252678D01*
Y21471D01*
X252708D01*
Y21501D01*
X252738D01*
Y21531D01*
X252768D01*
Y21561D01*
X252798D01*
Y21591D01*
X252858D01*
Y21561D01*
X252888D01*
Y21591D01*
X252919D01*
Y21621D01*
X254419D01*
Y21591D01*
D02*
G37*
G36*
X251297D02*
X251358D01*
Y21561D01*
X251388D01*
Y21531D01*
X251417D01*
Y21501D01*
X251448D01*
Y21471D01*
X251478D01*
Y21411D01*
X251508D01*
Y21381D01*
X251538D01*
Y20901D01*
X251478D01*
Y20871D01*
X251448D01*
Y20811D01*
X251388D01*
Y20751D01*
X251327D01*
Y20720D01*
X250067D01*
Y20690D01*
X250037D01*
Y20570D01*
X250097D01*
Y20510D01*
X251478D01*
Y20090D01*
X249796D01*
Y20150D01*
X249736D01*
Y20120D01*
X249706D01*
Y20150D01*
X249676D01*
Y20210D01*
X249646D01*
Y20240D01*
X249616D01*
Y20270D01*
X249586D01*
Y20300D01*
X249556D01*
Y20390D01*
X249526D01*
Y21441D01*
X249616D01*
Y21471D01*
X249646D01*
Y21501D01*
X249676D01*
Y21591D01*
X249736D01*
Y21561D01*
X249766D01*
Y21591D01*
X249796D01*
Y21621D01*
X251297D01*
Y21591D01*
D02*
G37*
G36*
X244903Y20961D02*
Y20931D01*
Y20780D01*
X244933D01*
Y20751D01*
X244963D01*
Y20480D01*
X244933D01*
Y20450D01*
X244903D01*
Y20330D01*
X244873D01*
Y20300D01*
X244843D01*
Y20270D01*
X244813D01*
Y20240D01*
X244783D01*
Y20210D01*
X244753D01*
Y20180D01*
X244663D01*
Y20150D01*
X244603D01*
Y20120D01*
X244573D01*
Y20090D01*
X243132D01*
Y20120D01*
X243102D01*
Y20150D01*
X243042D01*
Y20120D01*
X243012D01*
Y20150D01*
X242982D01*
Y20180D01*
X242892D01*
Y20240D01*
X242832D01*
Y20330D01*
X242802D01*
Y20360D01*
X242772D01*
Y20390D01*
X242742D01*
Y21321D01*
X242772D01*
Y21351D01*
X242802D01*
Y21381D01*
X242832D01*
Y21471D01*
X242862D01*
Y21501D01*
X242892D01*
Y21531D01*
X242982D01*
Y21561D01*
X243012D01*
Y21591D01*
X243072D01*
Y21561D01*
X243102D01*
Y21591D01*
X243132D01*
Y21621D01*
X244333D01*
Y22161D01*
X244903D01*
Y20961D01*
D02*
G37*
G36*
X228872Y21261D02*
X228842D01*
Y21231D01*
X228152D01*
Y21201D01*
X228122D01*
Y21171D01*
X228092D01*
Y21141D01*
X228062D01*
Y21111D01*
X228032D01*
Y21081D01*
X228062D01*
Y20240D01*
X228092D01*
Y20090D01*
X227521D01*
Y21321D01*
X227552D01*
Y21351D01*
X227582D01*
Y21381D01*
X227611D01*
Y21471D01*
X227642D01*
Y21501D01*
X227672D01*
Y21531D01*
X227762D01*
Y21561D01*
X227792D01*
Y21591D01*
X227852D01*
Y21561D01*
X227882D01*
Y21591D01*
X227912D01*
Y21621D01*
X228872D01*
Y21261D01*
D02*
G37*
G36*
X226171Y21231D02*
X224880D01*
Y21201D01*
X224850D01*
Y21171D01*
X224820D01*
Y20570D01*
X224880D01*
Y20510D01*
X226171D01*
Y20090D01*
X224640D01*
Y20120D01*
X224609D01*
Y20150D01*
X224550D01*
Y20120D01*
X224519D01*
Y20150D01*
X224489D01*
Y20180D01*
X224399D01*
Y20240D01*
X224339D01*
Y20330D01*
X224309D01*
Y21321D01*
X224339D01*
Y21471D01*
X224369D01*
Y21501D01*
X224399D01*
Y21531D01*
X224489D01*
Y21561D01*
X224519D01*
Y21591D01*
X224580D01*
Y21561D01*
X224609D01*
Y21591D01*
X224640D01*
Y21621D01*
X226171D01*
Y21231D01*
D02*
G37*
G36*
X223829Y21591D02*
X223889D01*
Y21561D01*
X223919D01*
Y21531D01*
X223949D01*
Y21501D01*
X223979D01*
Y21471D01*
X224009D01*
Y21441D01*
X224039D01*
Y21411D01*
X224069D01*
Y20931D01*
X224039D01*
Y20901D01*
X224009D01*
Y20871D01*
X223979D01*
Y20841D01*
X223949D01*
Y20811D01*
X223919D01*
Y20780D01*
X223889D01*
Y20751D01*
X223859D01*
Y20720D01*
X222568D01*
Y20570D01*
X222628D01*
Y20510D01*
X224009D01*
Y20090D01*
X222328D01*
Y20150D01*
X222238D01*
Y20180D01*
X222208D01*
Y20210D01*
X222178D01*
Y20240D01*
X222148D01*
Y20270D01*
X222118D01*
Y20300D01*
X222088D01*
Y20360D01*
X222058D01*
Y20420D01*
Y20450D01*
Y21381D01*
X222088D01*
Y21411D01*
X222118D01*
Y21441D01*
X222148D01*
Y21471D01*
X222178D01*
Y21501D01*
X222208D01*
Y21531D01*
X222238D01*
Y21561D01*
X222268D01*
Y21591D01*
X222328D01*
Y21561D01*
X222358D01*
Y21591D01*
X222388D01*
Y21621D01*
X223829D01*
Y21591D01*
D02*
G37*
G36*
X267598Y21561D02*
X267628D01*
Y20420D01*
X267568D01*
Y20330D01*
X267538D01*
Y20300D01*
X267508D01*
Y20270D01*
X267478D01*
Y20240D01*
X267448D01*
Y20210D01*
X267418D01*
Y20180D01*
X267388D01*
Y20150D01*
X267358D01*
Y20120D01*
X267328D01*
Y20150D01*
X267268D01*
Y20120D01*
X267238D01*
Y20090D01*
X265857D01*
Y20120D01*
X265827D01*
Y20150D01*
X265737D01*
Y20180D01*
X265677D01*
Y20210D01*
X265647D01*
Y20240D01*
X265617D01*
Y20270D01*
X265587D01*
Y20300D01*
X265557D01*
Y20360D01*
X265527D01*
Y20390D01*
X265497D01*
Y20450D01*
X265527D01*
Y21501D01*
X265497D01*
Y21561D01*
X265527D01*
Y21591D01*
X266007D01*
Y21561D01*
X266037D01*
Y20570D01*
X266067D01*
Y20540D01*
X266097D01*
Y20510D01*
X267028D01*
Y20540D01*
X267058D01*
Y21591D01*
X267598D01*
Y21561D01*
D02*
G37*
G36*
X303412Y21591D02*
X303472D01*
Y21561D01*
X303502D01*
Y21531D01*
X303592D01*
Y21501D01*
X303623D01*
Y21471D01*
X303653D01*
Y21441D01*
X303683D01*
Y21351D01*
X303713D01*
Y21321D01*
X303743D01*
Y20090D01*
X303172D01*
Y21171D01*
X303142D01*
Y21201D01*
X302782D01*
Y21231D01*
X302151D01*
Y20090D01*
X301581D01*
Y20510D01*
X301611D01*
Y20540D01*
X301641D01*
Y21321D01*
X301611D01*
Y21351D01*
X301581D01*
Y21621D01*
X303412D01*
Y21591D01*
D02*
G37*
G36*
X301401Y20090D02*
X300831D01*
Y20120D01*
X300801D01*
Y20360D01*
Y20390D01*
Y20510D01*
X300831D01*
Y20540D01*
X300861D01*
Y21321D01*
X300831D01*
Y21351D01*
X300801D01*
Y21621D01*
X301401D01*
Y20090D01*
D02*
G37*
G36*
X298849Y21591D02*
X298879D01*
Y21561D01*
X298909D01*
Y21531D01*
X298939D01*
Y21501D01*
X298969D01*
Y21471D01*
X298999D01*
Y21441D01*
X299029D01*
Y20901D01*
X298999D01*
Y20871D01*
X298969D01*
Y20841D01*
X298939D01*
Y20811D01*
X298909D01*
Y20780D01*
X298879D01*
Y20720D01*
X297558D01*
Y20570D01*
X297588D01*
Y20540D01*
X297619D01*
Y20510D01*
X298999D01*
Y20330D01*
X299029D01*
Y20150D01*
X298999D01*
Y20120D01*
X298969D01*
Y20090D01*
X297318D01*
Y20120D01*
X297288D01*
Y20150D01*
X297198D01*
Y20180D01*
X297168D01*
Y20210D01*
X297138D01*
Y20240D01*
X297108D01*
Y20270D01*
X297078D01*
Y20360D01*
X297048D01*
Y20390D01*
X297018D01*
Y21381D01*
X297048D01*
Y21411D01*
X297078D01*
Y21441D01*
X297108D01*
Y21471D01*
X297138D01*
Y21501D01*
X297168D01*
Y21531D01*
X297198D01*
Y21561D01*
X297228D01*
Y21591D01*
X297318D01*
Y21621D01*
X298849D01*
Y21591D01*
D02*
G37*
G36*
X294136D02*
X294226D01*
Y21531D01*
X294316D01*
Y21501D01*
X294346D01*
Y21471D01*
X294376D01*
Y21441D01*
X294406D01*
Y21411D01*
X294436D01*
Y21321D01*
X294466D01*
Y21291D01*
X294526D01*
Y20090D01*
X293896D01*
Y20180D01*
X293926D01*
Y20210D01*
X293956D01*
Y21141D01*
X293896D01*
Y21201D01*
X293836D01*
Y21231D01*
X292875D01*
Y20150D01*
X292905D01*
Y20120D01*
X292875D01*
Y20090D01*
X292305D01*
Y20360D01*
X292335D01*
Y20390D01*
X292365D01*
Y21621D01*
X294136D01*
Y21591D01*
D02*
G37*
G36*
X292065Y21141D02*
Y21111D01*
Y20090D01*
X291554D01*
Y21621D01*
X292065D01*
Y21141D01*
D02*
G37*
G36*
X288552Y21591D02*
X288643D01*
Y21561D01*
X288672D01*
Y21531D01*
X288763D01*
Y21471D01*
X288793D01*
Y21441D01*
X288853D01*
Y21351D01*
X288883D01*
Y21321D01*
X288913D01*
Y21291D01*
X288943D01*
Y20090D01*
X288342D01*
Y20120D01*
X288312D01*
Y21141D01*
X288342D01*
Y21171D01*
X288312D01*
Y21201D01*
X288072D01*
Y21231D01*
X287322D01*
Y20090D01*
X286781D01*
Y20150D01*
X286751D01*
Y20901D01*
X286781D01*
Y21621D01*
X288552D01*
Y21591D01*
D02*
G37*
G36*
X281558D02*
X281618D01*
Y21561D01*
X281648D01*
Y21531D01*
X281738D01*
Y21501D01*
X281768D01*
Y21471D01*
X281798D01*
Y21441D01*
X281828D01*
Y21351D01*
X281858D01*
Y21321D01*
X281888D01*
Y21261D01*
X281918D01*
Y21231D01*
X281948D01*
Y20090D01*
X281318D01*
Y21171D01*
X281288D01*
Y21201D01*
X281258D01*
Y21231D01*
X280297D01*
Y20090D01*
X279727D01*
Y20120D01*
X279756D01*
Y20150D01*
X279786D01*
Y21621D01*
X281558D01*
Y21591D01*
D02*
G37*
G36*
X277085Y21531D02*
Y21501D01*
Y20390D01*
X277115D01*
Y20360D01*
X277145D01*
Y20090D01*
X276574D01*
Y20120D01*
X276544D01*
Y21621D01*
X277085D01*
Y21531D01*
D02*
G37*
G36*
X275704Y22071D02*
X275734D01*
Y22041D01*
X275764D01*
Y22071D01*
X276094D01*
Y22041D01*
X276124D01*
Y21621D01*
X276454D01*
Y21381D01*
X276424D01*
Y21261D01*
X276394D01*
Y21231D01*
X276124D01*
Y20090D01*
X275554D01*
Y20240D01*
X275584D01*
Y20270D01*
X275614D01*
Y20300D01*
X275584D01*
Y21141D01*
X275614D01*
Y21171D01*
X275584D01*
Y21201D01*
X275554D01*
Y21231D01*
X275313D01*
Y21621D01*
X275554D01*
Y21891D01*
Y21921D01*
Y22041D01*
X275584D01*
Y22071D01*
X275614D01*
Y22101D01*
X275704D01*
Y22071D01*
D02*
G37*
G36*
X274923Y21591D02*
X275013D01*
Y21531D01*
X275103D01*
Y21441D01*
X275164D01*
Y21351D01*
X275193D01*
Y21321D01*
X275223D01*
Y20330D01*
X275164D01*
Y20240D01*
X275133D01*
Y20210D01*
X275103D01*
Y20180D01*
X275013D01*
Y20150D01*
X274953D01*
Y20120D01*
X274923D01*
Y20090D01*
X273392D01*
Y20120D01*
X273362D01*
Y20150D01*
X273302D01*
Y20180D01*
X273242D01*
Y20270D01*
X273212D01*
Y20300D01*
X273182D01*
Y20360D01*
X273212D01*
Y20390D01*
X273182D01*
Y20780D01*
X273212D01*
Y20811D01*
X273242D01*
Y20901D01*
X273272D01*
Y20931D01*
X273302D01*
Y20961D01*
X273392D01*
Y20991D01*
X274683D01*
Y21141D01*
X274653D01*
Y21171D01*
X274623D01*
Y21201D01*
X274503D01*
Y21231D01*
X274203D01*
Y21201D01*
X273572D01*
Y21231D01*
X273332D01*
Y21201D01*
X273242D01*
Y21231D01*
X273212D01*
Y21261D01*
X273182D01*
Y21321D01*
X273212D01*
Y21351D01*
X273182D01*
Y21591D01*
X273212D01*
Y21621D01*
X274923D01*
Y21591D01*
D02*
G37*
G36*
X270780D02*
X270811D01*
Y21561D01*
X270780D01*
Y20330D01*
X270811D01*
Y20300D01*
X270780D01*
Y20240D01*
X270841D01*
Y20090D01*
X270270D01*
Y21621D01*
X270780D01*
Y21591D01*
D02*
G37*
G36*
X269700D02*
X269760D01*
Y21561D01*
X269790D01*
Y21531D01*
X269880D01*
Y21501D01*
X269910D01*
Y21471D01*
X269940D01*
Y21441D01*
X269970D01*
Y21351D01*
X270000D01*
Y21321D01*
X270030D01*
Y21231D01*
X270060D01*
Y21201D01*
X270090D01*
Y21171D01*
X270060D01*
Y20150D01*
X270090D01*
Y20120D01*
X270060D01*
Y20090D01*
X269460D01*
Y21171D01*
X269430D01*
Y21201D01*
X269069D01*
Y21231D01*
X268439D01*
Y20841D01*
Y20811D01*
Y20090D01*
X267869D01*
Y20420D01*
X267899D01*
Y20450D01*
X267929D01*
Y20510D01*
X267899D01*
Y21171D01*
X267929D01*
Y21231D01*
X267869D01*
Y21621D01*
X269700D01*
Y21591D01*
D02*
G37*
G36*
X264927D02*
X265017D01*
Y21561D01*
X265047D01*
Y21531D01*
X265107D01*
Y21501D01*
X265137D01*
Y21471D01*
X265167D01*
Y21441D01*
X265197D01*
Y21411D01*
X265227D01*
Y21381D01*
X265257D01*
Y21321D01*
X265227D01*
Y21291D01*
X265257D01*
Y21261D01*
X265287D01*
Y21231D01*
X265257D01*
Y20300D01*
X265287D01*
Y20270D01*
X265257D01*
Y20210D01*
X265287D01*
Y20180D01*
X265317D01*
Y20090D01*
X264686D01*
Y21201D01*
X264656D01*
Y21231D01*
X264176D01*
Y20090D01*
X263606D01*
Y20120D01*
X263576D01*
Y20150D01*
X263606D01*
Y21081D01*
X263576D01*
Y21111D01*
X263606D01*
Y21171D01*
X263576D01*
Y21201D01*
X263546D01*
Y21231D01*
X263005D01*
Y20090D01*
X262435D01*
Y20570D01*
Y20600D01*
Y21621D01*
X264927D01*
Y21591D01*
D02*
G37*
G36*
X261805D02*
X261894D01*
Y21561D01*
X261925D01*
Y21531D01*
X261985D01*
Y21501D01*
X262015D01*
Y21471D01*
X262045D01*
Y21441D01*
X262075D01*
Y21411D01*
X262105D01*
Y21381D01*
X262135D01*
Y21351D01*
X262165D01*
Y21321D01*
X262135D01*
Y21261D01*
X262165D01*
Y21231D01*
X262195D01*
Y20090D01*
X261564D01*
Y20570D01*
X261624D01*
Y20630D01*
Y20660D01*
Y21141D01*
X261594D01*
Y21171D01*
X261564D01*
Y21201D01*
X261534D01*
Y21231D01*
X261084D01*
Y21201D01*
X261054D01*
Y20660D01*
X261084D01*
Y20090D01*
X260484D01*
Y20120D01*
X260454D01*
Y20150D01*
X260484D01*
Y20841D01*
X260454D01*
Y20871D01*
X260484D01*
Y20901D01*
X260574D01*
Y20961D01*
X260484D01*
Y20991D01*
X260454D01*
Y21021D01*
X260484D01*
Y21141D01*
X260454D01*
Y21171D01*
X260484D01*
Y21231D01*
X259883D01*
Y20090D01*
X259373D01*
Y21621D01*
X261805D01*
Y21591D01*
D02*
G37*
G36*
X258772D02*
X258862D01*
Y21561D01*
X258892D01*
Y21531D01*
X258983D01*
Y21441D01*
X259013D01*
Y21411D01*
X259043D01*
Y21381D01*
X259073D01*
Y21291D01*
X259133D01*
Y20450D01*
X259103D01*
Y20420D01*
X259073D01*
Y20330D01*
X259043D01*
Y20300D01*
X259013D01*
Y20270D01*
X258983D01*
Y20240D01*
X258953D01*
Y20210D01*
X258923D01*
Y20180D01*
X258892D01*
Y20150D01*
X258803D01*
Y20120D01*
X258772D01*
Y20090D01*
X257362D01*
Y20120D01*
X257331D01*
Y20150D01*
X257272D01*
Y20120D01*
X257241D01*
Y20150D01*
X257211D01*
Y20180D01*
X257121D01*
Y20210D01*
X257091D01*
Y20240D01*
X257061D01*
Y20330D01*
X257001D01*
Y20390D01*
X256971D01*
Y21351D01*
X257001D01*
Y21381D01*
X257061D01*
Y21471D01*
X257091D01*
Y21501D01*
X257121D01*
Y21531D01*
X257211D01*
Y21591D01*
X257301D01*
Y21621D01*
X258772D01*
Y21591D01*
D02*
G37*
G36*
X252348Y20390D02*
Y20360D01*
Y20090D01*
X251778D01*
Y20360D01*
X251808D01*
Y20390D01*
X251838D01*
Y21081D01*
X251808D01*
Y21111D01*
X251778D01*
Y22161D01*
X252348D01*
Y20390D01*
D02*
G37*
G36*
X249466Y22101D02*
X249526D01*
Y21681D01*
X248265D01*
Y20811D01*
X248235D01*
Y20751D01*
X248265D01*
Y20090D01*
X247695D01*
Y21681D01*
X246434D01*
Y22101D01*
X246974D01*
Y22161D01*
X249466D01*
Y22101D01*
D02*
G37*
G36*
X242171Y21591D02*
X242201D01*
Y21561D01*
X242231D01*
Y21531D01*
X242321D01*
Y21471D01*
X242351D01*
Y21441D01*
X242411D01*
Y21351D01*
X242442D01*
Y21321D01*
X242472D01*
Y21231D01*
X242501D01*
Y20090D01*
X241931D01*
Y20811D01*
X241991D01*
Y20841D01*
X241961D01*
Y20871D01*
X241931D01*
Y21141D01*
X241901D01*
Y21171D01*
X241871D01*
Y21201D01*
X241841D01*
Y21231D01*
X240880D01*
Y20090D01*
X240340D01*
Y21141D01*
Y21171D01*
Y21621D01*
X242171D01*
Y21591D01*
D02*
G37*
G36*
X239800D02*
X239890D01*
Y21561D01*
X239920D01*
Y21531D01*
X240010D01*
Y21471D01*
X240070D01*
Y21411D01*
X240040D01*
Y21351D01*
X240070D01*
Y21321D01*
X240100D01*
Y20270D01*
X240010D01*
Y20240D01*
X239980D01*
Y20210D01*
X239950D01*
Y20180D01*
X239920D01*
Y20150D01*
X239830D01*
Y20120D01*
X239800D01*
Y20090D01*
X238269D01*
Y20150D01*
X238179D01*
Y20180D01*
X238149D01*
Y20210D01*
X238119D01*
Y20240D01*
X238149D01*
Y20300D01*
X238119D01*
Y20330D01*
X238089D01*
Y20811D01*
X238119D01*
Y20841D01*
X238149D01*
Y20901D01*
X238179D01*
Y20931D01*
X238209D01*
Y20961D01*
X238269D01*
Y20991D01*
X239560D01*
Y21021D01*
X239590D01*
Y21081D01*
X239560D01*
Y21111D01*
X239529D01*
Y21141D01*
X239499D01*
Y21171D01*
X239470D01*
Y21201D01*
X238149D01*
Y21231D01*
X238089D01*
Y21621D01*
X239800D01*
Y21591D01*
D02*
G37*
G36*
X236558Y21261D02*
X236527D01*
Y21231D01*
X235297D01*
Y21201D01*
X235207D01*
Y20570D01*
X235237D01*
Y20540D01*
X235267D01*
Y20510D01*
X236558D01*
Y20090D01*
X235027D01*
Y20120D01*
X234997D01*
Y20150D01*
X234906D01*
Y20180D01*
X234816D01*
Y20240D01*
X234786D01*
Y20300D01*
X234756D01*
Y20330D01*
X234726D01*
Y20360D01*
X234696D01*
Y20390D01*
X234666D01*
Y21321D01*
X234696D01*
Y21351D01*
X234726D01*
Y21381D01*
X234756D01*
Y21411D01*
X234786D01*
Y21471D01*
X234816D01*
Y21531D01*
X234906D01*
Y21561D01*
X234936D01*
Y21591D01*
X235027D01*
Y21621D01*
X236558D01*
Y21261D01*
D02*
G37*
G36*
X234396Y20390D02*
X234426D01*
Y20090D01*
X233856D01*
Y21621D01*
X234396D01*
Y20390D01*
D02*
G37*
G36*
X233225Y21591D02*
X233315D01*
Y21561D01*
X233345D01*
Y21531D01*
X233435D01*
Y21471D01*
X233466D01*
Y21441D01*
X233525D01*
Y21351D01*
X233556D01*
Y21321D01*
X233586D01*
Y21231D01*
X233615D01*
Y20090D01*
X232985D01*
Y21201D01*
X232955D01*
Y21231D01*
X231995D01*
Y20120D01*
Y20090D01*
X231424D01*
Y20360D01*
X231394D01*
Y20390D01*
X231424D01*
Y20420D01*
X231454D01*
Y21231D01*
X231424D01*
Y21261D01*
X231394D01*
Y21291D01*
X231424D01*
Y21621D01*
X233225D01*
Y21591D01*
D02*
G37*
G36*
X230884D02*
X230914D01*
Y21561D01*
X230944D01*
Y21531D01*
X231034D01*
Y21471D01*
X231064D01*
Y21441D01*
X231124D01*
Y21351D01*
X231154D01*
Y21321D01*
X231184D01*
Y21231D01*
X231214D01*
Y20420D01*
X231184D01*
Y20360D01*
X231154D01*
Y20330D01*
X231124D01*
Y20300D01*
X231094D01*
Y20270D01*
X231064D01*
Y20240D01*
X231034D01*
Y20210D01*
X231004D01*
Y20180D01*
X230944D01*
Y20150D01*
X230914D01*
Y20120D01*
X230884D01*
Y20090D01*
X229443D01*
Y20120D01*
X229413D01*
Y20150D01*
X229353D01*
Y20120D01*
X229323D01*
Y20150D01*
X229293D01*
Y20180D01*
X229203D01*
Y20240D01*
X229143D01*
Y20330D01*
X229113D01*
Y20360D01*
X229082D01*
Y20390D01*
X229052D01*
Y21381D01*
X229143D01*
Y21471D01*
X229173D01*
Y21501D01*
X229203D01*
Y21531D01*
X229293D01*
Y21561D01*
X229323D01*
Y21591D01*
X229383D01*
Y21621D01*
X230884D01*
Y21591D01*
D02*
G37*
G36*
X226651Y22071D02*
X226681D01*
Y22041D01*
X226711D01*
Y22071D01*
X226981D01*
Y22041D01*
X227011D01*
Y22071D01*
X227071D01*
Y22041D01*
X227101D01*
Y21621D01*
X227431D01*
Y21501D01*
X227401D01*
Y21471D01*
X227371D01*
Y21261D01*
Y21231D01*
X227101D01*
Y20120D01*
X227071D01*
Y20090D01*
X226501D01*
Y20120D01*
X226531D01*
Y20150D01*
X226561D01*
Y20931D01*
X226591D01*
Y20961D01*
X226621D01*
Y20991D01*
X226591D01*
Y21021D01*
X226561D01*
Y21201D01*
X226501D01*
Y21231D01*
X226291D01*
Y21261D01*
X226261D01*
Y21621D01*
X226501D01*
Y22041D01*
X226531D01*
Y22071D01*
X226561D01*
Y22101D01*
X226651D01*
Y22071D01*
D02*
G37*
G36*
X221788Y22131D02*
X221818D01*
Y22071D01*
X221788D01*
Y22041D01*
X221758D01*
Y20420D01*
X221818D01*
Y20120D01*
X221788D01*
Y20090D01*
X221217D01*
Y21351D01*
Y21381D01*
Y22131D01*
X221247D01*
Y22161D01*
X221788D01*
Y22131D01*
D02*
G37*
G36*
X305844Y21591D02*
X305934D01*
Y21561D01*
X305964D01*
Y21531D01*
X306054D01*
Y21471D01*
X306084D01*
Y21441D01*
X306144D01*
Y21381D01*
X306204D01*
Y19970D01*
X306174D01*
Y19940D01*
X306144D01*
Y19850D01*
X306114D01*
Y19820D01*
X306084D01*
Y19760D01*
X306054D01*
Y19700D01*
X305964D01*
Y19670D01*
X305874D01*
Y19640D01*
X305844D01*
Y19610D01*
X304133D01*
Y20030D01*
X304193D01*
Y20000D01*
X305484D01*
Y20030D01*
X305514D01*
Y20090D01*
X305604D01*
Y20330D01*
X304223D01*
Y20360D01*
X304193D01*
Y20390D01*
X304163D01*
Y20420D01*
X304133D01*
Y20450D01*
X304103D01*
Y20480D01*
X304073D01*
Y20570D01*
X304043D01*
Y21381D01*
X304073D01*
Y21411D01*
X304103D01*
Y21441D01*
X304133D01*
Y21471D01*
X304163D01*
Y21501D01*
X304193D01*
Y21531D01*
X304223D01*
Y21561D01*
X304253D01*
Y21591D01*
X304313D01*
Y21621D01*
X305844D01*
Y21591D01*
D02*
G37*
%LPC*%
G36*
X276124Y44376D02*
X276034D01*
Y44346D01*
X276064D01*
Y44316D01*
X276094D01*
Y44286D01*
X276214D01*
Y44256D01*
X276244D01*
Y44226D01*
X276364D01*
Y44196D01*
X276514D01*
Y44226D01*
X276394D01*
Y44256D01*
X276364D01*
Y44286D01*
X276274D01*
Y44316D01*
X276244D01*
Y44346D01*
X276124D01*
Y44376D01*
D02*
G37*
G36*
X276604Y44196D02*
X276574D01*
Y44166D01*
X276544D01*
Y44136D01*
X276604D01*
Y44196D01*
D02*
G37*
G36*
X276754Y44136D02*
X276664D01*
Y44076D01*
X276725D01*
Y44106D01*
X276754D01*
Y44136D01*
D02*
G37*
G36*
X276845Y44106D02*
X276815D01*
Y44076D01*
X276784D01*
Y44046D01*
X276845D01*
Y44106D01*
D02*
G37*
G36*
X276995Y44046D02*
X276905D01*
Y43986D01*
X276995D01*
Y44046D01*
D02*
G37*
G36*
X275854D02*
X275794D01*
Y43986D01*
X275824D01*
Y44016D01*
X275854D01*
Y44046D01*
D02*
G37*
G36*
X277295Y43896D02*
X277235D01*
Y43836D01*
X277265D01*
Y43866D01*
X277295D01*
Y43896D01*
D02*
G37*
G36*
X277385Y43866D02*
X277325D01*
Y43806D01*
X277385D01*
Y43866D01*
D02*
G37*
G36*
X277475Y43806D02*
X277415D01*
Y43746D01*
X277475D01*
Y43806D01*
D02*
G37*
G36*
X275734D02*
X275704D01*
Y43776D01*
Y43746D01*
X275734D01*
Y43806D01*
D02*
G37*
G36*
X277565Y43776D02*
X277535D01*
Y43746D01*
X277505D01*
Y43716D01*
X277565D01*
Y43746D01*
Y43776D01*
D02*
G37*
G36*
X275704Y43716D02*
X275644D01*
Y43656D01*
Y43626D01*
X275704D01*
Y43716D01*
D02*
G37*
G36*
X277715D02*
X277625D01*
Y43656D01*
X277715D01*
Y43626D01*
X277745D01*
Y43596D01*
X277805D01*
Y43566D01*
X277865D01*
Y43506D01*
X277925D01*
Y43536D01*
X277955D01*
Y43566D01*
X277865D01*
Y43596D01*
X277835D01*
Y43626D01*
X277805D01*
Y43656D01*
X277715D01*
Y43716D01*
D02*
G37*
G36*
X275644Y43566D02*
X275614D01*
Y43536D01*
Y43506D01*
X275644D01*
Y43566D01*
D02*
G37*
G36*
X278135Y43476D02*
X278105D01*
Y43416D01*
X278135D01*
Y43386D01*
X278196D01*
Y43416D01*
X278135D01*
Y43476D01*
D02*
G37*
G36*
X275794Y43326D02*
X275704D01*
Y43266D01*
X275764D01*
Y43296D01*
X275794D01*
Y43326D01*
D02*
G37*
G36*
X278286Y43386D02*
X278256D01*
Y43356D01*
X278225D01*
Y43326D01*
X278286D01*
Y43266D01*
X278376D01*
Y43236D01*
X278406D01*
Y43206D01*
X278436D01*
Y43176D01*
X278526D01*
Y43236D01*
X278436D01*
Y43266D01*
X278406D01*
Y43296D01*
X278376D01*
Y43326D01*
X278286D01*
Y43386D01*
D02*
G37*
G36*
X276034Y43236D02*
X275974D01*
Y43176D01*
X276034D01*
Y43236D01*
D02*
G37*
G36*
X276184Y43176D02*
X276124D01*
Y43145D01*
X276184D01*
Y43176D01*
D02*
G37*
G36*
X278676Y43145D02*
X278586D01*
Y43086D01*
X278676D01*
Y43145D01*
D02*
G37*
G36*
X276304D02*
X276274D01*
Y43115D01*
Y43086D01*
X276304D01*
Y43145D01*
D02*
G37*
G36*
X276424Y43086D02*
X276364D01*
Y43055D01*
X276394D01*
Y43025D01*
X276424D01*
Y42995D01*
X276514D01*
Y43025D01*
X276484D01*
Y43055D01*
X276424D01*
Y43086D01*
D02*
G37*
G36*
X278766D02*
X278736D01*
Y43055D01*
X278706D01*
Y43025D01*
X278736D01*
Y42995D01*
X278766D01*
Y42965D01*
X278796D01*
Y42935D01*
X278826D01*
Y42905D01*
X278886D01*
Y42875D01*
X278916D01*
Y42845D01*
X278946D01*
Y42815D01*
X278976D01*
Y42785D01*
X279006D01*
Y42875D01*
X278976D01*
Y42905D01*
X278946D01*
Y42935D01*
X278886D01*
Y42965D01*
X278856D01*
Y42995D01*
X278826D01*
Y43025D01*
X278796D01*
Y43055D01*
X278766D01*
Y43086D01*
D02*
G37*
G36*
X279156Y42785D02*
X279066D01*
Y42755D01*
X279096D01*
Y42725D01*
X279126D01*
Y42695D01*
X279156D01*
Y42785D01*
D02*
G37*
G36*
X277565Y42515D02*
X277535D01*
Y42485D01*
X277505D01*
Y42455D01*
X277565D01*
Y42515D01*
D02*
G37*
G36*
X277715Y42425D02*
X277655D01*
Y42365D01*
X277715D01*
Y42395D01*
Y42425D01*
D02*
G37*
G36*
X279336Y42605D02*
X279306D01*
Y42545D01*
X279336D01*
Y42515D01*
X279366D01*
Y42485D01*
X279396D01*
Y42455D01*
X279426D01*
Y42425D01*
X279456D01*
Y42395D01*
X279486D01*
Y42365D01*
X279516D01*
Y42335D01*
X279546D01*
Y42305D01*
X279576D01*
Y42275D01*
X279666D01*
Y42245D01*
X279696D01*
Y42215D01*
X279727D01*
Y42185D01*
X279756D01*
Y42155D01*
X279786D01*
Y42125D01*
X279817D01*
Y42095D01*
X279847D01*
Y42065D01*
X279877D01*
Y42035D01*
X279907D01*
Y42005D01*
X279937D01*
Y41975D01*
X279967D01*
Y41945D01*
X279997D01*
Y41915D01*
X280027D01*
Y41885D01*
X280057D01*
Y41855D01*
X280087D01*
Y41825D01*
X280117D01*
Y41885D01*
X280087D01*
Y41915D01*
X280057D01*
Y41945D01*
X280027D01*
Y41975D01*
X279997D01*
Y42005D01*
X279967D01*
Y42035D01*
X279937D01*
Y42065D01*
X279907D01*
Y42095D01*
X279877D01*
Y42155D01*
X279847D01*
Y42185D01*
X279817D01*
Y42215D01*
X279786D01*
Y42245D01*
X279756D01*
Y42275D01*
X279727D01*
Y42305D01*
X279696D01*
Y42335D01*
X279576D01*
Y42365D01*
X279546D01*
Y42395D01*
X279516D01*
Y42425D01*
X279486D01*
Y42455D01*
X279456D01*
Y42485D01*
X279426D01*
Y42515D01*
X279396D01*
Y42545D01*
X279366D01*
Y42575D01*
X279336D01*
Y42605D01*
D02*
G37*
G36*
X278526Y41825D02*
X278466D01*
Y41765D01*
X278496D01*
Y41735D01*
X278526D01*
Y41704D01*
X278616D01*
Y41735D01*
X278586D01*
Y41765D01*
X278556D01*
Y41795D01*
X278526D01*
Y41825D01*
D02*
G37*
G36*
X280447Y41464D02*
X280417D01*
Y41434D01*
X280387D01*
Y41404D01*
X280447D01*
Y41374D01*
X280477D01*
Y41344D01*
X280507D01*
Y41314D01*
X280537D01*
Y41254D01*
X280597D01*
Y41314D01*
X280567D01*
Y41344D01*
X280537D01*
Y41374D01*
X280507D01*
Y41404D01*
X280477D01*
Y41434D01*
X280447D01*
Y41464D01*
D02*
G37*
G36*
X280747Y41164D02*
X280687D01*
Y41074D01*
X280747D01*
Y41104D01*
Y41134D01*
Y41164D01*
D02*
G37*
G36*
X281168Y40504D02*
X281137D01*
Y40474D01*
X281107D01*
Y40444D01*
X281168D01*
Y40504D01*
D02*
G37*
G36*
X279786D02*
X279727D01*
Y40474D01*
Y40444D01*
X279756D01*
Y40414D01*
X279786D01*
Y40384D01*
X279817D01*
Y40444D01*
X279786D01*
Y40504D01*
D02*
G37*
G36*
X281258Y40294D02*
X281227D01*
Y40264D01*
X281258D01*
Y40203D01*
X281318D01*
Y40234D01*
X281288D01*
Y40264D01*
X281258D01*
Y40294D01*
D02*
G37*
G36*
X281348Y40174D02*
X281318D01*
Y40143D01*
Y40113D01*
X281348D01*
Y40174D01*
D02*
G37*
G36*
X280027Y40143D02*
X279967D01*
Y40113D01*
X280027D01*
Y40053D01*
X280057D01*
Y40113D01*
X280027D01*
Y40143D01*
D02*
G37*
G36*
X281408Y40053D02*
X281348D01*
Y40023D01*
X281408D01*
Y40053D01*
D02*
G37*
G36*
X281468Y39963D02*
X281408D01*
Y39903D01*
X281438D01*
Y39933D01*
X281468D01*
Y39963D01*
D02*
G37*
G36*
X281498Y39873D02*
X281468D01*
Y39813D01*
X281498D01*
Y39873D01*
D02*
G37*
G36*
X280447Y39393D02*
X280417D01*
Y39363D01*
X280387D01*
Y39333D01*
X280447D01*
Y39393D01*
D02*
G37*
G36*
X280507Y39303D02*
X280477D01*
Y39273D01*
X280447D01*
Y39213D01*
X280477D01*
Y39183D01*
X280507D01*
Y39093D01*
X280537D01*
Y39063D01*
X280597D01*
Y39093D01*
X280567D01*
Y39123D01*
X280537D01*
Y39183D01*
X280507D01*
Y39303D01*
D02*
G37*
G36*
X281828Y39063D02*
X281798D01*
Y39003D01*
X281828D01*
Y39033D01*
Y39063D01*
D02*
G37*
G36*
X281888Y38973D02*
X281858D01*
Y38943D01*
X281828D01*
Y38913D01*
X281888D01*
Y38973D01*
D02*
G37*
G36*
X281918Y38823D02*
X281888D01*
Y38763D01*
X281948D01*
Y38793D01*
X281918D01*
Y38823D01*
D02*
G37*
G36*
X280747Y38732D02*
X280717D01*
Y38702D01*
X280687D01*
Y38673D01*
X280747D01*
Y38732D01*
D02*
G37*
G36*
X281978Y38612D02*
X281948D01*
Y38582D01*
X281978D01*
Y38612D01*
D02*
G37*
G36*
X282008Y38492D02*
X281978D01*
Y38432D01*
X282038D01*
Y38462D01*
X282008D01*
Y38492D01*
D02*
G37*
G36*
X282068Y38342D02*
X282038D01*
Y38312D01*
Y38252D01*
X282098D01*
Y38312D01*
X282068D01*
Y38342D01*
D02*
G37*
G36*
X282128Y38132D02*
X282068D01*
Y38102D01*
Y38072D01*
Y38042D01*
X282128D01*
Y38132D01*
D02*
G37*
G36*
X282158Y37952D02*
X282128D01*
Y37802D01*
X282158D01*
Y37832D01*
X282188D01*
Y37922D01*
X282158D01*
Y37952D01*
D02*
G37*
G36*
X282218Y37712D02*
X282188D01*
Y37682D01*
X282158D01*
Y37652D01*
X282188D01*
Y37622D01*
X282158D01*
Y37592D01*
X282188D01*
Y37562D01*
X282218D01*
Y37712D01*
D02*
G37*
G36*
X282278Y37472D02*
X282218D01*
Y37172D01*
X282248D01*
Y37201D01*
X282278D01*
Y37472D01*
D02*
G37*
G36*
X281077Y37412D02*
X281017D01*
Y37172D01*
X281077D01*
Y37412D01*
D02*
G37*
G36*
X281137Y37081D02*
X281077D01*
Y36751D01*
X281137D01*
Y37081D01*
D02*
G37*
G36*
X282308Y37021D02*
X282278D01*
Y36961D01*
Y36931D01*
Y36421D01*
X282308D01*
Y36451D01*
X282338D01*
Y36481D01*
X282308D01*
Y37021D01*
D02*
G37*
G36*
X281168Y36361D02*
X281107D01*
Y36331D01*
X281168D01*
Y36361D01*
D02*
G37*
G36*
X275494Y42605D02*
X275464D01*
Y42575D01*
Y42545D01*
X275494D01*
Y42605D01*
D02*
G37*
G36*
X275644Y42575D02*
X275614D01*
Y42545D01*
X275584D01*
Y42515D01*
X275644D01*
Y42545D01*
Y42575D01*
D02*
G37*
G36*
X275734Y42515D02*
X275704D01*
Y42485D01*
Y42455D01*
X275734D01*
Y42515D01*
D02*
G37*
G36*
X275884D02*
X275854D01*
Y42485D01*
X275824D01*
Y42425D01*
X275884D01*
Y42515D01*
D02*
G37*
G36*
X275974Y42425D02*
X275944D01*
Y42365D01*
X275974D01*
Y42425D01*
D02*
G37*
G36*
X275254D02*
X275223D01*
Y42365D01*
X275254D01*
Y42425D01*
D02*
G37*
G36*
X276124Y42395D02*
X276064D01*
Y42335D01*
X276124D01*
Y42395D01*
D02*
G37*
G36*
X276214Y42365D02*
X276184D01*
Y42275D01*
X276274D01*
Y42215D01*
X276364D01*
Y42185D01*
X276394D01*
Y42155D01*
X276424D01*
Y42185D01*
X276454D01*
Y42215D01*
X276364D01*
Y42275D01*
X276274D01*
Y42305D01*
X276244D01*
Y42335D01*
X276214D01*
Y42365D01*
D02*
G37*
G36*
X276544Y42185D02*
X276514D01*
Y42125D01*
X276574D01*
Y42155D01*
X276544D01*
Y42185D01*
D02*
G37*
G36*
X276664Y42125D02*
X276604D01*
Y42095D01*
Y42065D01*
X276634D01*
Y42095D01*
X276664D01*
Y42125D01*
D02*
G37*
G36*
X276754Y42065D02*
X276694D01*
Y42035D01*
X276754D01*
Y42065D01*
D02*
G37*
G36*
X276845Y42035D02*
X276784D01*
Y41975D01*
X276845D01*
Y42035D01*
D02*
G37*
G36*
X275073Y41885D02*
X275013D01*
Y41855D01*
X275043D01*
Y41825D01*
X275073D01*
Y41885D01*
D02*
G37*
G36*
X277115Y41855D02*
X277085D01*
Y41795D01*
X277145D01*
Y41825D01*
X277115D01*
Y41855D01*
D02*
G37*
G36*
X275013Y41795D02*
X274983D01*
Y41735D01*
X275013D01*
Y41795D01*
D02*
G37*
G36*
X277265Y41735D02*
X277235D01*
Y41704D01*
X277265D01*
Y41735D01*
D02*
G37*
G36*
X274983Y41644D02*
X274923D01*
Y41584D01*
X274983D01*
Y41644D01*
D02*
G37*
G36*
X277385Y41735D02*
X277325D01*
Y41644D01*
X277355D01*
Y41614D01*
X277385D01*
Y41584D01*
X277415D01*
Y41554D01*
X277475D01*
Y41584D01*
X277445D01*
Y41614D01*
X277415D01*
Y41675D01*
X277385D01*
Y41735D01*
D02*
G37*
G36*
X274923Y41494D02*
X274863D01*
Y41464D01*
X274923D01*
Y41494D01*
D02*
G37*
G36*
X277565Y41584D02*
X277505D01*
Y41524D01*
X277535D01*
Y41494D01*
X277565D01*
Y41464D01*
X277655D01*
Y41404D01*
X277715D01*
Y41344D01*
X277745D01*
Y41374D01*
X277775D01*
Y41404D01*
X277715D01*
Y41494D01*
X277625D01*
Y41524D01*
X277595D01*
Y41554D01*
X277565D01*
Y41584D01*
D02*
G37*
G36*
X274893Y41404D02*
X274833D01*
Y41314D01*
X274893D01*
Y41404D01*
D02*
G37*
G36*
X274833Y41254D02*
X274773D01*
Y41224D01*
X274833D01*
Y41254D01*
D02*
G37*
G36*
X277895Y41314D02*
X277865D01*
Y41254D01*
X277895D01*
Y41224D01*
X277925D01*
Y41194D01*
X277955D01*
Y41164D01*
X277985D01*
Y41134D01*
X278015D01*
Y41104D01*
X278045D01*
Y41074D01*
X278105D01*
Y41104D01*
X278075D01*
Y41134D01*
X278045D01*
Y41164D01*
X278015D01*
Y41194D01*
X277985D01*
Y41224D01*
X277955D01*
Y41254D01*
X277925D01*
Y41284D01*
X277895D01*
Y41314D01*
D02*
G37*
G36*
X274773Y41134D02*
X274743D01*
Y41074D01*
X274773D01*
Y41104D01*
Y41134D01*
D02*
G37*
G36*
X274833Y40984D02*
X274773D01*
Y40954D01*
Y40924D01*
X274833D01*
Y40984D01*
D02*
G37*
G36*
X278196Y41104D02*
X278135D01*
Y41044D01*
X278165D01*
Y41014D01*
X278196D01*
Y40984D01*
X278225D01*
Y40954D01*
X278256D01*
Y40924D01*
X278286D01*
Y40894D01*
X278316D01*
Y40864D01*
X278346D01*
Y40834D01*
X278376D01*
Y40774D01*
X278436D01*
Y40744D01*
X278466D01*
Y40684D01*
X278526D01*
Y40654D01*
X278556D01*
Y40624D01*
X278586D01*
Y40594D01*
X278616D01*
Y40534D01*
X278676D01*
Y40594D01*
X278616D01*
Y40624D01*
X278586D01*
Y40684D01*
X278526D01*
Y40744D01*
X278496D01*
Y40774D01*
X278436D01*
Y40834D01*
X278406D01*
Y40864D01*
X278376D01*
Y40894D01*
X278346D01*
Y40954D01*
X278316D01*
Y40984D01*
X278286D01*
Y41014D01*
X278256D01*
Y41044D01*
X278225D01*
Y41074D01*
X278196D01*
Y41104D01*
D02*
G37*
G36*
X275794Y40594D02*
X275734D01*
Y40534D01*
X275794D01*
Y40504D01*
X275854D01*
Y40534D01*
X275794D01*
Y40594D01*
D02*
G37*
G36*
X275944Y40504D02*
X275884D01*
Y40444D01*
X275944D01*
Y40504D01*
D02*
G37*
G36*
X276034Y40444D02*
X275974D01*
Y40414D01*
X276004D01*
Y40384D01*
X276034D01*
Y40354D01*
X276094D01*
Y40384D01*
X276064D01*
Y40414D01*
X276034D01*
Y40444D01*
D02*
G37*
G36*
X276184Y40354D02*
X276124D01*
Y40294D01*
X276154D01*
Y40324D01*
X276184D01*
Y40354D01*
D02*
G37*
G36*
X279096Y40023D02*
X279066D01*
Y39993D01*
Y39963D01*
X279096D01*
Y39933D01*
X279126D01*
Y39903D01*
X279156D01*
Y39963D01*
X279126D01*
Y39993D01*
X279096D01*
Y40023D01*
D02*
G37*
G36*
X279246Y39813D02*
X279186D01*
Y39783D01*
X279246D01*
Y39813D01*
D02*
G37*
G36*
X277175Y39543D02*
X277145D01*
Y39483D01*
X277175D01*
Y39543D01*
D02*
G37*
G36*
X279336Y39723D02*
X279306D01*
Y39693D01*
X279276D01*
Y39663D01*
X279306D01*
Y39633D01*
X279336D01*
Y39573D01*
X279396D01*
Y39483D01*
X279426D01*
Y39453D01*
X279456D01*
Y39423D01*
X279486D01*
Y39483D01*
X279456D01*
Y39513D01*
X279426D01*
Y39573D01*
X279396D01*
Y39603D01*
Y39633D01*
X279336D01*
Y39723D01*
D02*
G37*
G36*
X279727Y38973D02*
X279696D01*
Y38943D01*
X279666D01*
Y38913D01*
X279727D01*
Y38973D01*
D02*
G37*
G36*
X277565Y39003D02*
X277505D01*
Y38973D01*
X277535D01*
Y38943D01*
X277565D01*
Y38913D01*
X277625D01*
Y38943D01*
X277595D01*
Y38973D01*
X277565D01*
Y39003D01*
D02*
G37*
G36*
X279786Y38853D02*
X279727D01*
Y38823D01*
X279786D01*
Y38853D01*
D02*
G37*
G36*
X277655D02*
X277625D01*
Y38823D01*
X277655D01*
Y38763D01*
X277715D01*
Y38823D01*
X277655D01*
Y38853D01*
D02*
G37*
G36*
X279817Y38763D02*
X279786D01*
Y38702D01*
X279817D01*
Y38763D01*
D02*
G37*
G36*
X279877Y38673D02*
X279817D01*
Y38612D01*
X279877D01*
Y38642D01*
Y38673D01*
D02*
G37*
G36*
X277865Y38582D02*
X277805D01*
Y38522D01*
X277865D01*
Y38582D01*
D02*
G37*
G36*
X279907Y38522D02*
X279877D01*
Y38492D01*
Y38462D01*
X279907D01*
Y38522D01*
D02*
G37*
G36*
X277895Y38492D02*
X277865D01*
Y38432D01*
X277895D01*
Y38492D01*
D02*
G37*
G36*
X279967Y38372D02*
X279907D01*
Y38342D01*
X279967D01*
Y38372D01*
D02*
G37*
G36*
X280027Y38282D02*
X279967D01*
Y38222D01*
X279997D01*
Y38252D01*
X280027D01*
Y38282D01*
D02*
G37*
G36*
X280057Y38132D02*
X280027D01*
Y38102D01*
X279997D01*
Y38072D01*
X280027D01*
Y38042D01*
X280057D01*
Y38132D01*
D02*
G37*
G36*
X280117Y38012D02*
X280087D01*
Y37982D01*
X280057D01*
Y37892D01*
X280087D01*
Y37922D01*
X280117D01*
Y38012D01*
D02*
G37*
G36*
X280147Y37802D02*
X280117D01*
Y37772D01*
Y37712D01*
X280147D01*
Y37742D01*
X280177D01*
Y37772D01*
X280147D01*
Y37802D01*
D02*
G37*
G36*
X280207Y37652D02*
X280147D01*
Y37472D01*
X280207D01*
Y37652D01*
D02*
G37*
G36*
X278286Y37532D02*
X278256D01*
Y37502D01*
X278225D01*
Y37382D01*
X278286D01*
Y37532D01*
D02*
G37*
G36*
X278346Y37262D02*
X278286D01*
Y37141D01*
X278346D01*
Y37262D01*
D02*
G37*
G36*
X278376Y37051D02*
X278346D01*
Y36901D01*
X278376D01*
Y36931D01*
Y36961D01*
Y37051D01*
D02*
G37*
G36*
X278436Y36661D02*
X278406D01*
Y36631D01*
X278376D01*
Y36541D01*
Y36511D01*
Y36391D01*
X278406D01*
Y36361D01*
X278436D01*
Y36331D01*
X278496D01*
Y36361D01*
X278436D01*
Y36661D01*
D02*
G37*
G36*
X239650Y35610D02*
X239620D01*
Y35550D01*
X239680D01*
Y35580D01*
X239650D01*
Y35610D01*
D02*
G37*
G36*
X237518Y33719D02*
X237458D01*
Y33689D01*
X237518D01*
Y33719D01*
D02*
G37*
%LPD*%
D10*
X75330Y127267D02*
G03*
X75330Y150496I0J11614D01*
G01*
D02*
G03*
X75330Y127267I0J-11614D01*
G01*
X184000Y96728D02*
G03*
X184000Y97122I0J197D01*
G01*
D02*
G03*
X184000Y96728I0J-197D01*
G01*
X383614Y104000D02*
G03*
X360386Y104000I-11614J0D01*
G01*
D02*
G03*
X383614Y104000I11614J0D01*
G01*
X69227Y148882D02*
X81432D01*
X309535Y219559D02*
X376465D01*
Y256961D01*
X309535D02*
X376465D01*
X309535Y219559D02*
Y256961D01*
X231035Y219559D02*
X297965D01*
Y256961D01*
X231035D02*
X297965D01*
X231035Y219559D02*
Y256961D01*
X362000Y97898D02*
Y110102D01*
X24500Y25858D02*
Y58142D01*
Y25858D02*
X84500D01*
Y58142D01*
X24500D02*
X84500D01*
X17937Y203000D02*
X58291D01*
Y243000D01*
X17937D02*
X58291D01*
X17937Y203000D02*
Y243000D01*
X72500Y224260D02*
X92500D01*
Y211740D02*
Y224260D01*
X72500Y211740D02*
X92500D01*
X72500D02*
Y224260D01*
D11*
X74936Y152267D02*
G03*
X75723Y152267I394J0D01*
G01*
D02*
G03*
X74936Y152267I-394J0D01*
G01*
X48012Y140000D02*
G03*
X48012Y140000I-197J0D01*
G01*
X358614Y103606D02*
G03*
X358614Y104394I0J394D01*
G01*
D02*
G03*
X358614Y103606I0J-394D01*
G01*
X288870Y76559D02*
G03*
X270130Y76559I-9370J0D01*
G01*
X331059Y148130D02*
G03*
X331059Y166870I0J9370D01*
G01*
X60260Y211819D02*
G03*
X60260Y212213I0J197D01*
G01*
D02*
G03*
X60260Y211819I0J-197D01*
G01*
D02*
G03*
X60260Y212213I0J197D01*
G01*
X108937Y56913D02*
Y71087D01*
X101063Y56913D02*
X108937D01*
X101063D02*
Y71087D01*
X108937D01*
X105000D02*
Y73075D01*
Y54925D02*
Y56913D01*
X259425Y112500D02*
X261413D01*
X275587D02*
X277575D01*
X275587Y108563D02*
Y116437D01*
X261413D02*
X275587D01*
X261413Y108563D02*
Y116437D01*
Y108563D02*
X275587D01*
X294425Y112500D02*
X296413D01*
X310587D02*
X312575D01*
X310587Y108563D02*
Y116437D01*
X296413D02*
X310587D01*
X296413Y108563D02*
Y116437D01*
Y108563D02*
X310587D01*
X290087Y56000D02*
X292075D01*
X273925D02*
X275913D01*
Y52063D02*
Y59937D01*
Y52063D02*
X290087D01*
Y59937D01*
X275913D02*
X290087D01*
X176126Y98894D02*
X191874D01*
Y128421D01*
X176126D02*
X191874D01*
X176126Y98894D02*
Y128421D01*
X134776Y198598D02*
X144224D01*
X134776D02*
Y223402D01*
X144224Y198598D02*
Y223402D01*
X134776D02*
X144224D01*
X261937Y61413D02*
Y75587D01*
X254063Y61413D02*
X261937D01*
X254063D02*
Y75587D01*
X261937D01*
X258000D02*
Y77575D01*
Y59425D02*
Y61413D01*
X241921Y59126D02*
Y74874D01*
X232079Y59126D02*
X233161D01*
X240839D02*
X241921D01*
X232079D02*
Y74874D01*
X233161D01*
X240839D02*
X241921D01*
X66925Y74500D02*
X68913D01*
X83087D02*
X85075D01*
X83087Y70563D02*
Y78437D01*
X68913D02*
X83087D01*
X68913Y70563D02*
Y78437D01*
Y70563D02*
X83087D01*
X29413Y78437D02*
X43587D01*
Y70563D02*
Y78437D01*
X29413Y70563D02*
X43587D01*
X29413D02*
Y78437D01*
X27425Y74500D02*
X29413D01*
X43587D02*
X45575D01*
X98902Y98776D02*
Y108224D01*
X74098Y98776D02*
X98902D01*
X74098Y108224D02*
X98902D01*
X74098Y98776D02*
Y108224D01*
X126098Y98776D02*
Y108224D01*
X150902D01*
X126098Y98776D02*
X150902D01*
Y108224D01*
X131628Y124921D02*
Y135079D01*
X109743Y130000D02*
X116244D01*
X136756D02*
X143257D01*
X136756Y124646D02*
Y135354D01*
X116244D02*
X136756D01*
X116244Y124646D02*
Y135354D01*
Y124646D02*
X136756D01*
X131128Y149421D02*
Y159579D01*
X109243Y154500D02*
X115744D01*
X136256D02*
X142757D01*
X136256Y149146D02*
Y159854D01*
X115744D02*
X136256D01*
X115744Y149146D02*
Y159854D01*
Y149146D02*
X136256D01*
X261913Y103437D02*
X276087D01*
Y95563D02*
Y103437D01*
X261913Y95563D02*
X276087D01*
X261913D02*
Y103437D01*
X259925Y99500D02*
X261913D01*
X276087D02*
X278075D01*
X296413Y95563D02*
X310587D01*
X296413D02*
Y103437D01*
X310587D01*
Y95563D02*
Y103437D01*
Y99500D02*
X312575D01*
X294425D02*
X296413D01*
X320413Y121563D02*
X334587D01*
X320413D02*
Y129437D01*
X334587D01*
Y121563D02*
Y129437D01*
Y125500D02*
X336575D01*
X318425D02*
X320413D01*
X376437Y149500D02*
X377500D01*
Y164500D01*
X376437D02*
X377500D01*
X367500Y149500D02*
X368563D01*
X367500D02*
Y164500D01*
X368563D01*
X355413Y192063D02*
X369587D01*
X355413D02*
Y199937D01*
X369587D01*
Y192063D02*
Y199937D01*
Y196000D02*
X371575D01*
X353425D02*
X355413D01*
X312126Y191579D02*
X327874D01*
X312126Y200339D02*
Y201421D01*
Y191579D02*
Y192661D01*
Y201421D02*
X327874D01*
Y200339D02*
Y201421D01*
Y191579D02*
Y192661D01*
X271413Y193563D02*
X285587D01*
X271413D02*
Y201437D01*
X285587D01*
Y193563D02*
Y201437D01*
Y197500D02*
X287575D01*
X269425D02*
X271413D01*
X232413Y193563D02*
X246587D01*
X232413D02*
Y201437D01*
X246587D01*
Y193563D02*
Y201437D01*
Y197500D02*
X248575D01*
X230425D02*
X232413D01*
X190913Y251437D02*
X205087D01*
Y243563D02*
Y251437D01*
X190913Y243563D02*
X205087D01*
X190913D02*
Y251437D01*
X188925Y247500D02*
X190913D01*
X205087D02*
X207075D01*
X109598Y246276D02*
Y255724D01*
X134402D01*
X109598Y246276D02*
X134402D01*
Y255724D01*
X77500Y253500D02*
X92500D01*
Y243500D02*
Y253500D01*
X72500Y243500D02*
X92500D01*
X72500D02*
Y248500D01*
X16528Y166279D02*
X57472D01*
X16528D02*
Y184390D01*
X57472D01*
X57472Y166279D02*
Y184390D01*
X16528Y168248D02*
X57472D01*
X100913Y28063D02*
X115087D01*
X100913D02*
Y35937D01*
X115087D01*
Y28063D02*
Y35937D01*
Y32000D02*
X117075D01*
X98925D02*
X100913D01*
X189413Y31937D02*
X203587D01*
Y24063D02*
Y31937D01*
X189413Y24063D02*
X203587D01*
X189413D02*
Y31937D01*
X187425Y28000D02*
X189413D01*
X203587D02*
X205575D01*
X377000Y46000D02*
X382000D01*
Y66000D01*
X372000D02*
X382000D01*
X372000Y51000D02*
Y66000D01*
X288870Y71736D02*
Y76559D01*
X270130Y71736D02*
X288870D01*
X270130D02*
Y76559D01*
X17000Y95000D02*
Y100000D01*
Y95000D02*
X37000D01*
Y105000D01*
X22000D02*
X37000D01*
X32913Y121937D02*
X47087D01*
Y114063D02*
Y121937D01*
X32913Y114063D02*
X47087D01*
X32913D02*
Y121937D01*
X30925Y118000D02*
X32913D01*
X47087D02*
X49075D01*
X326236Y166870D02*
X331059D01*
X326236Y148130D02*
Y166870D01*
Y148130D02*
X331059D01*
X354500Y162087D02*
Y164075D01*
Y145925D02*
Y147913D01*
X350563D02*
X358437D01*
Y162087D01*
X350563D02*
X358437D01*
X350563Y147913D02*
Y162087D01*
X205476Y55827D02*
Y70000D01*
X213350D01*
Y55827D02*
Y70000D01*
X205476Y55827D02*
X213350D01*
X209413Y53839D02*
Y55827D01*
Y70000D02*
Y71988D01*
X158500Y83894D02*
X163894D01*
Y43106D02*
Y83894D01*
X123106Y43106D02*
Y83894D01*
X154000Y32437D02*
Y33500D01*
X139000D02*
X154000D01*
X139000Y32437D02*
Y33500D01*
X154000Y23500D02*
Y24563D01*
X139000Y23500D02*
X154000D01*
X139000D02*
Y24563D01*
X332531Y95071D02*
X336469D01*
X334500Y93102D02*
Y97039D01*
X358413Y121563D02*
X372587D01*
X358413D02*
Y129437D01*
X372587D01*
Y121563D02*
Y129437D01*
Y125500D02*
X374575D01*
X356425D02*
X358413D01*
X183697Y152933D02*
X217303D01*
X221504Y171949D01*
X179693D02*
X221307D01*
X179496D02*
X183697Y152933D01*
X183197Y214492D02*
X216803D01*
X221004Y233508D01*
X179193D02*
X220807D01*
X178996D02*
X183197Y214492D01*
X255106Y129106D02*
Y169894D01*
X295894Y129106D02*
Y169894D01*
X290500D02*
X295894D01*
X111004Y173898D02*
Y192402D01*
X68996D02*
X111004D01*
X68996Y180000D02*
Y192402D01*
X306079Y149626D02*
X307161D01*
X314839D02*
X315921D01*
Y165374D01*
X306079D02*
X307161D01*
X314839D02*
X315921D01*
X306079Y149626D02*
Y165374D01*
X139874Y176079D02*
Y177161D01*
Y184839D02*
Y185921D01*
X124126D02*
X139874D01*
X124126Y176079D02*
Y177161D01*
Y184839D02*
Y185921D01*
Y176079D02*
X139874D01*
X238000Y163587D02*
Y165575D01*
Y147425D02*
Y149413D01*
X234063D02*
X241937D01*
Y163587D01*
X234063D02*
X241937D01*
X234063Y149413D02*
Y163587D01*
X123378Y206228D02*
X126272Y209122D01*
X124571Y210823D02*
X126272Y209122D01*
X121677Y207929D02*
X123378Y206228D01*
X169339Y164374D02*
X170421D01*
X160579D02*
X161661D01*
X160579Y148626D02*
Y164374D01*
X169339Y148626D02*
X170421D01*
X160579D02*
X161661D01*
X170421D02*
Y164374D01*
X218437Y103500D02*
X219500D01*
Y118500D01*
X218437D02*
X219500D01*
X209500Y103500D02*
X210563D01*
X209500D02*
Y118500D01*
X210563D01*
X243937Y103500D02*
X245000D01*
Y118500D01*
X243937D02*
X245000D01*
X235000Y103500D02*
X236063D01*
X235000D02*
Y118500D01*
X236063D01*
X204087Y188500D02*
X206075D01*
X187925D02*
X189913D01*
Y184563D02*
Y192437D01*
Y184563D02*
X204087D01*
Y192437D01*
X189913D02*
X204087D01*
X186000Y53925D02*
Y55913D01*
Y70087D02*
Y72075D01*
X182063Y70087D02*
X189937D01*
X182063Y55913D02*
Y70087D01*
Y55913D02*
X189937D01*
Y70087D01*
D12*
X168251Y248976D02*
G03*
X168251Y248976I-492J0D01*
G01*
X55405Y181831D02*
G03*
X55405Y181831I-492J0D01*
G01*
X178020Y160000D02*
G03*
X178020Y160000I-492J0D01*
G01*
X177520Y221559D02*
G03*
X177520Y221559I-492J0D01*
G01*
D13*
X365996Y59342D02*
G03*
X365996Y59342I-31496J0D01*
G01*
X126496Y217500D02*
G03*
X126496Y217500I-11496J0D01*
G01*
D14*
X88080Y54032D02*
Y57968D01*
X90048D01*
X90704Y57312D01*
Y56000D01*
X90048Y55344D01*
X88080D01*
X89392D02*
X90704Y54032D01*
X92016D02*
X93328D01*
X92672D01*
Y57968D01*
X92016Y57312D01*
X97920Y57968D02*
X96608Y57312D01*
X95296Y56000D01*
Y54688D01*
X95952Y54032D01*
X97264D01*
X97920Y54688D01*
Y55344D01*
X97264Y56000D01*
X95296D01*
X64004Y155501D02*
Y161499D01*
X67003D01*
X68002Y160499D01*
Y158500D01*
X67003Y157500D01*
X64004D01*
X70002Y161499D02*
Y155501D01*
X74000D01*
X79998Y161499D02*
X76000D01*
Y155501D01*
X79998D01*
X76000Y158500D02*
X77999D01*
X81998Y161499D02*
Y155501D01*
X84997D01*
X85997Y156501D01*
Y160499D01*
X84997Y161499D01*
X81998D01*
X376002Y211001D02*
Y216999D01*
X379001D01*
X380000Y215999D01*
Y214000D01*
X379001Y213000D01*
X376002D01*
X385998Y211001D02*
X382000D01*
X385998Y215000D01*
Y215999D01*
X384999Y216999D01*
X382999D01*
X382000Y215999D01*
X219501Y251001D02*
Y256999D01*
X222500D01*
X223500Y255999D01*
Y254000D01*
X222500Y253000D01*
X219501D01*
X225499Y251001D02*
X227499D01*
X226499D01*
Y256999D01*
X225499Y255999D01*
X263252Y119532D02*
Y123468D01*
X265220D01*
X265876Y122812D01*
Y121500D01*
X265220Y120844D01*
X263252D01*
X264564D02*
X265876Y119532D01*
X269812D02*
X267188D01*
X269812Y122156D01*
Y122812D01*
X269156Y123468D01*
X267844D01*
X267188Y122812D01*
X271124Y123468D02*
X273748D01*
Y122812D01*
X271124Y120188D01*
Y119532D01*
X298252Y119032D02*
Y122968D01*
X300220D01*
X300876Y122312D01*
Y121000D01*
X300220Y120344D01*
X298252D01*
X299564D02*
X300876Y119032D01*
X304812D02*
X302188D01*
X304812Y121656D01*
Y122312D01*
X304156Y122968D01*
X302844D01*
X302188Y122312D01*
X306124D02*
X306780Y122968D01*
X308092D01*
X308748Y122312D01*
Y121656D01*
X308092Y121000D01*
X308748Y120344D01*
Y119688D01*
X308092Y119032D01*
X306780D01*
X306124Y119688D01*
Y120344D01*
X306780Y121000D01*
X306124Y121656D01*
Y122312D01*
X306780Y121000D02*
X308092D01*
X277752Y63032D02*
Y66968D01*
X279720D01*
X280376Y66312D01*
Y65000D01*
X279720Y64344D01*
X277752D01*
X279064D02*
X280376Y63032D01*
X284312D02*
X281688D01*
X284312Y65656D01*
Y66312D01*
X283656Y66968D01*
X282344D01*
X281688Y66312D01*
X288248Y66968D02*
X286936Y66312D01*
X285624Y65000D01*
Y63688D01*
X286280Y63032D01*
X287592D01*
X288248Y63688D01*
Y64344D01*
X287592Y65000D01*
X285624D01*
X184000Y140499D02*
X183001Y141499D01*
X181001D01*
X180002Y140499D01*
Y136501D01*
X181001Y135501D01*
X183001D01*
X184000Y136501D01*
X186000Y140499D02*
X186999Y141499D01*
X188999D01*
X189998Y140499D01*
Y139500D01*
X188999Y138500D01*
X187999D01*
X188999D01*
X189998Y137500D01*
Y136501D01*
X188999Y135501D01*
X186999D01*
X186000Y136501D01*
X136720Y235532D02*
Y239468D01*
X138688D01*
X139344Y238812D01*
Y237500D01*
X138688Y236844D01*
X136720D01*
X138032D02*
X139344Y235532D01*
X142624D02*
Y239468D01*
X140656Y237500D01*
X143280D01*
X158502Y260999D02*
Y255001D01*
X162500D01*
X164500Y259999D02*
X165499Y260999D01*
X167499D01*
X168498Y259999D01*
Y259000D01*
X167499Y258000D01*
X166499D01*
X167499D01*
X168498Y257000D01*
Y256001D01*
X167499Y255001D01*
X165499D01*
X164500Y256001D01*
X252252Y45532D02*
Y49468D01*
X254220D01*
X254876Y48812D01*
Y47500D01*
X254220Y46844D01*
X252252D01*
X253564D02*
X254876Y45532D01*
X258812D02*
X256188D01*
X258812Y48156D01*
Y48812D01*
X258156Y49468D01*
X256844D01*
X256188Y48812D01*
X260124D02*
X260780Y49468D01*
X262092D01*
X262748Y48812D01*
Y48156D01*
X262092Y47500D01*
X261436D01*
X262092D01*
X262748Y46844D01*
Y46188D01*
X262092Y45532D01*
X260780D01*
X260124Y46188D01*
X234001Y87999D02*
X233001Y88999D01*
X231002D01*
X230002Y87999D01*
Y84001D01*
X231002Y83001D01*
X233001D01*
X234001Y84001D01*
X236000Y83001D02*
X238000D01*
X237000D01*
Y88999D01*
X236000Y87999D01*
X240999D02*
X241999Y88999D01*
X243998D01*
X244998Y87999D01*
Y84001D01*
X243998Y83001D01*
X241999D01*
X240999Y84001D01*
Y87999D01*
X70080Y63532D02*
Y67468D01*
X72048D01*
X72704Y66812D01*
Y65500D01*
X72048Y64844D01*
X70080D01*
X71392D02*
X72704Y63532D01*
X74016D02*
X75328D01*
X74672D01*
Y67468D01*
X74016Y66812D01*
X77296D02*
X77952Y67468D01*
X79264D01*
X79920Y66812D01*
Y66156D01*
X79264Y65500D01*
X78608D01*
X79264D01*
X79920Y64844D01*
Y64188D01*
X79264Y63532D01*
X77952D01*
X77296Y64188D01*
X31080Y63532D02*
Y67468D01*
X33048D01*
X33704Y66812D01*
Y65500D01*
X33048Y64844D01*
X31080D01*
X32392D02*
X33704Y63532D01*
X35016D02*
X36328D01*
X35672D01*
Y67468D01*
X35016Y66812D01*
X40264Y63532D02*
Y67468D01*
X38296Y65500D01*
X40920D01*
X83720Y112032D02*
Y115968D01*
X85688D01*
X86344Y115312D01*
Y114000D01*
X85688Y113344D01*
X83720D01*
X85032D02*
X86344Y112032D01*
X87656Y115312D02*
X88312Y115968D01*
X89624D01*
X90280Y115312D01*
Y114656D01*
X89624Y114000D01*
X88968D01*
X89624D01*
X90280Y113344D01*
Y112688D01*
X89624Y112032D01*
X88312D01*
X87656Y112688D01*
X135376Y111532D02*
Y115468D01*
X137344D01*
X138000Y114812D01*
Y113500D01*
X137344Y112844D01*
X135376D01*
X136688D02*
X138000Y111532D01*
X139312D02*
X140624D01*
X139968D01*
Y115468D01*
X139312Y114812D01*
X121720Y142468D02*
Y138532D01*
X123688D01*
X124344Y139188D01*
Y141812D01*
X123688Y142468D01*
X121720D01*
X128280Y138532D02*
X125656D01*
X128280Y141156D01*
Y141812D01*
X127624Y142468D01*
X126312D01*
X125656Y141812D01*
X121376Y166968D02*
Y163032D01*
X123344D01*
X124000Y163688D01*
Y166312D01*
X123344Y166968D01*
X121376D01*
X125312Y163032D02*
X126624D01*
X125968D01*
Y166968D01*
X125312Y166312D01*
X263580Y89532D02*
Y93468D01*
X265548D01*
X266204Y92812D01*
Y91500D01*
X265548Y90844D01*
X263580D01*
X264892D02*
X266204Y89532D01*
X267516D02*
X268828D01*
X268172D01*
Y93468D01*
X267516Y92812D01*
X273420Y89532D02*
X270796D01*
X273420Y92156D01*
Y92812D01*
X272764Y93468D01*
X271452D01*
X270796Y92812D01*
X299736Y88532D02*
Y92468D01*
X301704D01*
X302360Y91812D01*
Y90500D01*
X301704Y89844D01*
X299736D01*
X301048D02*
X302360Y88532D01*
X303672D02*
X304984D01*
X304328D01*
Y92468D01*
X303672Y91812D01*
X306952Y88532D02*
X308264D01*
X307608D01*
Y92468D01*
X306952Y91812D01*
X321080Y132032D02*
Y135968D01*
X323048D01*
X323704Y135312D01*
Y134000D01*
X323048Y133344D01*
X321080D01*
X322392D02*
X323704Y132032D01*
X325016D02*
X326328D01*
X325672D01*
Y135968D01*
X325016Y135312D01*
X328296Y132688D02*
X328952Y132032D01*
X330264D01*
X330920Y132688D01*
Y135312D01*
X330264Y135968D01*
X328952D01*
X328296Y135312D01*
Y134656D01*
X328952Y134000D01*
X330920D01*
X371844Y173812D02*
X371188Y174468D01*
X369876D01*
X369220Y173812D01*
Y171188D01*
X369876Y170532D01*
X371188D01*
X371844Y171188D01*
X375780Y174468D02*
X374468Y173812D01*
X373156Y172500D01*
Y171188D01*
X373812Y170532D01*
X375124D01*
X375780Y171188D01*
Y171844D01*
X375124Y172500D01*
X373156D01*
X357580Y203532D02*
Y207468D01*
X359548D01*
X360204Y206812D01*
Y205500D01*
X359548Y204844D01*
X357580D01*
X358892D02*
X360204Y203532D01*
X361516D02*
X362828D01*
X362172D01*
Y207468D01*
X361516Y206812D01*
X364796D02*
X365452Y207468D01*
X366764D01*
X367420Y206812D01*
Y204188D01*
X366764Y203532D01*
X365452D01*
X364796Y204188D01*
Y206812D01*
X319844Y208312D02*
X319188Y208968D01*
X317876D01*
X317220Y208312D01*
Y205688D01*
X317876Y205032D01*
X319188D01*
X319844Y205688D01*
X321156Y208968D02*
X323780D01*
Y208312D01*
X321156Y205688D01*
Y205032D01*
X274220D02*
Y208968D01*
X276188D01*
X276844Y208312D01*
Y207000D01*
X276188Y206344D01*
X274220D01*
X275532D02*
X276844Y205032D01*
X278156Y208312D02*
X278812Y208968D01*
X280124D01*
X280780Y208312D01*
Y207656D01*
X280124Y207000D01*
X280780Y206344D01*
Y205688D01*
X280124Y205032D01*
X278812D01*
X278156Y205688D01*
Y206344D01*
X278812Y207000D01*
X278156Y207656D01*
Y208312D01*
X278812Y207000D02*
X280124D01*
X235720Y205032D02*
Y208968D01*
X237688D01*
X238344Y208312D01*
Y207000D01*
X237688Y206344D01*
X235720D01*
X237032D02*
X238344Y205032D01*
X239656Y208968D02*
X242280D01*
Y208312D01*
X239656Y205688D01*
Y205032D01*
X195220Y255532D02*
Y259468D01*
X197188D01*
X197844Y258812D01*
Y257500D01*
X197188Y256844D01*
X195220D01*
X196532D02*
X197844Y255532D01*
X201780Y259468D02*
X200468Y258812D01*
X199156Y257500D01*
Y256188D01*
X199812Y255532D01*
X201124D01*
X201780Y256188D01*
Y256844D01*
X201124Y257500D01*
X199156D01*
X118220Y258532D02*
Y262468D01*
X120188D01*
X120844Y261812D01*
Y260500D01*
X120188Y259844D01*
X118220D01*
X119532D02*
X120844Y258532D01*
X124780D02*
X122156D01*
X124780Y261156D01*
Y261812D01*
X124124Y262468D01*
X122812D01*
X122156Y261812D01*
X81844Y261468D02*
X80532D01*
X81188D01*
Y258188D01*
X80532Y257532D01*
X79876D01*
X79220Y258188D01*
X83156Y260812D02*
X83812Y261468D01*
X85124D01*
X85780Y260812D01*
Y260156D01*
X85124Y259500D01*
X84468D01*
X85124D01*
X85780Y258844D01*
Y258188D01*
X85124Y257532D01*
X83812D01*
X83156Y258188D01*
X32376Y190968D02*
Y187688D01*
X33032Y187032D01*
X34344D01*
X35000Y187688D01*
Y190968D01*
X36312Y187032D02*
X37624D01*
X36968D01*
Y190968D01*
X36312Y190312D01*
X29376Y152812D02*
X28720Y153468D01*
X27408D01*
X26752Y152812D01*
Y150188D01*
X27408Y149532D01*
X28720D01*
X29376Y150188D01*
X33312Y149532D02*
X30688D01*
X33312Y152156D01*
Y152812D01*
X32656Y153468D01*
X31344D01*
X30688Y152812D01*
X37248Y149532D02*
X34624D01*
X37248Y152156D01*
Y152812D01*
X36592Y153468D01*
X35280D01*
X34624Y152812D01*
X102080Y39032D02*
Y42968D01*
X104048D01*
X104704Y42312D01*
Y41000D01*
X104048Y40344D01*
X102080D01*
X103392D02*
X104704Y39032D01*
X106016D02*
X107328D01*
X106672D01*
Y42968D01*
X106016Y42312D01*
X111920Y42968D02*
X109296D01*
Y41000D01*
X110608Y41656D01*
X111264D01*
X111920Y41000D01*
Y39688D01*
X111264Y39032D01*
X109952D01*
X109296Y39688D01*
X190752Y35532D02*
Y39468D01*
X192720D01*
X193376Y38812D01*
Y37500D01*
X192720Y36844D01*
X190752D01*
X192064D02*
X193376Y35532D01*
X197312D02*
X194688D01*
X197312Y38156D01*
Y38812D01*
X196656Y39468D01*
X195344D01*
X194688Y38812D01*
X201248Y35532D02*
X198624D01*
X201248Y38156D01*
Y38812D01*
X200592Y39468D01*
X199280D01*
X198624Y38812D01*
X369784Y70032D02*
Y73968D01*
X371752D01*
X372408Y73312D01*
Y72000D01*
X371752Y71344D01*
X369784D01*
X375688Y73968D02*
X374376D01*
X373720Y73312D01*
Y70688D01*
X374376Y70032D01*
X375688D01*
X376344Y70688D01*
Y73312D01*
X375688Y73968D01*
X377656D02*
Y70688D01*
X378312Y70032D01*
X379624D01*
X380280Y70688D01*
Y73968D01*
X381592D02*
X384215D01*
X382904D01*
Y70032D01*
X368317Y81532D02*
Y85468D01*
X370285D01*
X370940Y84812D01*
Y83500D01*
X370285Y82844D01*
X368317D01*
X372252Y85468D02*
Y81532D01*
X374876D01*
X378812Y85468D02*
X376188D01*
Y81532D01*
X378812D01*
X376188Y83500D02*
X377500D01*
X380124Y85468D02*
Y81532D01*
X382092D01*
X382748Y82188D01*
Y84812D01*
X382092Y85468D01*
X380124D01*
X386683Y81532D02*
X384060D01*
X386683Y84156D01*
Y84812D01*
X386027Y85468D01*
X384716D01*
X384060Y84812D01*
X292844Y81188D02*
Y83812D01*
X292188Y84468D01*
X290876D01*
X290220Y83812D01*
Y81188D01*
X290876Y80532D01*
X292188D01*
X291532Y81844D02*
X292844Y80532D01*
X292188D02*
X292844Y81188D01*
X296124Y80532D02*
Y84468D01*
X294156Y82500D01*
X296780D01*
X20440Y92468D02*
X17817D01*
Y90500D01*
X19128Y91156D01*
X19784D01*
X20440Y90500D01*
Y89188D01*
X19784Y88532D01*
X18473D01*
X17817Y89188D01*
X21752Y92468D02*
Y89844D01*
X23064Y88532D01*
X24376Y89844D01*
Y92468D01*
X27656D02*
X26344D01*
X25688Y91812D01*
Y89188D01*
X26344Y88532D01*
X27656D01*
X28312Y89188D01*
Y91812D01*
X27656Y92468D01*
X29624D02*
Y89188D01*
X30280Y88532D01*
X31592D01*
X32248Y89188D01*
Y92468D01*
X33560D02*
X36183D01*
X34872D01*
Y88532D01*
X34752Y125532D02*
Y129468D01*
X36720D01*
X37376Y128812D01*
Y127500D01*
X36720Y126844D01*
X34752D01*
X36064D02*
X37376Y125532D01*
X41312D02*
X38688D01*
X41312Y128156D01*
Y128812D01*
X40656Y129468D01*
X39344D01*
X38688Y128812D01*
X45248Y129468D02*
X42624D01*
Y127500D01*
X43936Y128156D01*
X44592D01*
X45248Y127500D01*
Y126188D01*
X44592Y125532D01*
X43280D01*
X42624Y126188D01*
X122502Y92499D02*
X124502D01*
X123502D01*
Y86501D01*
X122502D01*
X124502D01*
X131500Y91499D02*
X130500Y92499D01*
X128500D01*
X127501Y91499D01*
Y87501D01*
X128500Y86501D01*
X130500D01*
X131500Y87501D01*
X137498Y86501D02*
X133499D01*
X137498Y90500D01*
Y91499D01*
X136498Y92499D01*
X134499D01*
X133499Y91499D01*
X255000Y179998D02*
X256999D01*
X256000D01*
Y174000D01*
X255000D01*
X256999D01*
X263997Y178998D02*
X262997Y179998D01*
X260998D01*
X259998Y178998D01*
Y175000D01*
X260998Y174000D01*
X262997D01*
X263997Y175000D01*
X265996Y174000D02*
X267996D01*
X266996D01*
Y179998D01*
X265996Y178998D01*
X14344Y59968D02*
X13032D01*
X13688D01*
Y56688D01*
X13032Y56032D01*
X12376D01*
X11720Y56688D01*
X18280Y56032D02*
X15656D01*
X18280Y58656D01*
Y59312D01*
X17624Y59968D01*
X16312D01*
X15656Y59312D01*
X205700Y81900D02*
Y87898D01*
X208699D01*
X209699Y86898D01*
Y84899D01*
X208699Y83899D01*
X205700D01*
X207699D02*
X209699Y81900D01*
X215697D02*
X211698D01*
X215697Y85899D01*
Y86898D01*
X214697Y87898D01*
X212698D01*
X211698Y86898D01*
X220695Y81900D02*
Y87898D01*
X217696Y84899D01*
X221695D01*
X182300Y82000D02*
Y87998D01*
X185299D01*
X186299Y86998D01*
Y84999D01*
X185299Y83999D01*
X182300D01*
X184299D02*
X186299Y82000D01*
X192297D02*
X188298D01*
X192297Y85999D01*
Y86998D01*
X191297Y87998D01*
X189298D01*
X188298Y86998D01*
X194296Y82000D02*
X196295D01*
X195296D01*
Y87998D01*
X194296Y86998D01*
X360080Y132032D02*
Y135968D01*
X362048D01*
X362704Y135312D01*
Y134000D01*
X362048Y133344D01*
X360080D01*
X361392D02*
X362704Y132032D01*
X364016D02*
X365328D01*
X364672D01*
Y135968D01*
X364016Y135312D01*
X367296D02*
X367952Y135968D01*
X369264D01*
X369920Y135312D01*
Y134656D01*
X369264Y134000D01*
X369920Y133344D01*
Y132688D01*
X369264Y132032D01*
X367952D01*
X367296Y132688D01*
Y133344D01*
X367952Y134000D01*
X367296Y134656D01*
Y135312D01*
X367952Y134000D02*
X369264D01*
X350580Y173032D02*
Y176968D01*
X352548D01*
X353204Y176312D01*
Y175000D01*
X352548Y174344D01*
X350580D01*
X351892D02*
X353204Y173032D01*
X354516D02*
X355828D01*
X355172D01*
Y176968D01*
X354516Y176312D01*
X357796Y176968D02*
X360420D01*
Y176312D01*
X357796Y173688D01*
Y173032D01*
X234300Y175500D02*
Y181498D01*
X237299D01*
X238299Y180498D01*
Y178499D01*
X237299Y177499D01*
X234300D01*
X236299D02*
X238299Y175500D01*
X240298Y176500D02*
X241298Y175500D01*
X243297D01*
X244297Y176500D01*
Y180498D01*
X243297Y181498D01*
X241298D01*
X240298Y180498D01*
Y179499D01*
X241298Y178499D01*
X244297D01*
X182000Y196200D02*
Y202198D01*
X184999D01*
X185999Y201198D01*
Y199199D01*
X184999Y198199D01*
X182000D01*
X183999D02*
X185999Y196200D01*
X191997Y202198D02*
X187998D01*
Y199199D01*
X189997Y200199D01*
X190997D01*
X191997Y199199D01*
Y197200D01*
X190997Y196200D01*
X188998D01*
X187998Y197200D01*
X330699Y171400D02*
Y175398D01*
X329699Y176398D01*
X327700D01*
X326700Y175398D01*
Y171400D01*
X327700Y170400D01*
X329699D01*
X328699Y172399D02*
X330699Y170400D01*
X329699D02*
X330699Y171400D01*
X332698Y175398D02*
X333698Y176398D01*
X335697D01*
X336697Y175398D01*
Y174399D01*
X335697Y173399D01*
X334697D01*
X335697D01*
X336697Y172399D01*
Y171400D01*
X335697Y170400D01*
X333698D01*
X332698Y171400D01*
X72899Y197500D02*
Y201498D01*
X71899Y202498D01*
X69900D01*
X68900Y201498D01*
Y197500D01*
X69900Y196500D01*
X71899D01*
X70899Y198499D02*
X72899Y196500D01*
X71899D02*
X72899Y197500D01*
X78897Y196500D02*
X74898D01*
X78897Y200499D01*
Y201498D01*
X77897Y202498D01*
X75898D01*
X74898Y201498D01*
X107699Y233800D02*
Y237798D01*
X106699Y238798D01*
X104700D01*
X103700Y237798D01*
Y233800D01*
X104700Y232800D01*
X106699D01*
X105699Y234799D02*
X107699Y232800D01*
X106699D02*
X107699Y233800D01*
X109698Y232800D02*
X111697D01*
X110698D01*
Y238798D01*
X109698Y237798D01*
X195002Y204501D02*
Y210499D01*
X197001Y208500D01*
X199000Y210499D01*
Y204501D01*
X204998D02*
X201000D01*
X204998Y208500D01*
Y209499D01*
X203999Y210499D01*
X201999D01*
X201000Y209499D01*
X194501Y143501D02*
Y149499D01*
X196501Y147500D01*
X198500Y149499D01*
Y143501D01*
X200499D02*
X202499D01*
X201499D01*
Y149499D01*
X200499Y148499D01*
X44500Y256499D02*
X42501D01*
X43500D01*
Y251501D01*
X42501Y250501D01*
X41501D01*
X40501Y251501D01*
X46499Y250501D02*
X48499D01*
X47499D01*
Y256499D01*
X46499Y255499D01*
X164799Y177498D02*
X163799Y178498D01*
X161800D01*
X160800Y177498D01*
Y173500D01*
X161800Y172500D01*
X163799D01*
X164799Y173500D01*
X170797Y172500D02*
X166798D01*
X170797Y176499D01*
Y177498D01*
X169797Y178498D01*
X167798D01*
X166798Y177498D01*
X172796Y172500D02*
X174795D01*
X173796D01*
Y178498D01*
X172796Y177498D01*
X162860Y25812D02*
X162204Y26468D01*
X160892D01*
X160236Y25812D01*
Y23188D01*
X160892Y22532D01*
X162204D01*
X162860Y23188D01*
X164172Y22532D02*
X165484D01*
X164828D01*
Y26468D01*
X164172Y25812D01*
X167452Y22532D02*
X168764D01*
X168108D01*
Y26468D01*
X167452Y25812D01*
X310299Y178498D02*
X309299Y179498D01*
X307300D01*
X306300Y178498D01*
Y174500D01*
X307300Y173500D01*
X309299D01*
X310299Y174500D01*
X312298D02*
X313298Y173500D01*
X315297D01*
X316297Y174500D01*
Y178498D01*
X315297Y179498D01*
X313298D01*
X312298Y178498D01*
Y177499D01*
X313298Y176499D01*
X316297D01*
X235899Y130598D02*
X234899Y131598D01*
X232900D01*
X231900Y130598D01*
Y126600D01*
X232900Y125600D01*
X234899D01*
X235899Y126600D01*
X241897Y131598D02*
X237898D01*
Y128599D01*
X239897Y129599D01*
X240897D01*
X241897Y128599D01*
Y126600D01*
X240897Y125600D01*
X238898D01*
X237898Y126600D01*
X210399Y130598D02*
X209399Y131598D01*
X207400D01*
X206400Y130598D01*
Y126600D01*
X207400Y125600D01*
X209399D01*
X210399Y126600D01*
X215397Y125600D02*
Y131598D01*
X212398Y128599D01*
X216397D01*
X123999Y194698D02*
X122999Y195698D01*
X121000D01*
X120000Y194698D01*
Y190700D01*
X121000Y189700D01*
X122999D01*
X123999Y190700D01*
X129997Y189700D02*
X125998D01*
X129997Y193699D01*
Y194698D01*
X128997Y195698D01*
X126998D01*
X125998Y194698D01*
X73399Y236398D02*
X72399Y237398D01*
X70400D01*
X69400Y236398D01*
Y232400D01*
X70400Y231400D01*
X72399D01*
X73399Y232400D01*
X75398Y231400D02*
X77397D01*
X76398D01*
Y237398D01*
X75398Y236398D01*
X324677Y23968D02*
Y20032D01*
X326645D01*
X327301Y20688D01*
Y21344D01*
X326645Y22000D01*
X324677D01*
X326645D01*
X327301Y22656D01*
Y23312D01*
X326645Y23968D01*
X324677D01*
X328612Y22656D02*
Y20688D01*
X329268Y20032D01*
X331236D01*
Y22656D01*
X332548D02*
X335172D01*
X332548Y20032D01*
X335172D01*
X336484Y22656D02*
X339108D01*
X336484Y20032D01*
X339108D01*
X342388D02*
X341076D01*
X340420Y20688D01*
Y22000D01*
X341076Y22656D01*
X342388D01*
X343043Y22000D01*
Y21344D01*
X340420D01*
X344355Y22656D02*
Y20032D01*
Y21344D01*
X345011Y22000D01*
X345667Y22656D01*
X346323D01*
M02*
