G04*
G04 #@! TF.GenerationSoftware,Altium Limited,Altium Designer,25.8.1 (18)*
G04*
G04 Layer_Color=32768*
%FSLAX25Y25*%
%MOIN*%
G70*
G04*
G04 #@! TF.SameCoordinates,72C839A6-74C3-439F-BF33-F4790D7700C6*
G04*
G04*
G04 #@! TF.FilePolarity,Positive*
G04*
G01*
G75*
%ADD10C,0.00394*%
%ADD11C,0.00787*%
%ADD76C,0.00197*%
D10*
X90881Y123330D02*
Y156598D01*
X59778Y123330D02*
X90881D01*
X59778D02*
Y156598D01*
X90881D01*
X305598Y215622D02*
X380402D01*
Y319953D01*
X305598D02*
X380402D01*
X305598Y215622D02*
Y319953D01*
X227098Y215622D02*
X301902D01*
Y319953D01*
X227098D02*
X301902D01*
X227098Y215622D02*
Y319953D01*
X172189Y94957D02*
X195811D01*
Y132358D01*
X172189D02*
X195811D01*
X172189Y94957D02*
Y132358D01*
X139500Y209032D02*
Y212968D01*
X137531Y211000D02*
X141469D01*
X162837Y217480D02*
Y221417D01*
X160869Y219449D02*
X164806D01*
X86500Y101532D02*
Y105468D01*
X84531Y103500D02*
X88468D01*
X138500Y101532D02*
Y105468D01*
X136531Y103500D02*
X140469D01*
X363563Y168437D02*
X381437D01*
X363563Y145563D02*
Y168437D01*
Y145563D02*
X381437D01*
Y168437D01*
X120031Y251000D02*
X123969D01*
X122000Y249031D02*
Y252969D01*
X37000Y175531D02*
Y179469D01*
X35032Y177500D02*
X38969D01*
X354283Y119551D02*
X387551D01*
Y88449D02*
Y119551D01*
X354283Y88449D02*
X387551D01*
X354283D02*
Y119551D01*
X20563Y21921D02*
Y62079D01*
Y21921D02*
X88437D01*
Y62079D01*
X20563D02*
X88437D01*
X135063Y19563D02*
Y37437D01*
Y19563D02*
X157937D01*
Y37437D01*
X135063D02*
X157937D01*
X14000Y199063D02*
X64394D01*
Y246937D01*
X14000D02*
X64394D01*
X14000Y199063D02*
Y246937D01*
X68563Y228197D02*
X96437D01*
Y207803D02*
Y228197D01*
X68563Y207803D02*
X96437D01*
X68563D02*
Y228197D01*
X205563Y99563D02*
Y122437D01*
X223437D01*
Y99563D02*
Y122437D01*
X205563Y99563D02*
X223437D01*
X231063D02*
Y122437D01*
X248937D01*
Y99563D02*
Y122437D01*
X231063Y99563D02*
X248937D01*
D11*
X334500Y27453D02*
G03*
X334500Y91232I0J31890D01*
G01*
D02*
G03*
X334500Y27453I0J-31890D01*
G01*
X109331Y48429D02*
Y79571D01*
X100669Y48429D02*
X109331D01*
X100669D02*
Y79571D01*
X109331D01*
X284071Y108169D02*
Y116831D01*
X252929D02*
X284071D01*
X252929Y108169D02*
Y116831D01*
Y108169D02*
X284071D01*
X319071D02*
Y116831D01*
X287929D02*
X319071D01*
X287929Y108169D02*
Y116831D01*
Y108169D02*
X319071D01*
X267429Y51669D02*
Y60331D01*
Y51669D02*
X298571D01*
Y60331D01*
X267429D02*
X298571D01*
X262331Y52929D02*
Y84071D01*
X253669Y52929D02*
X262331D01*
X253669D02*
Y84071D01*
X262331D01*
X242315Y54402D02*
Y79598D01*
X231685Y54402D02*
X242315D01*
X231685D02*
Y79598D01*
X242315D01*
X91571Y70169D02*
Y78831D01*
X60429D02*
X91571D01*
X60429Y70169D02*
Y78831D01*
Y70169D02*
X91571D01*
X20929Y78831D02*
X52071D01*
Y70169D02*
Y78831D01*
X20929Y70169D02*
X52071D01*
X20929D02*
Y78831D01*
X151524Y124252D02*
Y135748D01*
X101476D02*
X151524D01*
X101476Y124252D02*
Y135748D01*
Y124252D02*
X151524D01*
X151024Y148752D02*
Y160248D01*
X100976D02*
X151024D01*
X100976Y148752D02*
Y160248D01*
Y148752D02*
X151024D01*
X253429Y103831D02*
X284571D01*
Y95169D02*
Y103831D01*
X253429Y95169D02*
X284571D01*
X253429D02*
Y103831D01*
X287929Y95169D02*
X319071D01*
X287929D02*
Y103831D01*
X319071D01*
Y95169D02*
Y103831D01*
X311929Y121169D02*
X343071D01*
X311929D02*
Y129831D01*
X343071D01*
Y121169D02*
Y129831D01*
X346929Y191669D02*
X378071D01*
X346929D02*
Y200331D01*
X378071D01*
Y191669D02*
Y200331D01*
X307402Y191185D02*
X332598D01*
X307402D02*
Y201815D01*
X332598D01*
Y191185D02*
Y201815D01*
X262929Y193169D02*
X294071D01*
X262929D02*
Y201831D01*
X294071D01*
Y193169D02*
Y201831D01*
X223929Y193169D02*
X255071D01*
X223929D02*
Y201831D01*
X255071D01*
Y193169D02*
Y201831D01*
X182429Y251831D02*
X213571D01*
Y243169D02*
Y251831D01*
X182429Y243169D02*
X213571D01*
X182429D02*
Y251831D01*
X92429Y27669D02*
X123571D01*
X92429D02*
Y36331D01*
X123571D01*
Y27669D02*
Y36331D01*
X180929Y32331D02*
X212071D01*
Y23669D02*
Y32331D01*
X180929Y23669D02*
X212071D01*
X180929D02*
Y32331D01*
X24429Y122331D02*
X55571D01*
Y113669D02*
Y122331D01*
X24429Y113669D02*
X55571D01*
X24429D02*
Y122331D01*
X350169Y139429D02*
X358831D01*
Y170571D01*
X350169D02*
X358831D01*
X350169Y139429D02*
Y170571D01*
X205083Y47343D02*
Y78484D01*
X213744D01*
Y47343D02*
Y78484D01*
X205083Y47343D02*
X213744D01*
X349929Y121169D02*
X381071D01*
X349929D02*
Y129831D01*
X381071D01*
Y121169D02*
Y129831D01*
X178602Y152539D02*
Y172343D01*
X222398D01*
Y152539D02*
Y172343D01*
X178602Y152539D02*
X222398D01*
X178102Y214098D02*
Y233902D01*
X221898D01*
Y214098D02*
Y233902D01*
X178102Y214098D02*
X221898D01*
X305685Y144902D02*
X316315D01*
Y170098D01*
X305685D02*
X316315D01*
X305685Y144902D02*
Y170098D01*
X144598Y175685D02*
Y186315D01*
X119402D02*
X144598D01*
X119402Y175685D02*
Y186315D01*
Y175685D02*
X144598D01*
X233669Y140929D02*
X242331D01*
Y172071D01*
X233669D02*
X242331D01*
X233669Y140929D02*
Y172071D01*
X103110Y229390D02*
X126890D01*
X103110Y205610D02*
Y229390D01*
Y205610D02*
X126890D01*
Y229390D01*
X160185Y169098D02*
X170815D01*
X160185Y143902D02*
Y169098D01*
Y143902D02*
X170815D01*
Y169098D01*
X181429Y184169D02*
Y192831D01*
Y184169D02*
X212571D01*
Y192831D01*
X181429D02*
X212571D01*
X181669Y78571D02*
X190331D01*
X181669Y47429D02*
Y78571D01*
Y47429D02*
X190331D01*
Y78571D01*
D76*
X134382Y190232D02*
X144618D01*
Y231768D01*
X134382Y190232D02*
Y231768D01*
X144618D01*
X171085Y186772D02*
Y252126D01*
X154589D02*
X171085D01*
X154589Y186772D02*
X171085D01*
X154589D02*
Y252126D01*
X107268Y98382D02*
Y108618D01*
X65732D02*
X107268D01*
X65732Y98382D02*
X107268D01*
X65732D02*
Y108618D01*
X117732Y98382D02*
Y108618D01*
Y98382D02*
X159268D01*
X117732Y108618D02*
X159268D01*
Y98382D02*
Y108618D01*
X101232Y245882D02*
Y256118D01*
Y245882D02*
X142768D01*
X101232Y256118D02*
X142768D01*
Y245882D02*
Y256118D01*
X71516Y242516D02*
X93484D01*
Y254484D01*
X71516D02*
X93484D01*
X71516Y242516D02*
Y254484D01*
X52146Y127402D02*
Y152598D01*
X16516D02*
X52146D01*
X16516Y127402D02*
Y152598D01*
Y127402D02*
X52146D01*
X371016Y45016D02*
X382984D01*
X371016D02*
Y66984D01*
X382984D01*
Y45016D02*
Y66984D01*
X269736Y86323D02*
X289264D01*
X269736Y71342D02*
Y86000D01*
X289264Y71342D02*
Y86323D01*
X269736Y71342D02*
X289264D01*
X16016Y94016D02*
Y105984D01*
X37984D01*
Y94016D02*
Y105984D01*
X16016Y94016D02*
X37984D01*
X325842Y147736D02*
Y167264D01*
Y147736D02*
X340823D01*
X325842Y167264D02*
X340500D01*
X340823Y147736D02*
Y167264D01*
X122122Y84878D02*
X164878D01*
X122122Y42122D02*
Y84878D01*
Y42122D02*
X164878D01*
Y84878D01*
X296878Y128122D02*
Y170878D01*
X254122Y128122D02*
X296878D01*
X254122D02*
Y170878D01*
X296878D01*
X68012Y193386D02*
X111988D01*
Y172913D02*
Y193386D01*
X68012Y172913D02*
X111988D01*
X68012D02*
Y193386D01*
M02*
