G04*
G04 #@! TF.GenerationSoftware,Altium Limited,Altium Designer,25.8.1 (18)*
G04*
G04 Layer_Color=0*
%FSLAX25Y25*%
%MOIN*%
G70*
G04*
G04 #@! TF.SameCoordinates,72C839A6-74C3-439F-BF33-F4790D7700C6*
G04*
G04*
G04 #@! TF.FilePolarity,Positive*
G04*
G01*
G75*
%ADD10C,0.00394*%
D10*
X105000Y62032D02*
Y65969D01*
X103032Y64000D02*
X106968D01*
X268500Y110531D02*
Y114469D01*
X266531Y112500D02*
X270468D01*
X303500Y110531D02*
Y114469D01*
X301532Y112500D02*
X305469D01*
X283000Y54031D02*
Y57968D01*
X281031Y56000D02*
X284968D01*
X258000Y66531D02*
Y70468D01*
X256031Y68500D02*
X259968D01*
X237000Y65031D02*
Y68968D01*
X235032Y67000D02*
X238968D01*
X76000Y72531D02*
Y76468D01*
X74032Y74500D02*
X77969D01*
X34532D02*
X38469D01*
X36500Y72531D02*
Y76468D01*
X126500Y128032D02*
Y131968D01*
X124531Y130000D02*
X128469D01*
X126000Y152532D02*
Y156468D01*
X124031Y154500D02*
X127969D01*
X267032Y99500D02*
X270969D01*
X269000Y97531D02*
Y101469D01*
X301532Y99500D02*
X305469D01*
X303500Y97531D02*
Y101469D01*
X325532Y125500D02*
X329468D01*
X327500Y123531D02*
Y127469D01*
X360531Y196000D02*
X364469D01*
X362500Y194032D02*
Y197968D01*
X318032Y196500D02*
X321969D01*
X320000Y194532D02*
Y198468D01*
X276532Y197500D02*
X280469D01*
X278500Y195531D02*
Y199469D01*
X237531Y197500D02*
X241469D01*
X239500Y195531D02*
Y199469D01*
X196031Y247500D02*
X199969D01*
X198000Y245532D02*
Y249468D01*
X106032Y32000D02*
X109968D01*
X108000Y30031D02*
Y33968D01*
X194532Y28000D02*
X198468D01*
X196500Y26032D02*
Y29969D01*
X38032Y118000D02*
X41969D01*
X40000Y116032D02*
Y119968D01*
X352532Y155000D02*
X356469D01*
X354500Y153032D02*
Y156968D01*
X209413Y60945D02*
Y64882D01*
X207445Y62913D02*
X211382D01*
X332531Y59342D02*
X336469D01*
X334500Y57374D02*
Y61311D01*
X363531Y125500D02*
X367469D01*
X365500Y123531D02*
Y127469D01*
X200500Y160472D02*
Y164409D01*
X198531Y162441D02*
X202468D01*
X200000Y222031D02*
Y225969D01*
X198031Y224000D02*
X201969D01*
X309032Y157500D02*
X312968D01*
X311000Y155532D02*
Y159468D01*
X132000Y179032D02*
Y182968D01*
X130032Y181000D02*
X133968D01*
X236032Y156500D02*
X239968D01*
X238000Y154532D02*
Y158468D01*
X113031Y217500D02*
X116969D01*
X115000Y215531D02*
Y219468D01*
X163531Y156500D02*
X167469D01*
X165500Y154532D02*
Y158468D01*
X197000Y186531D02*
Y190469D01*
X195031Y188500D02*
X198969D01*
X184031Y63000D02*
X187969D01*
X186000Y61032D02*
Y64969D01*
M02*
