G04*
G04 #@! TF.GenerationSoftware,Altium Limited,Altium Designer,25.8.1 (18)*
G04*
G04 Layer_Physical_Order=1*
G04 Layer_Color=255*
%FSLAX25Y25*%
%MOIN*%
G70*
G04*
G04 #@! TF.SameCoordinates,72C839A6-74C3-439F-BF33-F4790D7700C6*
G04*
G04*
G04 #@! TF.FilePolarity,Positive*
G04*
G01*
G75*
%ADD14C,0.01000*%
%ADD15C,0.04528*%
%ADD16R,0.04528X0.04528*%
%ADD20R,0.04528X0.04528*%
%ADD26R,0.04724X0.04724*%
%ADD27C,0.04724*%
%ADD29R,0.06299X0.06299*%
%ADD30C,0.06299*%
%ADD32R,0.04724X0.04724*%
%ADD44C,0.08071*%
%ADD45R,0.08071X0.08071*%
%ADD49C,0.05512*%
%ADD50R,0.05512X0.05512*%
%ADD52C,0.05906*%
%ADD53C,0.08268*%
%ADD54R,0.08268X0.08268*%
%ADD55C,0.05315*%
%ADD56R,0.05315X0.05315*%
%ADD57R,0.05315X0.05315*%
%ADD58C,0.04791*%
%ADD59C,0.06496*%
%ADD60R,0.06496X0.06496*%
%ADD61R,0.06693X0.06693*%
%ADD62C,0.06693*%
%ADD63R,0.06496X0.06496*%
%ADD64C,0.06000*%
%ADD65C,0.04134*%
%ADD66R,0.04134X0.04134*%
%ADD67C,0.09449*%
%ADD68C,0.08091*%
%ADD69R,0.04134X0.04134*%
%ADD70C,0.05181*%
%ADD71C,0.06201*%
%ADD72R,0.06201X0.06201*%
%ADD73C,0.07677*%
%ADD74C,0.15748*%
%ADD75R,0.08091X0.08091*%
G36*
X389500Y261000D02*
Y28500D01*
X377000Y16000D01*
X19000D01*
X9500Y25500D01*
Y258500D01*
X19500Y268500D01*
X382000D01*
X389500Y261000D01*
D02*
G37*
%LPC*%
G36*
X27874Y266374D02*
X26126D01*
X24411Y266033D01*
X22797Y265364D01*
X21343Y264393D01*
X20107Y263157D01*
X19136Y261703D01*
X18467Y260088D01*
X18126Y258374D01*
Y256626D01*
X18467Y254911D01*
X19136Y253297D01*
X20107Y251843D01*
X21343Y250607D01*
X22797Y249636D01*
X24411Y248967D01*
X26126Y248626D01*
X27874D01*
X29588Y248967D01*
X31203Y249636D01*
X32657Y250607D01*
X33893Y251843D01*
X34864Y253297D01*
X35533Y254911D01*
X35874Y256626D01*
Y258374D01*
X35533Y260088D01*
X34864Y261703D01*
X33893Y263157D01*
X32657Y264393D01*
X31203Y265364D01*
X29588Y266033D01*
X27874Y266374D01*
D02*
G37*
G36*
X211413Y250745D02*
Y248000D01*
X214158D01*
X213955Y248760D01*
X213525Y249504D01*
X212917Y250112D01*
X212173Y250541D01*
X211413Y250745D01*
D02*
G37*
G36*
X210413D02*
X209654Y250541D01*
X208909Y250112D01*
X208302Y249504D01*
X207872Y248760D01*
X207668Y248000D01*
X210413D01*
Y250745D01*
D02*
G37*
G36*
X140198Y254658D02*
X139235D01*
X138305Y254408D01*
X137471Y253927D01*
X136790Y253246D01*
X136308Y252412D01*
X136059Y251482D01*
Y250518D01*
X136308Y249588D01*
X136790Y248754D01*
X137471Y248073D01*
X138305Y247592D01*
X139235Y247342D01*
X140198D01*
X141128Y247592D01*
X141962Y248073D01*
X142643Y248754D01*
X143125Y249588D01*
X143374Y250518D01*
Y251482D01*
X143125Y252412D01*
X142643Y253246D01*
X141962Y253927D01*
X141128Y254408D01*
X140198Y254658D01*
D02*
G37*
G36*
X163332Y252732D02*
X162343D01*
X161388Y252476D01*
X160531Y251982D01*
X159832Y251283D01*
X159337Y250426D01*
X159081Y249471D01*
Y248482D01*
X159314Y247616D01*
X149419Y237720D01*
X149087Y237224D01*
X148971Y236639D01*
Y175134D01*
X130419Y156581D01*
X130087Y156085D01*
X129971Y155500D01*
Y150000D01*
X130087Y149415D01*
X130419Y148919D01*
X137419Y141919D01*
X137915Y141587D01*
X138500Y141471D01*
X147866D01*
X153471Y135866D01*
Y121999D01*
X152547Y121616D01*
X149511Y124652D01*
Y125850D01*
X152131D01*
Y134150D01*
X143832D01*
Y125850D01*
X146452D01*
Y124019D01*
X146568Y123434D01*
X146900Y122938D01*
X161471Y108367D01*
Y98633D01*
X160366Y97529D01*
X65500D01*
X64915Y97413D01*
X64419Y97081D01*
X55419Y88081D01*
X55087Y87585D01*
X54971Y87000D01*
Y69634D01*
X51867Y66529D01*
X39500D01*
X38915Y66413D01*
X38419Y66081D01*
X33419Y61081D01*
X33087Y60585D01*
X32971Y60000D01*
Y46600D01*
X32632Y46509D01*
X31529Y45872D01*
X30628Y44971D01*
X29991Y43868D01*
X29661Y42637D01*
Y41363D01*
X29991Y40132D01*
X30628Y39029D01*
X31529Y38128D01*
X32632Y37491D01*
X33863Y37161D01*
X35137D01*
X36368Y37491D01*
X37471Y38128D01*
X38372Y39029D01*
X39009Y40132D01*
X39339Y41363D01*
Y42637D01*
X39009Y43868D01*
X38372Y44971D01*
X37471Y45872D01*
X36368Y46509D01*
X36029Y46600D01*
Y59367D01*
X40134Y63471D01*
X52500D01*
X53085Y63587D01*
X53581Y63919D01*
X57581Y67919D01*
X57913Y68415D01*
X58029Y69000D01*
Y86366D01*
X66133Y94471D01*
X99501D01*
X99884Y93547D01*
X92919Y86581D01*
X92587Y86085D01*
X92471Y85500D01*
Y78642D01*
X92177Y77764D01*
X91471Y77764D01*
X85650D01*
Y71236D01*
X91471D01*
X92177Y71236D01*
X92471Y70358D01*
Y69779D01*
X91721Y69029D01*
X61000D01*
X60415Y68913D01*
X59919Y68581D01*
X53419Y62081D01*
X53087Y61585D01*
X52971Y61000D01*
Y46600D01*
X52632Y46509D01*
X51529Y45872D01*
X50628Y44971D01*
X49991Y43868D01*
X49661Y42637D01*
Y41363D01*
X49991Y40132D01*
X50628Y39029D01*
X51529Y38128D01*
X52632Y37491D01*
X53863Y37161D01*
X55137D01*
X56368Y37491D01*
X57471Y38128D01*
X58372Y39029D01*
X59009Y40132D01*
X59339Y41363D01*
Y42637D01*
X59009Y43868D01*
X58372Y44971D01*
X57471Y45872D01*
X56368Y46509D01*
X56029Y46600D01*
Y60366D01*
X61633Y65971D01*
X74501D01*
X74884Y65047D01*
X73419Y63581D01*
X73087Y63085D01*
X72971Y62500D01*
Y46600D01*
X72632Y46509D01*
X71529Y45872D01*
X70628Y44971D01*
X69991Y43868D01*
X69661Y42637D01*
Y41363D01*
X69991Y40132D01*
X70628Y39029D01*
X71529Y38128D01*
X72632Y37491D01*
X73863Y37161D01*
X75137D01*
X76368Y37491D01*
X77471Y38128D01*
X78372Y39029D01*
X79009Y40132D01*
X79339Y41363D01*
Y42637D01*
X79009Y43868D01*
X78372Y44971D01*
X77471Y45872D01*
X76368Y46509D01*
X76029Y46600D01*
Y61866D01*
X77634Y63471D01*
X93500D01*
X94085Y63587D01*
X94581Y63919D01*
X98081Y67419D01*
X98413Y67915D01*
X98529Y68500D01*
Y83367D01*
X105633Y90471D01*
X152001D01*
X152384Y89547D01*
X147419Y84581D01*
X147087Y84085D01*
X146971Y83500D01*
Y82335D01*
X146917Y82321D01*
X145982Y81781D01*
X145219Y81018D01*
X144679Y80083D01*
X144400Y79040D01*
Y77960D01*
X144679Y76917D01*
X145219Y75982D01*
X145982Y75219D01*
X146917Y74679D01*
X147960Y74400D01*
X149040D01*
X150083Y74679D01*
X151018Y75219D01*
X151781Y75982D01*
X152321Y76917D01*
X152600Y77960D01*
Y79040D01*
X152321Y80083D01*
X151781Y81018D01*
X151018Y81781D01*
X150519Y82069D01*
X150381Y83178D01*
X150403Y83240D01*
X155633Y88471D01*
X173402D01*
X173473Y87500D01*
X172456Y87227D01*
X171544Y86701D01*
X170799Y85956D01*
X170273Y85044D01*
X170000Y84027D01*
Y82973D01*
X170273Y81956D01*
X170799Y81044D01*
X171544Y80299D01*
X172456Y79773D01*
X173473Y79500D01*
X174527D01*
X175544Y79773D01*
X176456Y80299D01*
X177201Y81044D01*
X177727Y81956D01*
X178000Y82973D01*
Y84027D01*
X177727Y85044D01*
X177201Y85956D01*
X176456Y86701D01*
X175544Y87227D01*
X174527Y87500D01*
X174598Y88471D01*
X328500D01*
X329085Y88587D01*
X329581Y88919D01*
X338374Y97711D01*
X338706Y98208D01*
X338822Y98793D01*
Y101722D01*
X339822Y102138D01*
X340456Y101773D01*
X341473Y101500D01*
X342527D01*
X343544Y101773D01*
X344456Y102299D01*
X345201Y103044D01*
X345727Y103956D01*
X346000Y104973D01*
Y106027D01*
X345727Y107044D01*
X345201Y107956D01*
X344456Y108701D01*
X343544Y109227D01*
X343529Y109231D01*
Y110721D01*
X346250D01*
X346835Y110837D01*
X347331Y111169D01*
X353134Y116971D01*
X377828D01*
X378413Y117087D01*
X378909Y117419D01*
X379495Y118004D01*
X379826Y118500D01*
X379943Y119086D01*
Y122236D01*
X381677D01*
Y128764D01*
X375150D01*
Y122236D01*
X376884D01*
Y120029D01*
X352500D01*
X351915Y119913D01*
X351419Y119581D01*
X345617Y113779D01*
X340836D01*
X340250Y113663D01*
X339754Y113331D01*
X336211Y109789D01*
X335880Y109292D01*
X335764Y108707D01*
Y99426D01*
X327867Y91529D01*
X165999D01*
X165616Y92453D01*
X168081Y94919D01*
X168413Y95415D01*
X168529Y96000D01*
Y111000D01*
X168413Y111585D01*
X168081Y112081D01*
X158529Y121634D01*
Y137500D01*
X158413Y138085D01*
X158081Y138581D01*
X149011Y147652D01*
Y150350D01*
X151631D01*
Y158650D01*
X143332D01*
Y150350D01*
X145952D01*
Y147019D01*
X146068Y146434D01*
X146400Y145938D01*
X146884Y145453D01*
X146501Y144529D01*
X139134D01*
X133029Y150634D01*
Y154867D01*
X151581Y173419D01*
X151913Y173915D01*
X152029Y174500D01*
Y236005D01*
X161477Y245453D01*
X162343Y245220D01*
X163332D01*
X164287Y245476D01*
X165144Y245971D01*
X165843Y246670D01*
X166337Y247527D01*
X166593Y248482D01*
Y249471D01*
X166337Y250426D01*
X165843Y251283D01*
X165144Y251982D01*
X164287Y252476D01*
X163332Y252732D01*
D02*
G37*
G36*
X214158Y247000D02*
X211413D01*
Y244255D01*
X212173Y244459D01*
X212917Y244888D01*
X213525Y245496D01*
X213955Y246240D01*
X214158Y247000D01*
D02*
G37*
G36*
X210413D02*
X207668D01*
X207872Y246240D01*
X208302Y245496D01*
X208909Y244888D01*
X209654Y244459D01*
X210413Y244255D01*
Y247000D01*
D02*
G37*
G36*
X88059Y252748D02*
X86941D01*
X85860Y252459D01*
X84892Y251899D01*
X84101Y251108D01*
X83542Y250140D01*
X83252Y249059D01*
Y247941D01*
X83542Y246860D01*
X84101Y245892D01*
X84892Y245101D01*
X85860Y244542D01*
X86941Y244252D01*
X88059D01*
X89140Y244542D01*
X90108Y245101D01*
X90899Y245892D01*
X91458Y246860D01*
X91748Y247941D01*
Y249059D01*
X91458Y250140D01*
X90899Y251108D01*
X90108Y251899D01*
X89140Y252459D01*
X88059Y252748D01*
D02*
G37*
G36*
X367819Y247134D02*
X357551D01*
Y236866D01*
X367819D01*
Y247134D01*
D02*
G37*
G36*
X343676D02*
X342324D01*
X341018Y246784D01*
X339848Y246108D01*
X338892Y245152D01*
X338216Y243982D01*
X337866Y242676D01*
Y241324D01*
X338216Y240018D01*
X338892Y238848D01*
X339848Y237892D01*
X341018Y237216D01*
X342324Y236866D01*
X343676D01*
X344982Y237216D01*
X346152Y237892D01*
X347108Y238848D01*
X347784Y240018D01*
X348134Y241324D01*
Y242676D01*
X347784Y243982D01*
X347108Y245152D01*
X346152Y246108D01*
X344982Y246784D01*
X343676Y247134D01*
D02*
G37*
G36*
X323991D02*
X322639D01*
X321333Y246784D01*
X320163Y246108D01*
X319207Y245152D01*
X318531Y243982D01*
X318181Y242676D01*
Y241324D01*
X318531Y240018D01*
X319207Y238848D01*
X320163Y237892D01*
X321333Y237216D01*
X322639Y236866D01*
X323991D01*
X325297Y237216D01*
X326467Y237892D01*
X327423Y238848D01*
X328099Y240018D01*
X328449Y241324D01*
Y242676D01*
X328099Y243982D01*
X327423Y245152D01*
X326467Y246108D01*
X325297Y246784D01*
X323991Y247134D01*
D02*
G37*
G36*
X289319D02*
X279051D01*
Y236866D01*
X289319D01*
Y247134D01*
D02*
G37*
G36*
X265176D02*
X263824D01*
X262518Y246784D01*
X261348Y246108D01*
X260392Y245152D01*
X259716Y243982D01*
X259366Y242676D01*
Y241324D01*
X259716Y240018D01*
X260392Y238848D01*
X261348Y237892D01*
X262518Y237216D01*
X263824Y236866D01*
X265176D01*
X266482Y237216D01*
X267652Y237892D01*
X268608Y238848D01*
X269284Y240018D01*
X269634Y241324D01*
Y242676D01*
X269284Y243982D01*
X268608Y245152D01*
X267652Y246108D01*
X266482Y246784D01*
X265176Y247134D01*
D02*
G37*
G36*
X245491D02*
X244139D01*
X242833Y246784D01*
X241663Y246108D01*
X240707Y245152D01*
X240031Y243982D01*
X239681Y242676D01*
Y241324D01*
X240031Y240018D01*
X240707Y238848D01*
X241663Y237892D01*
X242833Y237216D01*
X244139Y236866D01*
X245491D01*
X246797Y237216D01*
X247967Y237892D01*
X248923Y238848D01*
X249599Y240018D01*
X249949Y241324D01*
Y242676D01*
X249599Y243982D01*
X248923Y245152D01*
X247967Y246108D01*
X246797Y246784D01*
X245491Y247134D01*
D02*
G37*
G36*
X139981Y232374D02*
X139018D01*
X138088Y232125D01*
X137254Y231643D01*
X136573Y230962D01*
X136092Y230128D01*
X135843Y229198D01*
Y228235D01*
X136092Y227305D01*
X136573Y226471D01*
X137254Y225790D01*
X138088Y225308D01*
X139018Y225059D01*
X139981D01*
X140912Y225308D01*
X141746Y225790D01*
X142427Y226471D01*
X142908Y227305D01*
X143157Y228235D01*
Y229198D01*
X142908Y230128D01*
X142427Y230962D01*
X141746Y231643D01*
X140912Y232125D01*
X139981Y232374D01*
D02*
G37*
G36*
X209500Y226594D02*
X209337D01*
X208056Y226251D01*
X206908Y225588D01*
X205971Y224651D01*
X205565Y223949D01*
X204435D01*
X204029Y224651D01*
X203092Y225588D01*
X201944Y226251D01*
X200663Y226594D01*
X199337D01*
X198056Y226251D01*
X196908Y225588D01*
X196035Y224716D01*
X195746Y224742D01*
X195035Y225031D01*
Y226594D01*
X184965D01*
Y216524D01*
X195035D01*
Y218087D01*
X195746Y218376D01*
X196035Y218402D01*
X196908Y217530D01*
X198056Y216867D01*
X199337Y216524D01*
X200663D01*
X201944Y216867D01*
X203092Y217530D01*
X204029Y218467D01*
X204435Y219169D01*
X205565D01*
X205971Y218467D01*
X206908Y217530D01*
X208056Y216867D01*
X209337Y216524D01*
X209500D01*
Y221559D01*
Y226594D01*
D02*
G37*
G36*
X210663D02*
X210500D01*
Y222059D01*
X215035D01*
Y222222D01*
X214692Y223503D01*
X214029Y224651D01*
X213092Y225588D01*
X211944Y226251D01*
X210663Y226594D01*
D02*
G37*
G36*
X78000Y221583D02*
Y218500D01*
X81083D01*
X80846Y219386D01*
X80373Y220205D01*
X79705Y220873D01*
X78886Y221346D01*
X78000Y221583D01*
D02*
G37*
G36*
X77000D02*
X76114Y221346D01*
X75295Y220873D01*
X74627Y220205D01*
X74154Y219386D01*
X73917Y218500D01*
X77000D01*
Y221583D01*
D02*
G37*
G36*
X215035Y221059D02*
X210500D01*
Y216524D01*
X210663D01*
X211944Y216867D01*
X213092Y217530D01*
X214029Y218467D01*
X214692Y219616D01*
X215035Y220896D01*
Y221059D01*
D02*
G37*
G36*
X81083Y217500D02*
X78000D01*
Y214417D01*
X78886Y214654D01*
X79705Y215127D01*
X80373Y215795D01*
X80846Y216614D01*
X81083Y217500D01*
D02*
G37*
G36*
X77000D02*
X73917D01*
X74154Y216614D01*
X74627Y215795D01*
X75295Y215127D01*
X76114Y214654D01*
X77000Y214417D01*
Y217500D01*
D02*
G37*
G36*
X87973Y221590D02*
X87027D01*
X86114Y221346D01*
X85295Y220873D01*
X84627Y220205D01*
X84154Y219386D01*
X83909Y218473D01*
Y217527D01*
X84154Y216614D01*
X84627Y215795D01*
X85295Y215127D01*
X86114Y214654D01*
X87027Y214409D01*
X87973D01*
X88886Y214654D01*
X89705Y215127D01*
X90373Y215795D01*
X90846Y216614D01*
X91091Y217527D01*
Y218473D01*
X90846Y219386D01*
X90373Y220205D01*
X89705Y220873D01*
X88886Y221346D01*
X87973Y221590D01*
D02*
G37*
G36*
X39754Y218724D02*
X39500D01*
Y213500D01*
X44724D01*
Y213754D01*
X44334Y215210D01*
X43581Y216515D01*
X42515Y217581D01*
X41210Y218334D01*
X39754Y218724D01*
D02*
G37*
G36*
X38500D02*
X38246D01*
X36790Y218334D01*
X35485Y217581D01*
X34419Y216515D01*
X33666Y215210D01*
X33276Y213754D01*
Y213500D01*
X38500D01*
Y218724D01*
D02*
G37*
G36*
X44724Y212500D02*
X39500D01*
Y207276D01*
X39754D01*
X41210Y207666D01*
X42515Y208419D01*
X43581Y209485D01*
X44334Y210790D01*
X44724Y212246D01*
Y212500D01*
D02*
G37*
G36*
X38500D02*
X33276D01*
Y212246D01*
X33666Y210790D01*
X34419Y209485D01*
X35485Y208419D01*
X36790Y207666D01*
X38246Y207276D01*
X38500D01*
Y212500D01*
D02*
G37*
G36*
X310658Y199847D02*
Y197000D01*
X313504D01*
X313291Y197798D01*
X312848Y198564D01*
X312222Y199190D01*
X311455Y199633D01*
X310658Y199847D01*
D02*
G37*
G36*
X309658D02*
X308860Y199633D01*
X308093Y199190D01*
X307467Y198564D01*
X307024Y197798D01*
X306811Y197000D01*
X309658D01*
Y199847D01*
D02*
G37*
G36*
X92027Y205000D02*
X90973D01*
X89956Y204727D01*
X89044Y204201D01*
X88299Y203456D01*
X87773Y202544D01*
X87500Y201527D01*
Y200473D01*
X87773Y199456D01*
X88299Y198544D01*
X89044Y197799D01*
X89956Y197273D01*
X90973Y197000D01*
X92027D01*
X93044Y197273D01*
X93956Y197799D01*
X94701Y198544D01*
X94947Y198971D01*
X102866D01*
X104419Y197419D01*
X104915Y197087D01*
X105500Y196971D01*
X111269D01*
X111273Y196956D01*
X111799Y196044D01*
X112544Y195299D01*
X113456Y194773D01*
X114473Y194500D01*
X115527D01*
X116544Y194773D01*
X117456Y195299D01*
X118201Y196044D01*
X118727Y196956D01*
X119000Y197973D01*
Y199027D01*
X118727Y200044D01*
X118201Y200956D01*
X117456Y201701D01*
X116544Y202227D01*
X115527Y202500D01*
X114473D01*
X113456Y202227D01*
X112544Y201701D01*
X111799Y200956D01*
X111273Y200044D01*
X111269Y200029D01*
X106133D01*
X104581Y201581D01*
X104085Y201913D01*
X103500Y202029D01*
X95365D01*
X95227Y202544D01*
X94701Y203456D01*
X93956Y204201D01*
X93044Y204727D01*
X92027Y205000D01*
D02*
G37*
G36*
X266016Y200764D02*
X265157D01*
X264327Y200541D01*
X263583Y200112D01*
X262975Y199504D01*
X262545Y198760D01*
X262323Y197930D01*
Y197070D01*
X262545Y196240D01*
X262975Y195496D01*
X263583Y194888D01*
X264327Y194459D01*
X265157Y194236D01*
X266016D01*
X266846Y194459D01*
X267591Y194888D01*
X268198Y195496D01*
X268628Y196240D01*
X268850Y197070D01*
Y197930D01*
X268628Y198760D01*
X268198Y199504D01*
X267591Y200112D01*
X266846Y200541D01*
X266016Y200764D01*
D02*
G37*
G36*
X255677D02*
X249150D01*
Y194236D01*
X255677D01*
Y200764D01*
D02*
G37*
G36*
X227016D02*
X226157D01*
X225327Y200541D01*
X224583Y200112D01*
X223975Y199504D01*
X223545Y198760D01*
X223323Y197930D01*
Y197070D01*
X223545Y196240D01*
X223975Y195496D01*
X224583Y194888D01*
X225327Y194459D01*
X226157Y194236D01*
X227016D01*
X227846Y194459D01*
X228591Y194888D01*
X229198Y195496D01*
X229628Y196240D01*
X229850Y197070D01*
Y197930D01*
X229628Y198760D01*
X229198Y199504D01*
X228591Y200112D01*
X227846Y200541D01*
X227016Y200764D01*
D02*
G37*
G36*
X143157Y196941D02*
X140000D01*
Y193783D01*
X143157D01*
Y196941D01*
D02*
G37*
G36*
X139000D02*
X135843D01*
Y193783D01*
X139000D01*
Y196941D01*
D02*
G37*
G36*
X313504Y196000D02*
X310658D01*
Y193153D01*
X311455Y193367D01*
X312222Y193810D01*
X312848Y194436D01*
X313291Y195202D01*
X313504Y196000D01*
D02*
G37*
G36*
X309658D02*
X306811D01*
X307024Y195202D01*
X307467Y194436D01*
X308093Y193810D01*
X308860Y193367D01*
X309658Y193153D01*
Y196000D01*
D02*
G37*
G36*
X333205Y199862D02*
X326480D01*
Y193138D01*
X333205D01*
Y199862D01*
D02*
G37*
G36*
X350016Y199264D02*
X349157D01*
X348327Y199041D01*
X347583Y198612D01*
X346975Y198004D01*
X346545Y197260D01*
X346323Y196430D01*
Y195570D01*
X346545Y194740D01*
X346975Y193996D01*
X347583Y193388D01*
X348327Y192959D01*
X349157Y192736D01*
X350016D01*
X350846Y192959D01*
X351591Y193388D01*
X352198Y193996D01*
X352628Y194740D01*
X352850Y195570D01*
Y196430D01*
X352628Y197260D01*
X352198Y198004D01*
X351591Y198612D01*
X350846Y199041D01*
X350016Y199264D01*
D02*
G37*
G36*
X143157Y192783D02*
X140000D01*
Y189626D01*
X143157D01*
Y192783D01*
D02*
G37*
G36*
X139000D02*
X135843D01*
Y189626D01*
X139000D01*
Y192783D01*
D02*
G37*
G36*
X210413Y191745D02*
Y189000D01*
X213158D01*
X212955Y189760D01*
X212525Y190504D01*
X211917Y191112D01*
X211173Y191541D01*
X210413Y191745D01*
D02*
G37*
G36*
X209413D02*
X208654Y191541D01*
X207909Y191112D01*
X207302Y190504D01*
X206872Y189760D01*
X206668Y189000D01*
X209413D01*
Y191745D01*
D02*
G37*
G36*
X163332Y193677D02*
X162343D01*
X161388Y193421D01*
X160531Y192927D01*
X159832Y192227D01*
X159337Y191371D01*
X159081Y190416D01*
Y189427D01*
X159337Y188471D01*
X159832Y187615D01*
X160531Y186916D01*
X161388Y186421D01*
X162343Y186165D01*
X163332D01*
X164287Y186421D01*
X165144Y186916D01*
X165843Y187615D01*
X166337Y188471D01*
X166593Y189427D01*
Y190416D01*
X166337Y191371D01*
X165843Y192227D01*
X165144Y192927D01*
X164287Y193421D01*
X163332Y193677D01*
D02*
G37*
G36*
X213158Y188000D02*
X210413D01*
Y185255D01*
X211173Y185459D01*
X211917Y185888D01*
X212525Y186496D01*
X212955Y187240D01*
X213158Y188000D01*
D02*
G37*
G36*
X209413D02*
X206668D01*
X206872Y187240D01*
X207302Y186496D01*
X207909Y185888D01*
X208654Y185459D01*
X209413Y185255D01*
Y188000D01*
D02*
G37*
G36*
X187350Y191764D02*
X180823D01*
Y185236D01*
X187350D01*
Y191764D01*
D02*
G37*
G36*
X100645Y185045D02*
X99316D01*
X98033Y184701D01*
X96882Y184037D01*
X95943Y183098D01*
X95568Y182447D01*
X94413D01*
X94037Y183098D01*
X93098Y184037D01*
X91947Y184701D01*
X90664Y185045D01*
X89336D01*
X88053Y184701D01*
X86902Y184037D01*
X86065Y183200D01*
X85630Y183263D01*
X85065Y183543D01*
Y185045D01*
X74974D01*
Y174955D01*
X85065D01*
Y176457D01*
X85630Y176737D01*
X86065Y176800D01*
X86902Y175963D01*
X88053Y175299D01*
X89336Y174955D01*
X90664D01*
X91947Y175299D01*
X93098Y175963D01*
X94037Y176902D01*
X94413Y177553D01*
X95568D01*
X95943Y176902D01*
X96882Y175963D01*
X98033Y175299D01*
X99316Y174955D01*
X100645D01*
X101928Y175299D01*
X103078Y175963D01*
X104017Y176902D01*
X104682Y178053D01*
X105026Y179336D01*
Y180664D01*
X104682Y181947D01*
X104017Y183098D01*
X103078Y184037D01*
X101928Y184701D01*
X100645Y185045D01*
D02*
G37*
G36*
X122658Y184347D02*
Y181500D01*
X125504D01*
X125291Y182298D01*
X124848Y183064D01*
X124222Y183690D01*
X123455Y184133D01*
X122658Y184347D01*
D02*
G37*
G36*
X121658D02*
X120860Y184133D01*
X120093Y183690D01*
X119467Y183064D01*
X119024Y182298D01*
X118811Y181500D01*
X121658D01*
Y184347D01*
D02*
G37*
G36*
X37572Y181846D02*
X37500D01*
Y178000D01*
X41346D01*
Y178072D01*
X41050Y179178D01*
X40478Y180169D01*
X39669Y180978D01*
X38678Y181550D01*
X37572Y181846D01*
D02*
G37*
G36*
X36500D02*
X36428D01*
X35322Y181550D01*
X34331Y180978D01*
X33522Y180169D01*
X32950Y179178D01*
X32654Y178072D01*
Y178000D01*
X36500D01*
Y181846D01*
D02*
G37*
G36*
X125504Y180500D02*
X122658D01*
Y177653D01*
X123455Y177867D01*
X124222Y178310D01*
X124848Y178936D01*
X125291Y179702D01*
X125504Y180500D01*
D02*
G37*
G36*
X121658D02*
X118811D01*
X119024Y179702D01*
X119467Y178936D01*
X120093Y178310D01*
X120860Y177867D01*
X121658Y177653D01*
Y180500D01*
D02*
G37*
G36*
X145205Y184362D02*
X138480D01*
Y177638D01*
X145205D01*
Y184362D01*
D02*
G37*
G36*
X376500Y263029D02*
X191000D01*
X190415Y262913D01*
X189919Y262581D01*
X184005Y256668D01*
X183674Y256172D01*
X183557Y255587D01*
Y250764D01*
X181823D01*
Y244236D01*
X188350D01*
Y250764D01*
X186616D01*
Y254953D01*
X191633Y259971D01*
X375867D01*
X379971Y255867D01*
Y187634D01*
X374867Y182529D01*
X359000D01*
X358415Y182413D01*
X357919Y182081D01*
X353419Y177581D01*
X353087Y177085D01*
X352971Y176500D01*
Y170799D01*
X352496Y170525D01*
X351888Y169917D01*
X351459Y169173D01*
X351236Y168343D01*
Y167484D01*
X351459Y166654D01*
X351888Y165909D01*
X352496Y165302D01*
X353240Y164872D01*
X354070Y164650D01*
X354930D01*
X355760Y164872D01*
X356504Y165302D01*
X357112Y165909D01*
X357541Y166654D01*
X357764Y167484D01*
Y168343D01*
X357541Y169173D01*
X357112Y169917D01*
X356504Y170525D01*
X356029Y170799D01*
Y175866D01*
X359633Y179471D01*
X375500D01*
X376085Y179587D01*
X376581Y179919D01*
X380047Y183384D01*
X380971Y183001D01*
Y181731D01*
X380956Y181727D01*
X380044Y181201D01*
X379299Y180456D01*
X378773Y179544D01*
X378500Y178527D01*
Y177473D01*
X378773Y176456D01*
X379299Y175544D01*
X380044Y174799D01*
X380956Y174273D01*
X381973Y174000D01*
X383027D01*
X384044Y174273D01*
X384956Y174799D01*
X385701Y175544D01*
X386227Y176456D01*
X386500Y177473D01*
Y178527D01*
X386227Y179544D01*
X385701Y180456D01*
X384956Y181201D01*
X384044Y181727D01*
X384029Y181731D01*
Y186000D01*
X383913Y186585D01*
X383581Y187081D01*
X383029Y187634D01*
Y256500D01*
X382913Y257085D01*
X382581Y257581D01*
X377581Y262581D01*
X377085Y262913D01*
X376500Y263029D01*
D02*
G37*
G36*
X294677Y200764D02*
X288150D01*
Y194236D01*
X289884D01*
Y186957D01*
Y178547D01*
X289419Y178081D01*
X289087Y177585D01*
X288971Y177000D01*
Y168600D01*
X286400D01*
Y160400D01*
X294600D01*
Y168600D01*
X292029D01*
Y176366D01*
X292047Y176384D01*
X294182D01*
X294186Y176370D01*
X294713Y175457D01*
X295457Y174713D01*
X296370Y174186D01*
X297387Y173913D01*
X298440D01*
X299457Y174186D01*
X300370Y174713D01*
X301114Y175457D01*
X301641Y176370D01*
X301913Y177387D01*
Y178440D01*
X301641Y179457D01*
X301114Y180369D01*
X300370Y181114D01*
X299457Y181641D01*
X298440Y181913D01*
X297387D01*
X296370Y181641D01*
X295457Y181114D01*
X294713Y180369D01*
X294186Y179457D01*
X294182Y179443D01*
X292943D01*
Y185427D01*
X371457D01*
X372042Y185544D01*
X372538Y185875D01*
X376495Y189832D01*
X376826Y190328D01*
X376943Y190913D01*
Y192736D01*
X378677D01*
Y199264D01*
X372150D01*
Y192736D01*
X373884D01*
Y191547D01*
X370823Y188486D01*
X292943D01*
Y194236D01*
X294677D01*
Y200764D01*
D02*
G37*
G36*
X51346Y181846D02*
X42654D01*
Y173153D01*
X51346D01*
Y181846D01*
D02*
G37*
G36*
X41346Y177000D02*
X37500D01*
Y173153D01*
X37572D01*
X38678Y173450D01*
X39669Y174022D01*
X40478Y174831D01*
X41050Y175822D01*
X41346Y176928D01*
Y177000D01*
D02*
G37*
G36*
X36500D02*
X32654D01*
Y176928D01*
X32950Y175822D01*
X33522Y174831D01*
X34331Y174022D01*
X35322Y173450D01*
X36428Y173153D01*
X36500D01*
Y177000D01*
D02*
G37*
G36*
X27572Y181846D02*
X26428D01*
X25322Y181550D01*
X24331Y180978D01*
X23522Y180169D01*
X22950Y179178D01*
X22654Y178072D01*
Y176928D01*
X22950Y175822D01*
X23522Y174831D01*
X24331Y174022D01*
X25322Y173450D01*
X26428Y173153D01*
X27572D01*
X28678Y173450D01*
X29669Y174022D01*
X30478Y174831D01*
X31050Y175822D01*
X31346Y176928D01*
Y178072D01*
X31050Y179178D01*
X30478Y180169D01*
X29669Y180978D01*
X28678Y181550D01*
X27572Y181846D01*
D02*
G37*
G36*
X311500Y170689D02*
Y167842D01*
X314347D01*
X314133Y168640D01*
X313690Y169407D01*
X313064Y170033D01*
X312298Y170476D01*
X311500Y170689D01*
D02*
G37*
G36*
X310500D02*
X309702Y170476D01*
X308936Y170033D01*
X308310Y169407D01*
X307867Y168640D01*
X307653Y167842D01*
X310500D01*
Y170689D01*
D02*
G37*
G36*
X238430Y172677D02*
X237570D01*
X236740Y172455D01*
X235996Y172025D01*
X235388Y171417D01*
X234959Y170673D01*
X234736Y169843D01*
Y168984D01*
X234959Y168154D01*
X235388Y167409D01*
X235996Y166802D01*
X236740Y166372D01*
X237570Y166150D01*
X238430D01*
X239260Y166372D01*
X240004Y166802D01*
X240612Y167409D01*
X241041Y168154D01*
X241264Y168984D01*
Y169843D01*
X241041Y170673D01*
X240612Y171417D01*
X240004Y172025D01*
X239260Y172455D01*
X238430Y172677D01*
D02*
G37*
G36*
X261040Y168600D02*
X261000D01*
Y165000D01*
X264600D01*
Y165040D01*
X264321Y166083D01*
X263781Y167018D01*
X263018Y167781D01*
X262083Y168321D01*
X261040Y168600D01*
D02*
G37*
G36*
X260000D02*
X259960D01*
X258917Y168321D01*
X257982Y167781D01*
X257219Y167018D01*
X256679Y166083D01*
X256400Y165040D01*
Y165000D01*
X260000D01*
Y168600D01*
D02*
G37*
G36*
X314347Y166842D02*
X311500D01*
Y163996D01*
X312298Y164209D01*
X313064Y164652D01*
X313690Y165278D01*
X314133Y166045D01*
X314347Y166842D01*
D02*
G37*
G36*
X310500D02*
X307653D01*
X307867Y166045D01*
X308310Y165278D01*
X308936Y164652D01*
X309702Y164209D01*
X310500Y163996D01*
Y166842D01*
D02*
G37*
G36*
X334067Y165567D02*
X331500D01*
Y163000D01*
X334067D01*
Y165567D01*
D02*
G37*
G36*
X330500D02*
X327933D01*
Y163000D01*
X330500D01*
Y165567D01*
D02*
G37*
G36*
X170000Y261529D02*
X113284D01*
X112698Y261413D01*
X112202Y261081D01*
X105778Y254658D01*
X100626D01*
Y249505D01*
X92150Y241029D01*
X83134D01*
X80835Y243328D01*
X81217Y244252D01*
X81748D01*
Y252748D01*
X73252D01*
Y246415D01*
X61366Y234529D01*
X44517D01*
X44334Y235209D01*
X43581Y236515D01*
X42515Y237581D01*
X41210Y238334D01*
X39754Y238724D01*
X38246D01*
X36790Y238334D01*
X35485Y237581D01*
X34419Y236515D01*
X33666Y235209D01*
X33276Y233754D01*
Y232246D01*
X33666Y230790D01*
X34419Y229485D01*
X35485Y228419D01*
X36790Y227666D01*
X38246Y227276D01*
X39754D01*
X41210Y227666D01*
X42515Y228419D01*
X43581Y229485D01*
X44334Y230790D01*
X44517Y231471D01*
X60471D01*
Y174500D01*
X60587Y173915D01*
X60919Y173419D01*
X65419Y168919D01*
X65915Y168587D01*
X66500Y168471D01*
X90367D01*
X93471Y165366D01*
Y123000D01*
X93587Y122415D01*
X93919Y121919D01*
X102687Y113150D01*
Y106840D01*
X101971Y106427D01*
X101290Y105746D01*
X100808Y104912D01*
X100559Y103981D01*
Y103018D01*
X100808Y102088D01*
X101290Y101254D01*
X101971Y100573D01*
X102805Y100092D01*
X103735Y99843D01*
X104698D01*
X105628Y100092D01*
X106462Y100573D01*
X107143Y101254D01*
X107557Y101971D01*
X117443D01*
X117857Y101254D01*
X118538Y100573D01*
X119372Y100092D01*
X120302Y99843D01*
X121265D01*
X122195Y100092D01*
X123029Y100573D01*
X123710Y101254D01*
X124192Y102088D01*
X124441Y103018D01*
Y103981D01*
X124192Y104912D01*
X123710Y105746D01*
X123029Y106427D01*
X122195Y106908D01*
X121265Y107158D01*
X120302D01*
X119372Y106908D01*
X118538Y106427D01*
X117857Y105746D01*
X117443Y105029D01*
X107557D01*
X107143Y105746D01*
X106462Y106427D01*
X105746Y106840D01*
Y113784D01*
X105630Y114369D01*
X105298Y114865D01*
X96529Y123634D01*
Y166000D01*
X96413Y166585D01*
X96081Y167081D01*
X92081Y171081D01*
X91585Y171413D01*
X91000Y171529D01*
X67133D01*
X63529Y175134D01*
Y232366D01*
X75069Y243906D01*
X75421Y243909D01*
X76203Y243741D01*
X76419Y243419D01*
X81419Y238419D01*
X81915Y238087D01*
X82500Y237971D01*
X92783D01*
X93369Y238087D01*
X93865Y238419D01*
X102036Y246590D01*
X103202Y246635D01*
X108919Y240919D01*
X109415Y240587D01*
X110000Y240471D01*
X116367D01*
X118471Y238367D01*
Y225130D01*
X118386Y225069D01*
X117471Y224784D01*
X117064Y225190D01*
X116298Y225633D01*
X115443Y225862D01*
X114557D01*
X113702Y225633D01*
X112936Y225190D01*
X112310Y224564D01*
X111867Y223798D01*
X111638Y222943D01*
Y222057D01*
X111787Y221500D01*
X111625Y221214D01*
X111286Y220875D01*
X111000Y220713D01*
X110443Y220862D01*
X109557D01*
X108702Y220633D01*
X107936Y220190D01*
X107310Y219564D01*
X106867Y218798D01*
X106638Y217943D01*
Y217057D01*
X106867Y216202D01*
X107310Y215436D01*
X107936Y214810D01*
X108702Y214367D01*
X109557Y214138D01*
X110443D01*
X111298Y214367D01*
X112064Y214810D01*
X112690Y215436D01*
X113133Y216202D01*
X113362Y217057D01*
Y217943D01*
X113213Y218499D01*
X113375Y218786D01*
X113714Y219125D01*
X114000Y219287D01*
X114557Y219138D01*
X115443D01*
X115638Y219190D01*
X116638Y218463D01*
Y214138D01*
X123362D01*
Y220862D01*
X121529D01*
Y239000D01*
X121413Y239585D01*
X121081Y240081D01*
X118081Y243081D01*
X117585Y243413D01*
X117000Y243529D01*
X110634D01*
X107613Y246550D01*
X107941Y247342D01*
X107941D01*
Y252495D01*
X113917Y258471D01*
X169367D01*
X173471Y254366D01*
Y180133D01*
X164419Y171081D01*
X164087Y170585D01*
X163971Y170000D01*
Y169705D01*
X162138D01*
Y162980D01*
X168862D01*
Y169705D01*
X168674D01*
X168291Y170629D01*
X176081Y178419D01*
X176413Y178915D01*
X176529Y179500D01*
Y255000D01*
X176413Y255585D01*
X176081Y256081D01*
X171081Y261081D01*
X170585Y261413D01*
X170000Y261529D01*
D02*
G37*
G36*
X373000Y165382D02*
Y162500D01*
X375882D01*
X375664Y163311D01*
X375217Y164085D01*
X374585Y164717D01*
X373811Y165164D01*
X373000Y165382D01*
D02*
G37*
G36*
X372000D02*
X371189Y165164D01*
X370415Y164717D01*
X369783Y164085D01*
X369336Y163311D01*
X369118Y162500D01*
X372000D01*
Y165382D01*
D02*
G37*
G36*
X210000Y165035D02*
X209837D01*
X208556Y164692D01*
X207408Y164029D01*
X206471Y163092D01*
X206065Y162390D01*
X204935D01*
X204529Y163092D01*
X203592Y164029D01*
X202444Y164692D01*
X201163Y165035D01*
X199837D01*
X198556Y164692D01*
X197408Y164029D01*
X196535Y163157D01*
X196246Y163183D01*
X195535Y163472D01*
Y165035D01*
X185465D01*
Y154965D01*
X195535D01*
Y156528D01*
X196246Y156817D01*
X196535Y156843D01*
X197408Y155971D01*
X198556Y155308D01*
X199837Y154965D01*
X201163D01*
X202444Y155308D01*
X203592Y155971D01*
X204529Y156908D01*
X204935Y157610D01*
X206065D01*
X206471Y156908D01*
X207408Y155971D01*
X208556Y155308D01*
X209837Y154965D01*
X210000D01*
Y160000D01*
Y165035D01*
D02*
G37*
G36*
X211163D02*
X211000D01*
Y160500D01*
X215535D01*
Y160663D01*
X215192Y161944D01*
X214529Y163092D01*
X213592Y164029D01*
X212444Y164692D01*
X211163Y165035D01*
D02*
G37*
G36*
X281040Y168600D02*
X279960D01*
X278917Y168321D01*
X277982Y167781D01*
X277219Y167018D01*
X276679Y166083D01*
X276400Y165040D01*
Y163960D01*
X276679Y162917D01*
X277219Y161982D01*
X277982Y161219D01*
X278917Y160679D01*
X279960Y160400D01*
X281040D01*
X282083Y160679D01*
X283018Y161219D01*
X283781Y161982D01*
X284321Y162917D01*
X284600Y163960D01*
Y165040D01*
X284321Y166083D01*
X283781Y167018D01*
X283018Y167781D01*
X282083Y168321D01*
X281040Y168600D01*
D02*
G37*
G36*
X271040D02*
X269960D01*
X268917Y168321D01*
X267982Y167781D01*
X267219Y167018D01*
X266679Y166083D01*
X266400Y165040D01*
Y163960D01*
X266679Y162917D01*
X267219Y161982D01*
X267982Y161219D01*
X268917Y160679D01*
X269960Y160400D01*
X271040D01*
X272083Y160679D01*
X273018Y161219D01*
X273781Y161982D01*
X274321Y162917D01*
X274600Y163960D01*
Y165040D01*
X274321Y166083D01*
X273781Y167018D01*
X273018Y167781D01*
X272083Y168321D01*
X271040Y168600D01*
D02*
G37*
G36*
X264600Y164000D02*
X261000D01*
Y160400D01*
X261040D01*
X262083Y160679D01*
X263018Y161219D01*
X263781Y161982D01*
X264321Y162917D01*
X264600Y163960D01*
Y164000D01*
D02*
G37*
G36*
X260000D02*
X256400D01*
Y163960D01*
X256679Y162917D01*
X257219Y161982D01*
X257982Y161219D01*
X258917Y160679D01*
X259960Y160400D01*
X260000D01*
Y164000D01*
D02*
G37*
G36*
X375882Y161500D02*
X373000D01*
Y158618D01*
X373811Y158836D01*
X374585Y159283D01*
X375217Y159915D01*
X375664Y160689D01*
X375882Y161500D01*
D02*
G37*
G36*
X372000D02*
X369118D01*
X369336Y160689D01*
X369783Y159915D01*
X370415Y159283D01*
X371189Y158836D01*
X372000Y158618D01*
Y161500D01*
D02*
G37*
G36*
X215535Y159500D02*
X211000D01*
Y154965D01*
X211163D01*
X212444Y155308D01*
X213592Y155971D01*
X214529Y156908D01*
X215192Y158056D01*
X215535Y159337D01*
Y159500D01*
D02*
G37*
G36*
X105065Y158650D02*
X103973D01*
X102917Y158367D01*
X101971Y157820D01*
X101198Y157048D01*
X100652Y156102D01*
X100369Y155046D01*
Y153954D01*
X100652Y152898D01*
X101198Y151952D01*
X101971Y151180D01*
X102917Y150633D01*
X103973Y150350D01*
X105065D01*
X106121Y150633D01*
X107067Y151180D01*
X107839Y151952D01*
X108386Y152898D01*
X108668Y153954D01*
Y155046D01*
X108386Y156102D01*
X107839Y157048D01*
X107067Y157820D01*
X106121Y158367D01*
X105065Y158650D01*
D02*
G37*
G36*
X334067Y162000D02*
X331000D01*
X327933D01*
Y159433D01*
X327933Y159433D01*
X328075Y158433D01*
X327933Y157904D01*
Y157096D01*
X328142Y156316D01*
X328546Y155617D01*
X329077Y155000D01*
X328546Y154383D01*
X328142Y153684D01*
X327933Y152904D01*
Y152096D01*
X328142Y151316D01*
X328546Y150617D01*
X329117Y150046D01*
X329816Y149642D01*
X330596Y149433D01*
X331404D01*
X332184Y149642D01*
X332883Y150046D01*
X333454Y150617D01*
X333858Y151316D01*
X334067Y152096D01*
Y152904D01*
X333858Y153684D01*
X333454Y154383D01*
X332923Y155000D01*
X333454Y155617D01*
X333858Y156316D01*
X334067Y157096D01*
Y157904D01*
X333925Y158433D01*
X334067Y159433D01*
X334067D01*
Y162000D01*
D02*
G37*
G36*
X372947Y155396D02*
X372053D01*
X371189Y155164D01*
X370415Y154717D01*
X369783Y154085D01*
X369336Y153311D01*
X369104Y152447D01*
Y151553D01*
X369336Y150689D01*
X369783Y149915D01*
X370415Y149283D01*
X371189Y148836D01*
X372053Y148604D01*
X372947D01*
X373811Y148836D01*
X374585Y149283D01*
X375217Y149915D01*
X375664Y150689D01*
X375896Y151553D01*
Y152447D01*
X375664Y153311D01*
X375217Y154085D01*
X374585Y154717D01*
X373811Y155164D01*
X372947Y155396D01*
D02*
G37*
G36*
X166000Y150004D02*
Y147158D01*
X168847D01*
X168633Y147955D01*
X168190Y148722D01*
X167564Y149348D01*
X166798Y149791D01*
X166000Y150004D01*
D02*
G37*
G36*
X165000D02*
X164202Y149791D01*
X163436Y149348D01*
X162810Y148722D01*
X162367Y147955D01*
X162153Y147158D01*
X165000D01*
Y150004D01*
D02*
G37*
G36*
X75850Y147834D02*
X75830D01*
Y144382D01*
X79282D01*
Y144402D01*
X79013Y145407D01*
X78493Y146309D01*
X77757Y147045D01*
X76855Y147565D01*
X75850Y147834D01*
D02*
G37*
G36*
X74830D02*
X74809D01*
X73804Y147565D01*
X72903Y147045D01*
X72167Y146309D01*
X71646Y145407D01*
X71377Y144402D01*
Y144382D01*
X74830D01*
Y147834D01*
D02*
G37*
G36*
X314362Y151020D02*
X307638D01*
Y144295D01*
X314362D01*
Y151020D01*
D02*
G37*
G36*
X241264Y146850D02*
X238500D01*
Y144087D01*
X241264D01*
Y146850D01*
D02*
G37*
G36*
X237500D02*
X234736D01*
Y144087D01*
X237500D01*
Y146850D01*
D02*
G37*
G36*
X168847Y146158D02*
X166000D01*
Y143311D01*
X166798Y143524D01*
X167564Y143967D01*
X168190Y144593D01*
X168633Y145360D01*
X168847Y146158D01*
D02*
G37*
G36*
X165000D02*
X162153D01*
X162367Y145360D01*
X162810Y144593D01*
X163436Y143967D01*
X164202Y143524D01*
X165000Y143311D01*
Y146158D01*
D02*
G37*
G36*
X45862Y143362D02*
X43000D01*
Y140500D01*
X45862D01*
Y143362D01*
D02*
G37*
G36*
X42000D02*
X39138D01*
Y140500D01*
X42000D01*
Y143362D01*
D02*
G37*
G36*
X241264Y143087D02*
X238500D01*
Y140323D01*
X241264D01*
Y143087D01*
D02*
G37*
G36*
X237500D02*
X234736D01*
Y140323D01*
X237500D01*
Y143087D01*
D02*
G37*
G36*
X79282Y143382D02*
X75830D01*
Y139929D01*
X75850D01*
X76855Y140198D01*
X77757Y140719D01*
X78493Y141455D01*
X79013Y142356D01*
X79282Y143361D01*
Y143382D01*
D02*
G37*
G36*
X74830D02*
X71377D01*
Y143361D01*
X71646Y142356D01*
X72167Y141455D01*
X72903Y140719D01*
X73804Y140198D01*
X74809Y139929D01*
X74830D01*
Y143382D01*
D02*
G37*
G36*
X357764Y145350D02*
X351236D01*
Y138823D01*
X357764D01*
Y145350D01*
D02*
G37*
G36*
X45862Y139500D02*
X43000D01*
Y136638D01*
X45862D01*
Y139500D01*
D02*
G37*
G36*
X42000D02*
X39138D01*
Y136638D01*
X42000D01*
Y139500D01*
D02*
G37*
G36*
X23258Y143362D02*
X22372D01*
X21517Y143133D01*
X20751Y142690D01*
X20124Y142064D01*
X19682Y141298D01*
X19453Y140443D01*
Y139557D01*
X19682Y138702D01*
X20124Y137936D01*
X20751Y137310D01*
X21517Y136867D01*
X22372Y136638D01*
X23258D01*
X24113Y136867D01*
X24879Y137310D01*
X25505Y137936D01*
X25948Y138702D01*
X26177Y139557D01*
Y140443D01*
X25948Y141298D01*
X25505Y142064D01*
X24879Y142690D01*
X24113Y143133D01*
X23258Y143362D01*
D02*
G37*
G36*
X344527Y141000D02*
X343473D01*
X342456Y140727D01*
X341544Y140201D01*
X340799Y139456D01*
X340273Y138544D01*
X340000Y137527D01*
Y136473D01*
X340273Y135456D01*
X340799Y134544D01*
X341544Y133799D01*
X342456Y133273D01*
X343473Y133000D01*
X344527D01*
X345544Y133273D01*
X346456Y133799D01*
X347201Y134544D01*
X347727Y135456D01*
X348000Y136473D01*
Y137527D01*
X347727Y138544D01*
X347201Y139456D01*
X346456Y140201D01*
X345544Y140727D01*
X344527Y141000D01*
D02*
G37*
G36*
X305027Y139500D02*
X303973D01*
X302956Y139227D01*
X302044Y138701D01*
X301299Y137956D01*
X300773Y137044D01*
X300500Y136027D01*
Y134973D01*
X300773Y133956D01*
X301299Y133044D01*
X302044Y132299D01*
X302956Y131773D01*
X303973Y131500D01*
X305027D01*
X306044Y131773D01*
X306956Y132299D01*
X307701Y133044D01*
X308227Y133956D01*
X308500Y134973D01*
Y136027D01*
X308227Y137044D01*
X307701Y137956D01*
X306956Y138701D01*
X306044Y139227D01*
X305027Y139500D01*
D02*
G37*
G36*
X291040Y138600D02*
X289960D01*
X288917Y138321D01*
X287982Y137781D01*
X287219Y137018D01*
X286679Y136083D01*
X286400Y135040D01*
Y133960D01*
X286679Y132917D01*
X287219Y131982D01*
X287982Y131219D01*
X288917Y130679D01*
X289960Y130400D01*
X291040D01*
X292083Y130679D01*
X293018Y131219D01*
X293781Y131982D01*
X294321Y132917D01*
X294600Y133960D01*
Y135040D01*
X294321Y136083D01*
X293781Y137018D01*
X293018Y137781D01*
X292083Y138321D01*
X291040Y138600D01*
D02*
G37*
G36*
X281040D02*
X279960D01*
X278917Y138321D01*
X277982Y137781D01*
X277219Y137018D01*
X276679Y136083D01*
X276400Y135040D01*
Y133960D01*
X276679Y132917D01*
X277219Y131982D01*
X277982Y131219D01*
X278917Y130679D01*
X279960Y130400D01*
X281040D01*
X282083Y130679D01*
X283018Y131219D01*
X283781Y131982D01*
X284321Y132917D01*
X284600Y133960D01*
Y135040D01*
X284321Y136083D01*
X283781Y137018D01*
X283018Y137781D01*
X282083Y138321D01*
X281040Y138600D01*
D02*
G37*
G36*
X271040D02*
X269960D01*
X268917Y138321D01*
X267982Y137781D01*
X267219Y137018D01*
X266679Y136083D01*
X266400Y135040D01*
Y133960D01*
X266679Y132917D01*
X267219Y131982D01*
X267982Y131219D01*
X268917Y130679D01*
X269960Y130400D01*
X271040D01*
X272083Y130679D01*
X273018Y131219D01*
X273781Y131982D01*
X274321Y132917D01*
X274600Y133960D01*
Y135040D01*
X274321Y136083D01*
X273781Y137018D01*
X273018Y137781D01*
X272083Y138321D01*
X271040Y138600D01*
D02*
G37*
G36*
X75850Y137834D02*
X74809D01*
X73804Y137565D01*
X72903Y137045D01*
X72167Y136309D01*
X71646Y135407D01*
X71377Y134402D01*
Y133361D01*
X71646Y132356D01*
X72167Y131455D01*
X72903Y130719D01*
X73804Y130198D01*
X74809Y129929D01*
X75850D01*
X76855Y130198D01*
X77757Y130719D01*
X78493Y131455D01*
X79013Y132356D01*
X79282Y133361D01*
Y134402D01*
X79013Y135407D01*
X78493Y136309D01*
X77757Y137045D01*
X76855Y137565D01*
X75850Y137834D01*
D02*
G37*
G36*
X105565Y134150D02*
X104473D01*
X103417Y133867D01*
X102471Y133320D01*
X101698Y132548D01*
X101152Y131602D01*
X100869Y130546D01*
Y129454D01*
X101152Y128398D01*
X101698Y127452D01*
X102471Y126680D01*
X103417Y126133D01*
X104473Y125850D01*
X105565D01*
X106621Y126133D01*
X107567Y126680D01*
X108339Y127452D01*
X108886Y128398D01*
X109169Y129454D01*
Y130546D01*
X108886Y131602D01*
X108339Y132548D01*
X107567Y133320D01*
X106621Y133867D01*
X105565Y134150D01*
D02*
G37*
G36*
X353016Y128764D02*
X352157D01*
X351327Y128541D01*
X350583Y128112D01*
X349975Y127504D01*
X349545Y126760D01*
X349323Y125930D01*
Y125070D01*
X349545Y124240D01*
X349975Y123496D01*
X350583Y122888D01*
X351327Y122459D01*
X352157Y122236D01*
X353016D01*
X353846Y122459D01*
X354591Y122888D01*
X355198Y123496D01*
X355628Y124240D01*
X355850Y125070D01*
Y125930D01*
X355628Y126760D01*
X355198Y127504D01*
X354591Y128112D01*
X353846Y128541D01*
X353016Y128764D01*
D02*
G37*
G36*
X343677D02*
X337150D01*
Y122236D01*
X343677D01*
Y128764D01*
D02*
G37*
G36*
X315016D02*
X314157D01*
X313327Y128541D01*
X312583Y128112D01*
X311975Y127504D01*
X311545Y126760D01*
X311323Y125930D01*
Y125070D01*
X311545Y124240D01*
X311975Y123496D01*
X312583Y122888D01*
X313327Y122459D01*
X314157Y122236D01*
X315016D01*
X315846Y122459D01*
X316591Y122888D01*
X317198Y123496D01*
X317628Y124240D01*
X317850Y125070D01*
Y125930D01*
X317628Y126760D01*
X317198Y127504D01*
X316591Y128112D01*
X315846Y128541D01*
X315016Y128764D01*
D02*
G37*
G36*
X53343Y121264D02*
X52484D01*
X51654Y121041D01*
X50909Y120612D01*
X50302Y120004D01*
X49872Y119260D01*
X49650Y118430D01*
Y117570D01*
X49872Y116740D01*
X50302Y115996D01*
X50909Y115388D01*
X51654Y114959D01*
X52484Y114736D01*
X53343D01*
X54173Y114959D01*
X54917Y115388D01*
X55525Y115996D01*
X55955Y116740D01*
X56177Y117570D01*
Y118430D01*
X55955Y119260D01*
X55525Y120004D01*
X54917Y120612D01*
X54173Y121041D01*
X53343Y121264D01*
D02*
G37*
G36*
X30350D02*
X23823D01*
Y114736D01*
X30350D01*
Y121264D01*
D02*
G37*
G36*
X319677Y115764D02*
X316913D01*
Y113000D01*
X319677D01*
Y115764D01*
D02*
G37*
G36*
X315913D02*
X313150D01*
Y113000D01*
X315913D01*
Y115764D01*
D02*
G37*
G36*
X184443Y126862D02*
X183557D01*
X182702Y126633D01*
X181936Y126190D01*
X181310Y125564D01*
X180867Y124798D01*
X180638Y123943D01*
Y123057D01*
X180867Y122202D01*
X181310Y121436D01*
X181936Y120810D01*
X182471Y120501D01*
Y119000D01*
X182587Y118415D01*
X182919Y117919D01*
X185919Y114919D01*
X186415Y114587D01*
X187000Y114471D01*
X211462D01*
X211783Y113915D01*
X212415Y113283D01*
X213189Y112836D01*
X214053Y112604D01*
X214947D01*
X215811Y112836D01*
X216585Y113283D01*
X217217Y113915D01*
X217538Y114471D01*
X236962D01*
X237283Y113915D01*
X237915Y113283D01*
X238689Y112836D01*
X239553Y112604D01*
X240447D01*
X241311Y112836D01*
X242085Y113283D01*
X242717Y113915D01*
X243164Y114689D01*
X243396Y115553D01*
Y116447D01*
X243164Y117311D01*
X242717Y118085D01*
X242085Y118717D01*
X241311Y119164D01*
X240447Y119396D01*
X239553D01*
X238689Y119164D01*
X237915Y118717D01*
X237283Y118085D01*
X236962Y117529D01*
X217538D01*
X217217Y118085D01*
X216585Y118717D01*
X215811Y119164D01*
X214947Y119396D01*
X214053D01*
X213189Y119164D01*
X212415Y118717D01*
X211783Y118085D01*
X211462Y117529D01*
X187634D01*
X185587Y119576D01*
X185663Y120578D01*
X186064Y120810D01*
X186690Y121436D01*
X187133Y122202D01*
X187362Y123057D01*
Y123943D01*
X187133Y124798D01*
X186690Y125564D01*
X186064Y126190D01*
X185298Y126633D01*
X184443Y126862D01*
D02*
G37*
G36*
X319677Y112000D02*
X316913D01*
Y109236D01*
X319677D01*
Y112000D01*
D02*
G37*
G36*
X315913D02*
X313150D01*
Y109236D01*
X315913D01*
Y112000D01*
D02*
G37*
G36*
X291016Y115764D02*
X290157D01*
X289327Y115541D01*
X288583Y115112D01*
X287975Y114504D01*
X287545Y113760D01*
X287323Y112930D01*
Y112070D01*
X287545Y111240D01*
X287975Y110496D01*
X288583Y109888D01*
X289327Y109459D01*
X290157Y109236D01*
X291016D01*
X291846Y109459D01*
X292591Y109888D01*
X293198Y110496D01*
X293628Y111240D01*
X293850Y112070D01*
Y112930D01*
X293628Y113760D01*
X293198Y114504D01*
X292591Y115112D01*
X291846Y115541D01*
X291016Y115764D01*
D02*
G37*
G36*
X284677D02*
X278150D01*
Y109236D01*
X284677D01*
Y115764D01*
D02*
G37*
G36*
X256016D02*
X255157D01*
X254327Y115541D01*
X253583Y115112D01*
X252975Y114504D01*
X252545Y113760D01*
X252323Y112930D01*
Y112070D01*
X252545Y111240D01*
X252975Y110496D01*
X253583Y109888D01*
X254327Y109459D01*
X255157Y109236D01*
X256016D01*
X256846Y109459D01*
X257591Y109888D01*
X258198Y110496D01*
X258628Y111240D01*
X258850Y112070D01*
Y112930D01*
X258628Y113760D01*
X258198Y114504D01*
X257591Y115112D01*
X256846Y115541D01*
X256016Y115764D01*
D02*
G37*
G36*
X240447Y109396D02*
X239553D01*
X238689Y109164D01*
X237915Y108717D01*
X237283Y108085D01*
X236962Y107529D01*
X217538D01*
X217217Y108085D01*
X216585Y108717D01*
X215811Y109164D01*
X214947Y109396D01*
X214053D01*
X213189Y109164D01*
X212415Y108717D01*
X211783Y108085D01*
X211462Y107529D01*
X200500D01*
X199915Y107413D01*
X199419Y107081D01*
X197681Y105344D01*
X187362D01*
Y107177D01*
X180638D01*
Y100453D01*
X187362D01*
Y102286D01*
X198315D01*
X198900Y102402D01*
X199396Y102734D01*
X201133Y104471D01*
X211462D01*
X211783Y103915D01*
X212415Y103283D01*
X213189Y102836D01*
X214053Y102604D01*
X214947D01*
X215811Y102836D01*
X216585Y103283D01*
X217217Y103915D01*
X217538Y104471D01*
X236962D01*
X237283Y103915D01*
X237915Y103283D01*
X238689Y102836D01*
X239553Y102604D01*
X240447D01*
X241311Y102836D01*
X242085Y103283D01*
X242717Y103915D01*
X243164Y104689D01*
X243396Y105553D01*
Y106447D01*
X243164Y107311D01*
X242717Y108085D01*
X242085Y108717D01*
X241311Y109164D01*
X240447Y109396D01*
D02*
G37*
G36*
X32559Y104248D02*
X32500D01*
Y100500D01*
X36248D01*
Y100559D01*
X35958Y101640D01*
X35399Y102608D01*
X34608Y103399D01*
X33640Y103958D01*
X32559Y104248D01*
D02*
G37*
G36*
X31500D02*
X31441D01*
X30360Y103958D01*
X29392Y103399D01*
X28601Y102608D01*
X28041Y101640D01*
X27752Y100559D01*
Y100500D01*
X31500D01*
Y104248D01*
D02*
G37*
G36*
X377520Y107953D02*
X376480D01*
X375474Y107683D01*
X374573Y107163D01*
X373837Y106427D01*
X373317Y105526D01*
X373047Y104520D01*
Y103480D01*
X373317Y102474D01*
X373837Y101573D01*
X374573Y100837D01*
X375474Y100317D01*
X376480Y100047D01*
X377520D01*
X378526Y100317D01*
X379427Y100837D01*
X380163Y101573D01*
X380683Y102474D01*
X380953Y103480D01*
Y104520D01*
X380683Y105526D01*
X380163Y106427D01*
X379427Y107163D01*
X378526Y107683D01*
X377520Y107953D01*
D02*
G37*
G36*
X367520D02*
X366480D01*
X365474Y107683D01*
X364573Y107163D01*
X363837Y106427D01*
X363317Y105526D01*
X363047Y104520D01*
Y103480D01*
X363317Y102474D01*
X363837Y101573D01*
X364573Y100837D01*
X365474Y100317D01*
X366480Y100047D01*
X367520D01*
X368526Y100317D01*
X369427Y100837D01*
X370163Y101573D01*
X370683Y102474D01*
X370953Y103480D01*
Y104520D01*
X370683Y105526D01*
X370163Y106427D01*
X369427Y107163D01*
X368526Y107683D01*
X367520Y107953D01*
D02*
G37*
G36*
X259350Y102764D02*
X256587D01*
Y100000D01*
X259350D01*
Y102764D01*
D02*
G37*
G36*
X255587D02*
X252823D01*
Y100000D01*
X255587D01*
Y102764D01*
D02*
G37*
G36*
X159874Y107158D02*
X152559D01*
Y99843D01*
X159874D01*
Y107158D01*
D02*
G37*
G36*
X72441D02*
X65126D01*
Y99843D01*
X72441D01*
Y107158D01*
D02*
G37*
G36*
X319677Y102764D02*
X313150D01*
Y96236D01*
X319677D01*
Y102764D01*
D02*
G37*
G36*
X261040Y138600D02*
X259960D01*
X258917Y138321D01*
X257982Y137781D01*
X257219Y137018D01*
X256679Y136083D01*
X256400Y135040D01*
Y133960D01*
X256679Y132917D01*
X257219Y131982D01*
X257982Y131219D01*
X258917Y130679D01*
X258971Y130665D01*
Y120913D01*
X259087Y120328D01*
X259419Y119832D01*
X278791Y100459D01*
X278650Y99930D01*
Y99070D01*
X278872Y98240D01*
X279302Y97496D01*
X279909Y96888D01*
X280654Y96459D01*
X281484Y96236D01*
X282343D01*
X283173Y96459D01*
X283917Y96888D01*
X284525Y97496D01*
X284799Y97971D01*
X287701D01*
X287975Y97496D01*
X288583Y96888D01*
X289327Y96459D01*
X290157Y96236D01*
X291016D01*
X291846Y96459D01*
X292591Y96888D01*
X293198Y97496D01*
X293628Y98240D01*
X293850Y99070D01*
Y99930D01*
X293628Y100760D01*
X293198Y101504D01*
X292591Y102112D01*
X291846Y102541D01*
X291016Y102764D01*
X290157D01*
X289327Y102541D01*
X288583Y102112D01*
X287975Y101504D01*
X287701Y101029D01*
X284799D01*
X284525Y101504D01*
X283917Y102112D01*
X283173Y102541D01*
X282343Y102764D01*
X281484D01*
X280954Y102622D01*
X262029Y121547D01*
Y130665D01*
X262083Y130679D01*
X263018Y131219D01*
X263781Y131982D01*
X264321Y132917D01*
X264600Y133960D01*
Y135040D01*
X264321Y136083D01*
X263781Y137018D01*
X263018Y137781D01*
X262083Y138321D01*
X261040Y138600D01*
D02*
G37*
G36*
X259350Y99000D02*
X256587D01*
Y96236D01*
X259350D01*
Y99000D01*
D02*
G37*
G36*
X255587D02*
X252823D01*
Y96236D01*
X255587D01*
Y99000D01*
D02*
G37*
G36*
X36248Y99500D02*
X32500D01*
Y95752D01*
X32559D01*
X33640Y96042D01*
X34608Y96601D01*
X35399Y97392D01*
X35958Y98360D01*
X36248Y99441D01*
Y99500D01*
D02*
G37*
G36*
X31500D02*
X27752D01*
Y99441D01*
X28041Y98360D01*
X28601Y97392D01*
X29392Y96601D01*
X30360Y96042D01*
X31441Y95752D01*
X31500D01*
Y99500D01*
D02*
G37*
G36*
X26248Y104248D02*
X17752D01*
Y95752D01*
X26248D01*
Y104248D01*
D02*
G37*
G36*
X129040Y82600D02*
X129000D01*
Y79000D01*
X132600D01*
Y79040D01*
X132321Y80083D01*
X131781Y81018D01*
X131018Y81781D01*
X130083Y82321D01*
X129040Y82600D01*
D02*
G37*
G36*
X128000D02*
X127960D01*
X126917Y82321D01*
X125982Y81781D01*
X125219Y81018D01*
X124679Y80083D01*
X124400Y79040D01*
Y79000D01*
X128000D01*
Y82600D01*
D02*
G37*
G36*
X261264Y84677D02*
X254736D01*
Y78150D01*
X261264D01*
Y84677D01*
D02*
G37*
G36*
X274000Y79567D02*
X271433D01*
Y77000D01*
X274000D01*
Y79567D01*
D02*
G37*
G36*
X189264Y79177D02*
X186500D01*
Y76413D01*
X189264D01*
Y79177D01*
D02*
G37*
G36*
X185500D02*
X182736D01*
Y76413D01*
X185500D01*
Y79177D01*
D02*
G37*
G36*
X26850Y77764D02*
X24087D01*
Y75000D01*
X26850D01*
Y77764D01*
D02*
G37*
G36*
X23087D02*
X20323D01*
Y75000D01*
X23087D01*
Y77764D01*
D02*
G37*
G36*
X162600Y82600D02*
X154400D01*
Y74400D01*
X162600D01*
Y82600D01*
D02*
G37*
G36*
X139040D02*
X137960D01*
X136917Y82321D01*
X135982Y81781D01*
X135219Y81018D01*
X134679Y80083D01*
X134400Y79040D01*
Y77960D01*
X134679Y76917D01*
X135219Y75982D01*
X135982Y75219D01*
X136917Y74679D01*
X137960Y74400D01*
X139040D01*
X140083Y74679D01*
X141018Y75219D01*
X141781Y75982D01*
X142321Y76917D01*
X142600Y77960D01*
Y79040D01*
X142321Y80083D01*
X141781Y81018D01*
X141018Y81781D01*
X140083Y82321D01*
X139040Y82600D01*
D02*
G37*
G36*
X132600Y78000D02*
X129000D01*
Y74400D01*
X129040D01*
X130083Y74679D01*
X131018Y75219D01*
X131781Y75982D01*
X132321Y76917D01*
X132600Y77960D01*
Y78000D01*
D02*
G37*
G36*
X128000D02*
X124400D01*
Y77960D01*
X124679Y76917D01*
X125219Y75982D01*
X125982Y75219D01*
X126917Y74679D01*
X127960Y74400D01*
X128000D01*
Y78000D01*
D02*
G37*
G36*
X108264Y80177D02*
X101736D01*
Y73650D01*
X108264D01*
Y80177D01*
D02*
G37*
G36*
X240362Y80205D02*
X233638D01*
Y73480D01*
X240362D01*
Y80205D01*
D02*
G37*
G36*
X277567Y79567D02*
Y79567D01*
X275000D01*
Y76500D01*
Y73433D01*
X277567D01*
X277567Y73433D01*
X278567Y73575D01*
X279096Y73433D01*
X279904D01*
X280684Y73642D01*
X281383Y74046D01*
X282000Y74577D01*
X282617Y74046D01*
X283316Y73642D01*
X284096Y73433D01*
X284904D01*
X285684Y73642D01*
X286383Y74046D01*
X286954Y74617D01*
X287358Y75316D01*
X287567Y76096D01*
Y76904D01*
X287358Y77684D01*
X286954Y78383D01*
X286383Y78954D01*
X285684Y79358D01*
X284904Y79567D01*
X284096D01*
X283316Y79358D01*
X282617Y78954D01*
X282000Y78423D01*
X281383Y78954D01*
X280684Y79358D01*
X279904Y79567D01*
X279096D01*
X278567Y79425D01*
X277567Y79567D01*
D02*
G37*
G36*
X274000Y76000D02*
X271433D01*
Y73433D01*
X274000D01*
Y76000D01*
D02*
G37*
G36*
X189264Y75413D02*
X186500D01*
Y72650D01*
X189264D01*
Y75413D01*
D02*
G37*
G36*
X185500D02*
X182736D01*
Y72650D01*
X185500D01*
Y75413D01*
D02*
G37*
G36*
X209843Y79091D02*
X208984D01*
X208154Y78868D01*
X207409Y78439D01*
X206802Y77831D01*
X206372Y77087D01*
X206150Y76257D01*
Y75397D01*
X206372Y74567D01*
X206802Y73823D01*
X207409Y73215D01*
X208154Y72785D01*
X208984Y72563D01*
X209843D01*
X210673Y72785D01*
X211417Y73215D01*
X212025Y73823D01*
X212455Y74567D01*
X212677Y75397D01*
Y76257D01*
X212455Y77087D01*
X212025Y77831D01*
X211417Y78439D01*
X210673Y78868D01*
X209843Y79091D01*
D02*
G37*
G36*
X63516Y77764D02*
X62657D01*
X61827Y77541D01*
X61083Y77112D01*
X60475Y76504D01*
X60045Y75760D01*
X59823Y74930D01*
Y74070D01*
X60045Y73240D01*
X60475Y72496D01*
X61083Y71888D01*
X61827Y71459D01*
X62657Y71236D01*
X63516D01*
X64346Y71459D01*
X65091Y71888D01*
X65698Y72496D01*
X66128Y73240D01*
X66350Y74070D01*
Y74930D01*
X66128Y75760D01*
X65698Y76504D01*
X65091Y77112D01*
X64346Y77541D01*
X63516Y77764D01*
D02*
G37*
G36*
X49843D02*
X48984D01*
X48154Y77541D01*
X47409Y77112D01*
X46802Y76504D01*
X46372Y75760D01*
X46150Y74930D01*
Y74070D01*
X46372Y73240D01*
X46802Y72496D01*
X47409Y71888D01*
X48154Y71459D01*
X48984Y71236D01*
X49843D01*
X50673Y71459D01*
X51417Y71888D01*
X52025Y72496D01*
X52455Y73240D01*
X52677Y74070D01*
Y74930D01*
X52455Y75760D01*
X52025Y76504D01*
X51417Y77112D01*
X50673Y77541D01*
X49843Y77764D01*
D02*
G37*
G36*
X26850Y74000D02*
X24087D01*
Y71236D01*
X26850D01*
Y74000D01*
D02*
G37*
G36*
X23087D02*
X20323D01*
Y71236D01*
X23087D01*
Y74000D01*
D02*
G37*
G36*
X334995Y72941D02*
X334005D01*
X333050Y72685D01*
X332194Y72190D01*
X331494Y71491D01*
X331000Y70635D01*
X330744Y69679D01*
Y68691D01*
X331000Y67735D01*
X331494Y66879D01*
X332194Y66180D01*
X333050Y65685D01*
X334005Y65429D01*
X334995D01*
X335950Y65685D01*
X336806Y66180D01*
X337506Y66879D01*
X338000Y67735D01*
X338256Y68691D01*
Y69679D01*
X338000Y70635D01*
X337506Y71491D01*
X336806Y72190D01*
X335950Y72685D01*
X334995Y72941D01*
D02*
G37*
G36*
X377559Y65248D02*
X377500D01*
Y61500D01*
X381248D01*
Y61559D01*
X380959Y62640D01*
X380399Y63608D01*
X379608Y64399D01*
X378640Y64959D01*
X377559Y65248D01*
D02*
G37*
G36*
X376500D02*
X376441D01*
X375360Y64959D01*
X374392Y64399D01*
X373601Y63608D01*
X373042Y62640D01*
X372752Y61559D01*
Y61500D01*
X376500D01*
Y65248D01*
D02*
G37*
G36*
X237500Y60504D02*
Y57657D01*
X240347D01*
X240133Y58455D01*
X239690Y59222D01*
X239064Y59848D01*
X238298Y60290D01*
X237500Y60504D01*
D02*
G37*
G36*
X236500D02*
X235702Y60290D01*
X234936Y59848D01*
X234310Y59222D01*
X233867Y58455D01*
X233653Y57657D01*
X236500D01*
Y60504D01*
D02*
G37*
G36*
X381248Y60500D02*
X377500D01*
Y56752D01*
X377559D01*
X378640Y57042D01*
X379608Y57601D01*
X380399Y58392D01*
X380959Y59360D01*
X381248Y60441D01*
Y60500D01*
D02*
G37*
G36*
X376500D02*
X372752D01*
Y60441D01*
X373042Y59360D01*
X373601Y58392D01*
X374392Y57601D01*
X375360Y57042D01*
X376441Y56752D01*
X376500D01*
Y60500D01*
D02*
G37*
G36*
X240347Y56657D02*
X237500D01*
Y53811D01*
X238298Y54024D01*
X239064Y54467D01*
X239690Y55093D01*
X240133Y55860D01*
X240347Y56657D01*
D02*
G37*
G36*
X236500D02*
X233653D01*
X233867Y55860D01*
X234310Y55093D01*
X234936Y54467D01*
X235702Y54024D01*
X236500Y53811D01*
Y56657D01*
D02*
G37*
G36*
X296343Y59264D02*
X295484D01*
X294654Y59041D01*
X293909Y58612D01*
X293302Y58004D01*
X292872Y57260D01*
X292650Y56430D01*
Y55570D01*
X292872Y54740D01*
X293302Y53996D01*
X293909Y53388D01*
X294654Y52959D01*
X295484Y52736D01*
X296343D01*
X297173Y52959D01*
X297917Y53388D01*
X298525Y53996D01*
X298955Y54740D01*
X299177Y55570D01*
Y56430D01*
X298955Y57260D01*
X298525Y58004D01*
X297917Y58612D01*
X297173Y59041D01*
X296343Y59264D01*
D02*
G37*
G36*
X273350D02*
X266823D01*
Y52736D01*
X273350D01*
Y59264D01*
D02*
G37*
G36*
X105430Y54350D02*
X104570D01*
X103740Y54128D01*
X102996Y53698D01*
X102388Y53091D01*
X101959Y52346D01*
X101736Y51516D01*
Y50657D01*
X101959Y49827D01*
X102388Y49083D01*
X102996Y48475D01*
X103740Y48045D01*
X104570Y47823D01*
X105430D01*
X106260Y48045D01*
X107004Y48475D01*
X107612Y49083D01*
X108041Y49827D01*
X108264Y50657D01*
Y51516D01*
X108041Y52346D01*
X107612Y53091D01*
X107004Y53698D01*
X106260Y54128D01*
X105430Y54350D01*
D02*
G37*
G36*
X338256Y53256D02*
X330744D01*
Y45744D01*
X338256D01*
Y53256D01*
D02*
G37*
G36*
X159040Y52600D02*
X157960D01*
X156917Y52321D01*
X155982Y51781D01*
X155219Y51018D01*
X154679Y50083D01*
X154400Y49040D01*
Y47960D01*
X154679Y46917D01*
X155219Y45982D01*
X155982Y45219D01*
X156917Y44679D01*
X157960Y44400D01*
X159040D01*
X160083Y44679D01*
X161018Y45219D01*
X161781Y45982D01*
X162321Y46917D01*
X162600Y47960D01*
Y49040D01*
X162321Y50083D01*
X161781Y51018D01*
X161018Y51781D01*
X160083Y52321D01*
X159040Y52600D01*
D02*
G37*
G36*
X139040D02*
X137960D01*
X136917Y52321D01*
X135982Y51781D01*
X135219Y51018D01*
X134679Y50083D01*
X134400Y49040D01*
Y47960D01*
X134679Y46917D01*
X135219Y45982D01*
X135982Y45219D01*
X136917Y44679D01*
X137960Y44400D01*
X139040D01*
X140083Y44679D01*
X141018Y45219D01*
X141781Y45982D01*
X142321Y46917D01*
X142600Y47960D01*
Y49040D01*
X142321Y50083D01*
X141781Y51018D01*
X141018Y51781D01*
X140083Y52321D01*
X139040Y52600D01*
D02*
G37*
G36*
X184000Y60529D02*
X139000D01*
X138415Y60413D01*
X137919Y60081D01*
X130131Y52293D01*
X130083Y52321D01*
X129040Y52600D01*
X127960D01*
X126917Y52321D01*
X125982Y51781D01*
X125219Y51018D01*
X124679Y50083D01*
X124400Y49040D01*
Y47960D01*
X124679Y46917D01*
X125219Y45982D01*
X125982Y45219D01*
X126917Y44679D01*
X127960Y44400D01*
X129040D01*
X130083Y44679D01*
X131018Y45219D01*
X131781Y45982D01*
X132321Y46917D01*
X132600Y47960D01*
Y49040D01*
X132321Y50083D01*
X132293Y50130D01*
X139634Y57471D01*
X183367D01*
X184471Y56366D01*
Y52972D01*
X183996Y52698D01*
X183388Y52091D01*
X182959Y51346D01*
X182736Y50516D01*
Y49657D01*
X182959Y48827D01*
X183388Y48083D01*
X183996Y47475D01*
X184740Y47045D01*
X184969Y46984D01*
X185132Y46657D01*
X185219Y45882D01*
X178867Y39529D01*
X154133D01*
X150029Y43633D01*
Y44665D01*
X150083Y44679D01*
X151018Y45219D01*
X151781Y45982D01*
X152321Y46917D01*
X152600Y47960D01*
Y49040D01*
X152321Y50083D01*
X151781Y51018D01*
X151018Y51781D01*
X150083Y52321D01*
X149040Y52600D01*
X147960D01*
X146917Y52321D01*
X145982Y51781D01*
X145219Y51018D01*
X144679Y50083D01*
X144400Y49040D01*
Y47960D01*
X144679Y46917D01*
X145219Y45982D01*
X145982Y45219D01*
X146917Y44679D01*
X146971Y44665D01*
Y43000D01*
X147087Y42415D01*
X147419Y41919D01*
X152419Y36919D01*
X152915Y36587D01*
X153500Y36471D01*
X178867D01*
X182057Y33280D01*
Y31264D01*
X180323D01*
Y24736D01*
X186850D01*
Y31264D01*
X185116D01*
Y33913D01*
X185000Y34499D01*
X184668Y34995D01*
X181663Y38000D01*
X187134Y43471D01*
X254000D01*
X254585Y43587D01*
X255081Y43919D01*
X258633Y47471D01*
X291866D01*
X315919Y23419D01*
X316415Y23087D01*
X317000Y22971D01*
X353000D01*
X353585Y23087D01*
X354081Y23419D01*
X360081Y29419D01*
X360413Y29915D01*
X360529Y30500D01*
Y41366D01*
X368634Y49471D01*
X372752D01*
Y46752D01*
X381248D01*
Y55248D01*
X372752D01*
Y52529D01*
X368000D01*
X367415Y52413D01*
X366919Y52081D01*
X357919Y43081D01*
X357587Y42585D01*
X357471Y42000D01*
Y31133D01*
X352366Y26029D01*
X317634D01*
X293581Y50081D01*
X293085Y50413D01*
X292500Y50529D01*
X259529D01*
Y52701D01*
X260004Y52975D01*
X260612Y53583D01*
X261041Y54327D01*
X261264Y55157D01*
Y56016D01*
X261041Y56846D01*
X260612Y57591D01*
X260004Y58198D01*
X259260Y58628D01*
X258430Y58850D01*
X257570D01*
X256740Y58628D01*
X255996Y58198D01*
X255388Y57591D01*
X254959Y56846D01*
X254736Y56016D01*
Y55157D01*
X254959Y54327D01*
X255388Y53583D01*
X255996Y52975D01*
X256471Y52701D01*
Y49633D01*
X253366Y46529D01*
X213592D01*
X212677Y46736D01*
X212677Y47529D01*
Y53264D01*
X206150D01*
Y47529D01*
X206150Y46736D01*
X205235Y46529D01*
X188366D01*
X188077Y47283D01*
X188058Y47529D01*
X188612Y48083D01*
X189041Y48827D01*
X189264Y49657D01*
Y50516D01*
X189041Y51346D01*
X188612Y52091D01*
X188004Y52698D01*
X187529Y52972D01*
Y57000D01*
X187413Y57585D01*
X187081Y58081D01*
X185081Y60081D01*
X184585Y60413D01*
X184000Y60529D01*
D02*
G37*
G36*
X124177Y35264D02*
X117650D01*
Y28736D01*
X124177D01*
Y35264D01*
D02*
G37*
G36*
X95516D02*
X94657D01*
X93827Y35041D01*
X93083Y34612D01*
X92475Y34004D01*
X92045Y33260D01*
X91823Y32430D01*
Y31570D01*
X92045Y30740D01*
X92475Y29996D01*
X93083Y29388D01*
X93827Y28959D01*
X94657Y28736D01*
X95516D01*
X96346Y28959D01*
X97091Y29388D01*
X97698Y29996D01*
X98128Y30740D01*
X98350Y31570D01*
Y32430D01*
X98128Y33260D01*
X97698Y34004D01*
X97091Y34612D01*
X96346Y35041D01*
X95516Y35264D01*
D02*
G37*
G36*
X151947Y31896D02*
X151053D01*
X150189Y31664D01*
X149415Y31217D01*
X148783Y30585D01*
X148336Y29811D01*
X148104Y28947D01*
Y28053D01*
X148336Y27189D01*
X148783Y26415D01*
X149415Y25783D01*
X150189Y25336D01*
X151053Y25104D01*
X151947D01*
X152811Y25336D01*
X153585Y25783D01*
X154217Y26415D01*
X154664Y27189D01*
X154896Y28053D01*
Y28947D01*
X154664Y29811D01*
X154217Y30585D01*
X153585Y31217D01*
X152811Y31664D01*
X151947Y31896D01*
D02*
G37*
G36*
X141947D02*
X141053D01*
X140189Y31664D01*
X139415Y31217D01*
X138783Y30585D01*
X138336Y29811D01*
X138104Y28947D01*
Y28053D01*
X138336Y27189D01*
X138783Y26415D01*
X139415Y25783D01*
X140189Y25336D01*
X141053Y25104D01*
X141947D01*
X142811Y25336D01*
X143585Y25783D01*
X144217Y26415D01*
X144664Y27189D01*
X144896Y28053D01*
Y28947D01*
X144664Y29811D01*
X144217Y30585D01*
X143585Y31217D01*
X142811Y31664D01*
X141947Y31896D01*
D02*
G37*
G36*
X209843Y31264D02*
X208984D01*
X208154Y31041D01*
X207409Y30612D01*
X206802Y30004D01*
X206372Y29260D01*
X206150Y28430D01*
Y27570D01*
X206372Y26740D01*
X206802Y25996D01*
X207409Y25388D01*
X208154Y24959D01*
X208984Y24736D01*
X209843D01*
X210673Y24959D01*
X211417Y25388D01*
X212025Y25996D01*
X212455Y26740D01*
X212677Y27570D01*
Y28430D01*
X212455Y29260D01*
X212025Y30004D01*
X211417Y30612D01*
X210673Y31041D01*
X209843Y31264D01*
D02*
G37*
G36*
X373874Y39874D02*
X372126D01*
X370411Y39533D01*
X368797Y38864D01*
X367343Y37893D01*
X366107Y36657D01*
X365136Y35203D01*
X364467Y33588D01*
X364126Y31874D01*
Y30126D01*
X364467Y28411D01*
X365136Y26797D01*
X366107Y25343D01*
X367343Y24107D01*
X368797Y23136D01*
X370411Y22467D01*
X372126Y22126D01*
X373874D01*
X375588Y22467D01*
X377203Y23136D01*
X378657Y24107D01*
X379893Y25343D01*
X380864Y26797D01*
X381533Y28411D01*
X381874Y30126D01*
Y31874D01*
X381533Y33588D01*
X380864Y35203D01*
X379893Y36657D01*
X378657Y37893D01*
X377203Y38864D01*
X375588Y39533D01*
X373874Y39874D01*
D02*
G37*
G36*
X121527Y25500D02*
X120473D01*
X119456Y25227D01*
X118544Y24701D01*
X117799Y23956D01*
X117273Y23044D01*
X117000Y22027D01*
Y20973D01*
X117273Y19956D01*
X117799Y19044D01*
X118544Y18299D01*
X119456Y17773D01*
X120473Y17500D01*
X121527D01*
X122544Y17773D01*
X123456Y18299D01*
X124201Y19044D01*
X124727Y19956D01*
X125000Y20973D01*
Y22027D01*
X124727Y23044D01*
X124201Y23956D01*
X123456Y24701D01*
X122544Y25227D01*
X121527Y25500D01*
D02*
G37*
%LPD*%
D14*
X260500Y120913D02*
Y134500D01*
Y120913D02*
X281913Y99500D01*
X290587D01*
X328500Y90000D02*
X337293Y98793D01*
X148500Y83500D02*
X155000Y90000D01*
X148500Y78500D02*
Y83500D01*
X155000Y90000D02*
X328500D01*
X337293Y98793D02*
Y108707D01*
X340836Y112250D01*
X346250D01*
X157000Y121000D02*
Y137500D01*
X147481Y147019D02*
Y154500D01*
Y147019D02*
X157000Y137500D01*
X148500Y143000D02*
X155000Y136500D01*
X138500Y143000D02*
X148500D01*
X155000Y120000D02*
Y136500D01*
X157000Y121000D02*
X167000Y111000D01*
X155000Y120000D02*
X165000Y110000D01*
X167000Y96000D02*
Y111000D01*
X147981Y124019D02*
X163000Y109000D01*
X147981Y124019D02*
Y130000D01*
X165000Y97000D02*
Y110000D01*
X163000Y98000D02*
Y109000D01*
Y92000D02*
X167000Y96000D01*
X162000Y94000D02*
X165000Y97000D01*
X161000Y96000D02*
X163000Y98000D01*
X105000Y92000D02*
X163000D01*
X102500Y94000D02*
X162000D01*
X65500Y96000D02*
X161000D01*
X97000Y84000D02*
X105000Y92000D01*
X56500Y87000D02*
X65500Y96000D01*
X94000Y85500D02*
X102500Y94000D01*
X368000Y51000D02*
X377000D01*
X359000Y42000D02*
X368000Y51000D01*
X359000Y30500D02*
Y42000D01*
X353000Y24500D02*
X359000Y30500D01*
X317000Y24500D02*
X353000D01*
X292500Y49000D02*
X317000Y24500D01*
X258000Y49000D02*
X292500D01*
X179500Y38000D02*
X186500Y45000D01*
X254000D02*
X258000Y49000D01*
X186500Y45000D02*
X254000D01*
X342000Y105500D02*
Y112000D01*
X291413Y177913D02*
X297913D01*
X382500Y178000D02*
Y186000D01*
X381500Y187000D02*
X382500Y186000D01*
X346250Y112250D02*
X352500Y118500D01*
X377828D01*
X378413Y119086D01*
Y125500D01*
X62000Y174500D02*
Y233000D01*
X77500Y248500D01*
Y244500D02*
Y248500D01*
X39000Y233000D02*
X62000D01*
X77500Y244500D02*
X82500Y239500D01*
X92783D01*
X104283Y251000D01*
X113284Y260000D01*
X170000D01*
X175000Y255000D01*
Y179500D02*
Y255000D01*
X165500Y170000D02*
X175000Y179500D01*
X165500Y166342D02*
Y170000D01*
X104217Y103500D02*
X120783D01*
X104217D02*
Y113784D01*
X95000Y123000D02*
X104217Y113784D01*
X95000Y123000D02*
Y166000D01*
X91000Y170000D02*
X95000Y166000D01*
X66500Y170000D02*
X91000D01*
X62000Y174500D02*
X66500Y170000D01*
X104283Y247716D02*
X110000Y242000D01*
X117000D01*
X120000Y239000D01*
Y217500D02*
Y239000D01*
X104283Y247716D02*
Y251000D01*
X191000Y261500D02*
X376500D01*
X381500Y256500D01*
X185087Y255587D02*
X191000Y261500D01*
X185087Y247500D02*
Y255587D01*
X381500Y187000D02*
Y256500D01*
X375500Y181000D02*
X381500Y187000D01*
X359000Y181000D02*
X375500D01*
X354500Y176500D02*
X359000Y181000D01*
X354500Y167913D02*
Y176500D01*
X186000Y50087D02*
Y57000D01*
X184000Y59000D02*
X186000Y57000D01*
X139000Y59000D02*
X184000D01*
X128500Y48500D02*
X139000Y59000D01*
X52500Y65000D02*
X56500Y69000D01*
Y87000D01*
X214500Y116000D02*
X240000D01*
X187000D02*
X192500D01*
X214500D01*
X39500Y65000D02*
X52500D01*
X184000Y103815D02*
X198315D01*
X200500Y106000D01*
X214500D01*
X240000D01*
X34500Y60000D02*
X39500Y65000D01*
X34500Y42000D02*
Y60000D01*
X184000Y119000D02*
Y123500D01*
Y119000D02*
X187000Y116000D01*
X183587Y28000D02*
Y33913D01*
X153500Y38000D02*
X179500D01*
X183587Y33913D01*
X291413Y177913D02*
Y186957D01*
X290500Y164500D02*
Y177000D01*
X291413Y177913D01*
Y186957D02*
X371457D01*
X375413Y190913D02*
Y196000D01*
X371457Y186957D02*
X375413Y190913D01*
X291413Y186957D02*
Y197500D01*
X105500Y198500D02*
X115000D01*
X92000Y200500D02*
X103500D01*
X258000Y49000D02*
Y55587D01*
X148500Y43000D02*
X153500Y38000D01*
X148500Y43000D02*
Y48500D01*
X97000Y68500D02*
Y84000D01*
X93500Y65000D02*
X97000Y68500D01*
X77000Y65000D02*
X93500D01*
X74500Y62500D02*
X77000Y65000D01*
X74500Y42000D02*
Y62500D01*
X94000Y69000D02*
Y85500D01*
X92500Y67500D02*
X94000Y69000D01*
X150500Y236639D02*
X162837Y248976D01*
X150500Y174500D02*
Y236639D01*
X131500Y155500D02*
X150500Y174500D01*
X131500Y150000D02*
Y155500D01*
Y150000D02*
X138500Y143000D01*
X61000Y67500D02*
X92500D01*
X54500Y61000D02*
X61000Y67500D01*
X54500Y42000D02*
Y61000D01*
X103500Y200500D02*
X105500Y198500D01*
D15*
X105000Y51087D02*
D03*
X255587Y112500D02*
D03*
X290587D02*
D03*
X295913Y56000D02*
D03*
X258000Y55587D02*
D03*
X63087Y74500D02*
D03*
X49413D02*
D03*
X281913Y99500D02*
D03*
X290587D02*
D03*
X314587Y125500D02*
D03*
X349587Y196000D02*
D03*
X265587Y197500D02*
D03*
X226587D02*
D03*
X210913Y247500D02*
D03*
X95087Y32000D02*
D03*
X209413Y28000D02*
D03*
X52913Y118000D02*
D03*
X352587Y125500D02*
D03*
X209913Y188500D02*
D03*
X354500Y167913D02*
D03*
X209413Y75827D02*
D03*
X186000Y50087D02*
D03*
X238000Y169413D02*
D03*
D16*
X105000Y76913D02*
D03*
X258000Y81413D02*
D03*
X354500Y142087D02*
D03*
X186000Y75913D02*
D03*
X238000Y143587D02*
D03*
X209413Y50000D02*
D03*
D20*
X281413Y112500D02*
D03*
X316413D02*
D03*
X270087Y56000D02*
D03*
X88913Y74500D02*
D03*
X23587D02*
D03*
X256087Y99500D02*
D03*
X316413D02*
D03*
X340413Y125500D02*
D03*
X375413Y196000D02*
D03*
X291413Y197500D02*
D03*
X252413D02*
D03*
X185087Y247500D02*
D03*
X120913Y32000D02*
D03*
X183587Y28000D02*
D03*
X27087Y118000D02*
D03*
X184087Y188500D02*
D03*
X378413Y125500D02*
D03*
D26*
X184000Y103815D02*
D03*
X237000Y76842D02*
D03*
X165500Y166342D02*
D03*
X120000Y217500D02*
D03*
X311000Y147658D02*
D03*
D27*
X184000Y123500D02*
D03*
X237000Y57157D02*
D03*
X310157Y196500D02*
D03*
X22815Y140000D02*
D03*
X115000Y222500D02*
D03*
X165500Y146658D02*
D03*
X122158Y181000D02*
D03*
X311000Y167342D02*
D03*
X110000Y217500D02*
D03*
D29*
X147981Y130000D02*
D03*
X147481Y154500D02*
D03*
D30*
X105019Y130000D02*
D03*
X104519Y154500D02*
D03*
D32*
X329842Y196500D02*
D03*
X42500Y140000D02*
D03*
X141842Y181000D02*
D03*
D44*
X210000Y221559D02*
D03*
X210500Y160000D02*
D03*
X200500D02*
D03*
X200000Y221559D02*
D03*
D45*
X190000D02*
D03*
X190500Y160000D02*
D03*
D49*
X162837Y248976D02*
D03*
Y189921D02*
D03*
X334500Y69185D02*
D03*
D50*
Y49500D02*
D03*
D52*
X75330Y133882D02*
D03*
Y143882D02*
D03*
X367000Y104000D02*
D03*
X377000D02*
D03*
D53*
X323315Y242000D02*
D03*
X343000D02*
D03*
X244815D02*
D03*
X264500D02*
D03*
D54*
X362685D02*
D03*
X284185D02*
D03*
D55*
X139500Y228716D02*
D03*
X104217Y103500D02*
D03*
X120783D02*
D03*
X139716Y251000D02*
D03*
D56*
X139500Y193283D02*
D03*
D57*
X68783Y103500D02*
D03*
X156217D02*
D03*
X104283Y251000D02*
D03*
D58*
X372500Y152000D02*
D03*
Y162000D02*
D03*
X151500Y28500D02*
D03*
X240000Y106000D02*
D03*
X214500D02*
D03*
X141500Y28500D02*
D03*
X214500Y116000D02*
D03*
X240000D02*
D03*
D59*
X87500Y248500D02*
D03*
X377000Y61000D02*
D03*
X32000Y100000D02*
D03*
D60*
X77500Y248500D02*
D03*
X22000Y100000D02*
D03*
D61*
X47000Y177500D02*
D03*
D62*
X27000D02*
D03*
X37000D02*
D03*
D63*
X377000Y51000D02*
D03*
D64*
X121000Y21500D02*
D03*
X174000Y83500D02*
D03*
X342000Y105500D02*
D03*
X344000Y137000D02*
D03*
X304500Y135500D02*
D03*
X297913Y177913D02*
D03*
X382500Y178000D02*
D03*
X115000Y198500D02*
D03*
X91500Y201000D02*
D03*
D65*
X284500Y76500D02*
D03*
X279500D02*
D03*
X331000Y157500D02*
D03*
Y152500D02*
D03*
D66*
X274500Y76500D02*
D03*
D67*
X39000Y233000D02*
D03*
Y213000D02*
D03*
D68*
X99980Y180000D02*
D03*
X90000D02*
D03*
D69*
X331000Y162500D02*
D03*
D70*
X77500Y218000D02*
D03*
X87500D02*
D03*
D71*
X260500Y164500D02*
D03*
X128500Y78500D02*
D03*
Y48500D02*
D03*
X138500Y78500D02*
D03*
X280500Y164500D02*
D03*
X158500Y48500D02*
D03*
X148500D02*
D03*
X138500D02*
D03*
X148500Y78500D02*
D03*
X270500Y164500D02*
D03*
X260500Y134500D02*
D03*
X270500D02*
D03*
X280500D02*
D03*
X290500D02*
D03*
D72*
X158500Y78500D02*
D03*
X290500Y164500D02*
D03*
D73*
X34500Y42000D02*
D03*
X74500D02*
D03*
X54500D02*
D03*
D74*
X27000Y257500D02*
D03*
X373000Y31000D02*
D03*
D75*
X80020Y180000D02*
D03*
M02*
